<?xml version="1.0" encoding="UTF-8" standalone="no"?>
<!DOCTYPE svg PUBLIC "-//W3C//DTD SVG 1.1//EN"
 "http://www.w3.org/Graphics/SVG/1.1/DTD/svg11.dtd">
<!-- Generated by graphviz version 2.38.0 (20140413.2041)
 -->
<!-- Title: G Pages: 1 -->
<svg width="785pt" height="667pt"
 viewBox="0.00 0.00 784.76 667.00" xmlns="http://www.w3.org/2000/svg" xmlns:xlink="http://www.w3.org/1999/xlink">
<g id="graph0" class="graph" transform="scale(1 1) rotate(0) translate(4 663)">
<title>G</title>
<polygon fill="white" stroke="none" points="-4,4 -4,-663 780.764,-663 780.764,4 -4,4"/>
<g id="clust1" class="cluster"><title>cluster_Global</title>
<path fill="none" stroke="gray" d="M20,-175C20,-175 756.764,-175 756.764,-175 762.764,-175 768.764,-181 768.764,-187 768.764,-187 768.764,-639 768.764,-639 768.764,-645 762.764,-651 756.764,-651 756.764,-651 20,-651 20,-651 14,-651 8,-645 8,-639 8,-639 8,-187 8,-187 8,-181 14,-175 20,-175"/>
<text text-anchor="middle" x="388.382" y="-638.2" font-family="Times,serif" font-size="11.00" fill="gray">Global</text>
</g>
<g id="clust2" class="cluster"><title>cluster_\Haldayne</title>
<path fill="none" stroke="gray" d="M28,-183C28,-183 748.764,-183 748.764,-183 754.764,-183 760.764,-189 760.764,-195 760.764,-195 760.764,-611 760.764,-611 760.764,-617 754.764,-623 748.764,-623 748.764,-623 28,-623 28,-623 22,-623 16,-617 16,-611 16,-611 16,-195 16,-195 16,-189 22,-183 28,-183"/>
<text text-anchor="middle" x="388.382" y="-610.2" font-family="Times,serif" font-size="11.00" fill="gray">Haldayne</text>
</g>
<g id="clust3" class="cluster"><title>cluster_\Haldayne\Customs</title>
<path fill="none" stroke="gray" d="M318.329,-361C318.329,-361 740.764,-361 740.764,-361 746.764,-361 752.764,-367 752.764,-373 752.764,-373 752.764,-583 752.764,-583 752.764,-589 746.764,-595 740.764,-595 740.764,-595 318.329,-595 318.329,-595 312.329,-595 306.329,-589 306.329,-583 306.329,-583 306.329,-373 306.329,-373 306.329,-367 312.329,-361 318.329,-361"/>
<text text-anchor="middle" x="529.546" y="-582.2" font-family="Times,serif" font-size="11.00" fill="gray">Customs</text>
</g>
<g id="clust4" class="cluster"><title>cluster_\Haldayne\Boost</title>
<path fill="none" stroke="gray" d="M36,-191C36,-191 720.264,-191 720.264,-191 726.264,-191 732.264,-197 732.264,-203 732.264,-203 732.264,-341 732.264,-341 732.264,-347 726.264,-353 720.264,-353 720.264,-353 36,-353 36,-353 30,-353 24,-347 24,-341 24,-341 24,-203 24,-203 24,-197 30,-191 36,-191"/>
<text text-anchor="middle" x="378.132" y="-340.2" font-family="Times,serif" font-size="11.00" fill="gray">Boost</text>
</g>
<g id="clust5" class="cluster"><title>cluster_\Haldayne\Boost\Contract</title>
<path fill="none" stroke="gray" d="M44,-199C44,-199 113,-199 113,-199 119,-199 125,-205 125,-211 125,-211 125,-313 125,-313 125,-319 119,-325 113,-325 113,-325 44,-325 44,-325 38,-325 32,-319 32,-313 32,-313 32,-211 32,-211 32,-205 38,-199 44,-199"/>
<text text-anchor="middle" x="78.5" y="-312.2" font-family="Times,serif" font-size="11.00" fill="gray">Contract</text>
</g>
<!-- \\Haldayne\\Customs\\UploadException -->
<g id="node1" class="node"><title>\\Haldayne\\Customs\\UploadException</title>
<polygon fill="none" stroke="black" points="744.764,-459 626.764,-459 626.764,-423 744.764,-423 744.764,-459"/>
<text text-anchor="middle" x="685.764" y="-438.2" font-family="Courier,monospace" font-size="11.00">UploadException</text>
</g>
<!-- \\RuntimeException -->
<g id="node10" class="node"><title>\\RuntimeException</title>
<ellipse fill="none" stroke="black" cx="390.329" cy="-72" rx="79.0865" ry="18"/>
<text text-anchor="middle" x="390.329" y="-68.3" font-family="Times,serif" font-size="14.00" fill="gray">\RuntimeException</text>
</g>
<!-- \\Haldayne\\Customs\\UploadException&#45;&gt;\\RuntimeException -->
<g id="edge1" class="edge"><title>\\Haldayne\\Customs\\UploadException&#45;&gt;\\RuntimeException</title>
<path fill="none" stroke="black" d="M636.263,-422.95C632.727,-420.337 629.488,-417.368 626.764,-414 536.473,-302.324 659.361,-197.405 554.764,-99 534.057,-79.5187 504.97,-71.0571 477.064,-68.0095"/>
<polygon fill="none" stroke="black" points="477.119,-64.5012 466.853,-67.1213 476.512,-71.4749 477.119,-64.5012"/>
</g>
<!-- \\Haldayne\\Customs\\UploadFile -->
<g id="node2" class="node"><title>\\Haldayne\\Customs\\UploadFile</title>
<polygon fill="none" stroke="black" points="727.764,-567 643.764,-567 643.764,-531 727.764,-531 727.764,-567"/>
<text text-anchor="middle" x="685.764" y="-546.2" font-family="Courier,monospace" font-size="11.00">UploadFile</text>
</g>
<!-- \\Haldayne\\Customs\\AbstractUploadEntity -->
<g id="node4" class="node"><title>\\Haldayne\\Customs\\AbstractUploadEntity</title>
<polygon fill="none" stroke="black" points="466.329,-567 314.329,-567 314.329,-531 466.329,-531 466.329,-567"/>
<text text-anchor="start" x="356.329" y="-552.2" font-family="Courier,monospace" font-size="11.00">«abstract»</text>
<text text-anchor="start" x="322.329" y="-540.2" font-family="Courier,monospace" font-size="11.00">AbstractUploadEntity</text>
</g>
<!-- \\Haldayne\\Customs\\UploadFile&#45;&gt;\\Haldayne\\Customs\\AbstractUploadEntity -->
<g id="edge2" class="edge"><title>\\Haldayne\\Customs\\UploadFile&#45;&gt;\\Haldayne\\Customs\\AbstractUploadEntity</title>
<path fill="none" stroke="black" d="M643.654,-549C600.519,-549 531.474,-549 476.506,-549"/>
<polygon fill="none" stroke="black" points="476.415,-545.5 466.415,-549 476.415,-552.5 476.415,-545.5"/>
</g>
<!-- \\Haldayne\\Customs\\UploadError -->
<g id="node3" class="node"><title>\\Haldayne\\Customs\\UploadError</title>
<polygon fill="none" stroke="black" points="731.264,-405 640.264,-405 640.264,-369 731.264,-369 731.264,-405"/>
<text text-anchor="middle" x="685.764" y="-384.2" font-family="Courier,monospace" font-size="11.00">UploadError</text>
</g>
<!-- \\Haldayne\\Customs\\AbstractdUploadEntity -->
<g id="node11" class="node"><title>\\Haldayne\\Customs\\AbstractdUploadEntity</title>
<ellipse fill="none" stroke="black" cx="390.329" cy="-18" rx="164.371" ry="18"/>
<text text-anchor="middle" x="390.329" y="-14.3" font-family="Times,serif" font-size="14.00" fill="gray">\Haldayne\Customs\AbstractdUploadEntity</text>
</g>
<!-- \\Haldayne\\Customs\\UploadError&#45;&gt;\\Haldayne\\Customs\\AbstractdUploadEntity -->
<g id="edge3" class="edge"><title>\\Haldayne\\Customs\\UploadError&#45;&gt;\\Haldayne\\Customs\\AbstractdUploadEntity</title>
<path fill="none" stroke="black" d="M640.143,-369.278C635.093,-365.813 630.449,-361.746 626.764,-357 539.497,-244.586 658.516,-142.406 554.764,-45 549.693,-40.2389 544.121,-36.1364 538.188,-32.6107"/>
<polygon fill="none" stroke="black" points="539.725,-29.4637 529.254,-27.8481 536.432,-35.6408 539.725,-29.4637"/>
</g>
<!-- \\Haldayne\\Customs\\UploadIterator -->
<g id="node5" class="node"><title>\\Haldayne\\Customs\\UploadIterator</title>
<polygon fill="none" stroke="black" points="741.264,-513 630.264,-513 630.264,-477 741.264,-477 741.264,-513"/>
<text text-anchor="middle" x="685.764" y="-492.2" font-family="Courier,monospace" font-size="11.00">UploadIterator</text>
</g>
<!-- \\ArrayAccess -->
<g id="node12" class="node"><title>\\ArrayAccess</title>
<ellipse fill="none" stroke="black" cx="78.5" cy="-95" rx="58.4896" ry="18"/>
<text text-anchor="middle" x="78.5" y="-91.3" font-family="Times,serif" font-size="14.00" fill="gray">\ArrayAccess</text>
</g>
<!-- \\Haldayne\\Customs\\UploadIterator&#45;&gt;\\ArrayAccess -->
<g id="edge4" class="edge"><title>\\Haldayne\\Customs\\UploadIterator&#45;&gt;\\ArrayAccess</title>
<path fill="none" stroke="black" stroke-dasharray="1,5" d="M389.329,-172C327.998,-132.174 296.541,-171.881 225.893,-153 192.235,-144.005 186.282,-134.837 153.893,-122 145.357,-118.617 136.208,-115.16 127.348,-111.898"/>
<polygon fill="none" stroke="black" points="128.484,-108.587 117.89,-108.449 126.085,-115.163 128.484,-108.587"/>
</g>
<!-- \\SeekableIterator -->
<g id="node13" class="node"><title>\\SeekableIterator</title>
<ellipse fill="none" stroke="black" cx="390.329" cy="-126" rx="70.6878" ry="18"/>
<text text-anchor="middle" x="390.329" y="-122.3" font-family="Times,serif" font-size="14.00" fill="gray">\SeekableIterator</text>
</g>
<!-- \\Haldayne\\Customs\\UploadIterator&#45;&gt;\\SeekableIterator -->
<g id="edge5" class="edge"><title>\\Haldayne\\Customs\\UploadIterator&#45;&gt;\\SeekableIterator</title>
<path fill="none" stroke="black" stroke-dasharray="1,5" d="M636.276,-476.94C632.737,-474.329 629.493,-471.364 626.764,-468 537.642,-358.164 656.509,-256.258 554.764,-158 532.528,-136.526 500.359,-127.407 470.432,-124.069"/>
<polygon fill="none" stroke="black" points="470.664,-120.576 460.387,-123.149 470.026,-127.547 470.664,-120.576"/>
</g>
<!-- \\Countable -->
<g id="node14" class="node"><title>\\Countable</title>
<ellipse fill="none" stroke="black" cx="78.5" cy="-41" rx="49.2915" ry="18"/>
<text text-anchor="middle" x="78.5" y="-37.3" font-family="Times,serif" font-size="14.00" fill="gray">\Countable</text>
</g>
<!-- \\Haldayne\\Customs\\UploadIterator&#45;&gt;\\Countable -->
<g id="edge6" class="edge"><title>\\Haldayne\\Customs\\UploadIterator&#45;&gt;\\Countable</title>
<path fill="none" stroke="black" stroke-dasharray="1,5" d="M636.357,-476.873C632.802,-474.276 629.531,-471.333 626.764,-468 544.404,-368.813 652.891,-270.62 554.764,-187 499.245,-139.689 452.505,-211.726 391.329,-172"/>
<path fill="none" stroke="black" stroke-dasharray="1,5" d="M389.329,-172C327.998,-132.174 290.351,-187.536 225.893,-153 182.253,-129.618 194.528,-96.2843 153.893,-68 146.357,-62.7543 137.686,-58.4075 128.986,-54.8476"/>
<polygon fill="none" stroke="black" points="130.178,-51.5565 119.587,-51.2884 127.699,-58.1029 130.178,-51.5565"/>
</g>
<!-- \\Haldayne\\Boost\\Contract\\Arrayable -->
<g id="node6" class="node"><title>\\Haldayne\\Boost\\Contract\\Arrayable</title>
<polygon fill="none" stroke="black" points="117,-243 40,-243 40,-207 117,-207 117,-243"/>
<text text-anchor="middle" x="78.5" y="-222.2" font-family="Courier,monospace" font-size="11.00">Arrayable</text>
</g>
<!-- \\Haldayne\\Boost\\Contract\\Jsonable -->
<g id="node7" class="node"><title>\\Haldayne\\Boost\\Contract\\Jsonable</title>
<polygon fill="none" stroke="black" points="114,-297 43,-297 43,-261 114,-261 114,-297"/>
<text text-anchor="middle" x="78.5" y="-276.2" font-family="Courier,monospace" font-size="11.00">Jsonable</text>
</g>
<!-- \\Haldayne\\Boost\\Map -->
<g id="node8" class="node"><title>\\Haldayne\\Boost\\Map</title>
<polygon fill="none" stroke="black" points="417.329,-236 363.329,-236 363.329,-200 417.329,-200 417.329,-236"/>
<text text-anchor="middle" x="390.329" y="-215.2" font-family="Courier,monospace" font-size="11.00">Map</text>
</g>
<!-- \\Haldayne\\Boost\\Map&#45;&gt;\\Haldayne\\Boost\\Contract\\Arrayable -->
<g id="edge8" class="edge"><title>\\Haldayne\\Boost\\Map&#45;&gt;\\Haldayne\\Boost\\Contract\\Arrayable</title>
<path fill="none" stroke="black" stroke-dasharray="1,5" d="M363.18,-218.591C311.042,-219.769 193.476,-222.425 127.223,-223.922"/>
<polygon fill="none" stroke="black" points="126.967,-220.427 117.048,-224.152 127.125,-227.425 126.967,-220.427"/>
</g>
<!-- \\Haldayne\\Boost\\Map&#45;&gt;\\Haldayne\\Boost\\Contract\\Jsonable -->
<g id="edge9" class="edge"><title>\\Haldayne\\Boost\\Map&#45;&gt;\\Haldayne\\Boost\\Contract\\Jsonable</title>
<path fill="none" stroke="black" stroke-dasharray="1,5" d="M363.18,-223.148C310.28,-233.563 190.027,-257.239 124.353,-270.169"/>
<polygon fill="none" stroke="black" points="123.435,-266.783 114.3,-272.149 124.787,-273.651 123.435,-266.783"/>
</g>
<!-- \\Haldayne\\Boost\\Map&#45;&gt;\\ArrayAccess -->
<g id="edge10" class="edge"><title>\\Haldayne\\Boost\\Map&#45;&gt;\\ArrayAccess</title>
<path fill="none" stroke="black" stroke-dasharray="1,5" d="M363.063,-217.093C329.594,-215.013 270.713,-208.206 225.893,-186 187.529,-166.993 190.673,-143.917 153.893,-122 146.845,-117.8 139.036,-114.09 131.206,-110.87"/>
<polygon fill="none" stroke="black" points="132.283,-107.534 121.694,-107.186 129.755,-114.061 132.283,-107.534"/>
</g>
<!-- \\Haldayne\\Boost\\Map&#45;&gt;\\Countable -->
<g id="edge7" class="edge"><title>\\Haldayne\\Boost\\Map&#45;&gt;\\Countable</title>
<path fill="none" stroke="black" stroke-dasharray="1,5" d="M363.069,-219.099C328.545,-219.247 267.419,-214.909 225.893,-186 175.472,-150.899 201.45,-106.895 153.893,-68 146.939,-62.3119 138.683,-57.7681 130.245,-54.155"/>
<polygon fill="none" stroke="black" points="131.289,-50.8062 120.7,-50.4598 128.762,-57.3341 131.289,-50.8062"/>
</g>
<!-- \\IteratorAggregate -->
<g id="node15" class="node"><title>\\IteratorAggregate</title>
<ellipse fill="none" stroke="black" cx="78.5" cy="-149" rx="75.2868" ry="18"/>
<text text-anchor="middle" x="78.5" y="-145.3" font-family="Times,serif" font-size="14.00" fill="gray">\IteratorAggregate</text>
</g>
<!-- \\Haldayne\\Boost\\Map&#45;&gt;\\IteratorAggregate -->
<g id="edge11" class="edge"><title>\\Haldayne\\Boost\\Map&#45;&gt;\\IteratorAggregate</title>
<path fill="none" stroke="black" stroke-dasharray="1,5" d="M363.196,-213.335C330.853,-207.457 274.138,-196.811 225.893,-186 197.313,-179.595 165.796,-171.734 139.349,-164.906"/>
<polygon fill="none" stroke="black" points="140.036,-161.469 129.477,-162.346 138.278,-168.245 140.036,-161.469"/>
</g>
<!-- \\Haldayne\\Boost\\MapOfMaps -->
<g id="node9" class="node"><title>\\Haldayne\\Boost\\MapOfMaps</title>
<polygon fill="none" stroke="black" points="724.264,-236 647.264,-236 647.264,-200 724.264,-200 724.264,-236"/>
<text text-anchor="middle" x="685.764" y="-215.2" font-family="Courier,monospace" font-size="11.00">MapOfMaps</text>
</g>
<!-- \\Haldayne\\Boost\\MapOfMaps&#45;&gt;\\Haldayne\\Boost\\Map -->
<g id="edge12" class="edge"><title>\\Haldayne\\Boost\\MapOfMaps&#45;&gt;\\Haldayne\\Boost\\Map</title>
<path fill="none" stroke="black" d="M647.003,-218C590.29,-218 483.819,-218 427.844,-218"/>
<polygon fill="none" stroke="black" points="427.678,-214.5 417.678,-218 427.678,-221.5 427.678,-214.5"/>
</g>
</g>
</svg>
