<?xml version="1.0" encoding="UTF-8" standalone="no"?>
<!DOCTYPE svg PUBLIC "-//W3C//DTD SVG 1.1//EN"
 "http://www.w3.org/Graphics/SVG/1.1/DTD/svg11.dtd">
<!-- Generated by graphviz version 2.38.0 (20140413.2041)
 -->
<!-- Title: G Pages: 1 -->
<svg width="1015pt" height="1014pt"
 viewBox="0.00 0.00 1015.17 1014.00" xmlns="http://www.w3.org/2000/svg" xmlns:xlink="http://www.w3.org/1999/xlink">
<g id="graph0" class="graph" transform="scale(1 1) rotate(0) translate(4 1010)">
<title>G</title>
<polygon fill="white" stroke="none" points="-4,4 -4,-1010 1011.17,-1010 1011.17,4 -4,4"/>
<g id="clust1" class="cluster"><title>cluster_Global</title>
<path fill="none" stroke="gray" d="M20,-152C20,-152 987.167,-152 987.167,-152 993.167,-152 999.167,-158 999.167,-164 999.167,-164 999.167,-986 999.167,-986 999.167,-992 993.167,-998 987.167,-998 987.167,-998 20,-998 20,-998 14,-998 8,-992 8,-986 8,-986 8,-164 8,-164 8,-158 14,-152 20,-152"/>
<text text-anchor="middle" x="503.583" y="-985.2" font-family="Times,serif" font-size="11.00" fill="gray">Global</text>
</g>
<g id="clust2" class="cluster"><title>cluster_\Haldayne</title>
<path fill="none" stroke="gray" d="M28,-160C28,-160 979.167,-160 979.167,-160 985.167,-160 991.167,-166 991.167,-172 991.167,-172 991.167,-958 991.167,-958 991.167,-964 985.167,-970 979.167,-970 979.167,-970 28,-970 28,-970 22,-970 16,-964 16,-958 16,-958 16,-172 16,-172 16,-166 22,-160 28,-160"/>
<text text-anchor="middle" x="503.583" y="-957.2" font-family="Times,serif" font-size="11.00" fill="gray">Haldayne</text>
</g>
<g id="clust3" class="cluster"><title>cluster_\Haldayne\Customs</title>
<path fill="none" stroke="gray" d="M598.323,-168C598.323,-168 971.167,-168 971.167,-168 977.167,-168 983.167,-174 983.167,-180 983.167,-180 983.167,-552 983.167,-552 983.167,-558 977.167,-564 971.167,-564 971.167,-564 598.323,-564 598.323,-564 592.323,-564 586.323,-558 586.323,-552 586.323,-552 586.323,-180 586.323,-180 586.323,-174 592.323,-168 598.323,-168"/>
<text text-anchor="middle" x="784.745" y="-551.2" font-family="Times,serif" font-size="11.00" fill="gray">Customs</text>
</g>
<g id="clust4" class="cluster"><title>cluster_\Haldayne\Boost</title>
<path fill="none" stroke="gray" d="M36,-572C36,-572 931.667,-572 931.667,-572 937.667,-572 943.667,-578 943.667,-584 943.667,-584 943.667,-930 943.667,-930 943.667,-936 937.667,-942 931.667,-942 931.667,-942 36,-942 36,-942 30,-942 24,-936 24,-930 24,-930 24,-584 24,-584 24,-578 30,-572 36,-572"/>
<text text-anchor="middle" x="483.833" y="-929.2" font-family="Times,serif" font-size="11.00" fill="gray">Boost</text>
</g>
<g id="clust5" class="cluster"><title>cluster_\Haldayne\Boost\Lambda</title>
<path fill="none" stroke="gray" d="M847.667,-680C847.667,-680 923.667,-680 923.667,-680 929.667,-680 935.667,-686 935.667,-692 935.667,-692 935.667,-902 935.667,-902 935.667,-908 929.667,-914 923.667,-914 923.667,-914 847.667,-914 847.667,-914 841.667,-914 835.667,-908 835.667,-902 835.667,-902 835.667,-692 835.667,-692 835.667,-686 841.667,-680 847.667,-680"/>
<text text-anchor="middle" x="885.667" y="-901.2" font-family="Times,serif" font-size="11.00" fill="gray">Lambda</text>
</g>
<g id="clust6" class="cluster"><title>cluster_\Haldayne\Boost\Contract</title>
<path fill="none" stroke="gray" d="M44,-580C44,-580 113,-580 113,-580 119,-580 125,-586 125,-592 125,-592 125,-694 125,-694 125,-700 119,-706 113,-706 113,-706 44,-706 44,-706 38,-706 32,-700 32,-694 32,-694 32,-592 32,-592 32,-586 38,-580 44,-580"/>
<text text-anchor="middle" x="78.5" y="-693.2" font-family="Times,serif" font-size="11.00" fill="gray">Contract</text>
</g>
<!-- \\Haldayne\\Customs\\UploadError -->
<g id="node1" class="node"><title>\\Haldayne\\Customs\\UploadError</title>
<polygon fill="none" stroke="black" points="931.167,-536 840.167,-536 840.167,-500 931.167,-500 931.167,-536"/>
<text text-anchor="middle" x="885.667" y="-515.2" font-family="Courier,monospace" font-size="11.00">UploadError</text>
</g>
<!-- \\Haldayne\\Customs\\UploadException -->
<g id="node2" class="node"><title>\\Haldayne\\Customs\\UploadException</title>
<polygon fill="none" stroke="black" points="712.323,-374 594.323,-374 594.323,-338 712.323,-338 712.323,-374"/>
<text text-anchor="middle" x="653.323" y="-353.2" font-family="Courier,monospace" font-size="11.00">UploadException</text>
</g>
<!-- \\RuntimeException -->
<g id="node21" class="node"><title>\\RuntimeException</title>
<ellipse fill="none" stroke="black" cx="431.186" cy="-126" rx="79.0865" ry="18"/>
<text text-anchor="middle" x="431.186" y="-122.3" font-family="Times,serif" font-size="14.00" fill="gray">\RuntimeException</text>
</g>
<!-- \\Haldayne\\Customs\\UploadException&#45;&gt;\\RuntimeException -->
<g id="edge1" class="edge"><title>\\Haldayne\\Customs\\UploadException&#45;&gt;\\RuntimeException</title>
<path fill="none" stroke="black" d="M635.049,-337.952C595.972,-297.124 500.719,-197.604 456.049,-150.932"/>
<polygon fill="none" stroke="black" points="458.52,-148.452 449.077,-143.648 453.463,-153.292 458.52,-148.452"/>
</g>
<!-- \\Haldayne\\Customs\\ServerProblemException -->
<g id="node3" class="node"><title>\\Haldayne\\Customs\\ServerProblemException</title>
<polygon fill="none" stroke="black" points="968.167,-482 803.167,-482 803.167,-446 968.167,-446 968.167,-482"/>
<text text-anchor="middle" x="885.667" y="-461.2" font-family="Courier,monospace" font-size="11.00">ServerProblemException</text>
</g>
<!-- \\Haldayne\\Customs\\ServerProblemException&#45;&gt;\\Haldayne\\Customs\\UploadException -->
<g id="edge2" class="edge"><title>\\Haldayne\\Customs\\ServerProblemException&#45;&gt;\\Haldayne\\Customs\\UploadException</title>
<path fill="none" stroke="black" d="M819.301,-445.871C811.411,-443.153 803.541,-440.183 796.167,-437 758.577,-420.775 718.272,-397.088 690.269,-379.516"/>
<polygon fill="none" stroke="black" points="691.95,-376.437 681.629,-374.043 688.204,-382.351 691.95,-376.437"/>
</g>
<!-- \\Haldayne\\Customs\\UploadFile -->
<g id="node4" class="node"><title>\\Haldayne\\Customs\\UploadFile</title>
<polygon fill="none" stroke="black" points="927.667,-428 843.667,-428 843.667,-392 927.667,-392 927.667,-428"/>
<text text-anchor="middle" x="885.667" y="-407.2" font-family="Courier,monospace" font-size="11.00">UploadFile</text>
</g>
<!-- \\Haldayne\\Customs\\SecurityConcernException -->
<g id="node5" class="node"><title>\\Haldayne\\Customs\\SecurityConcernException</title>
<polygon fill="none" stroke="black" points="975.167,-374 796.167,-374 796.167,-338 975.167,-338 975.167,-374"/>
<text text-anchor="middle" x="885.667" y="-353.2" font-family="Courier,monospace" font-size="11.00">SecurityConcernException</text>
</g>
<!-- \\Haldayne\\Customs\\SecurityConcernException&#45;&gt;\\Haldayne\\Customs\\UploadException -->
<g id="edge3" class="edge"><title>\\Haldayne\\Customs\\SecurityConcernException&#45;&gt;\\Haldayne\\Customs\\UploadException</title>
<path fill="none" stroke="black" d="M795.939,-356C771.541,-356 745.469,-356 722.432,-356"/>
<polygon fill="none" stroke="black" points="722.419,-352.5 712.419,-356 722.419,-359.5 722.419,-352.5"/>
</g>
<!-- \\Haldayne\\Customs\\UploadConfig -->
<g id="node6" class="node"><title>\\Haldayne\\Customs\\UploadConfig</title>
<polygon fill="none" stroke="black" points="934.667,-320 836.667,-320 836.667,-284 934.667,-284 934.667,-320"/>
<text text-anchor="middle" x="885.667" y="-299.2" font-family="Courier,monospace" font-size="11.00">UploadConfig</text>
</g>
<!-- \\Haldayne\\Customs\\UploadIterator -->
<g id="node7" class="node"><title>\\Haldayne\\Customs\\UploadIterator</title>
<polygon fill="none" stroke="black" points="941.167,-266 830.167,-266 830.167,-230 941.167,-230 941.167,-266"/>
<text text-anchor="middle" x="885.667" y="-245.2" font-family="Courier,monospace" font-size="11.00">UploadIterator</text>
</g>
<!-- \\ArrayAccess -->
<g id="node22" class="node"><title>\\ArrayAccess</title>
<ellipse fill="none" stroke="black" cx="78.5" cy="-72" rx="58.4896" ry="18"/>
<text text-anchor="middle" x="78.5" y="-68.3" font-family="Times,serif" font-size="14.00" fill="gray">\ArrayAccess</text>
</g>
<!-- \\Haldayne\\Customs\\UploadIterator&#45;&gt;\\ArrayAccess -->
<g id="edge4" class="edge"><title>\\Haldayne\\Customs\\UploadIterator&#45;&gt;\\ArrayAccess</title>
<path fill="none" stroke="black" stroke-dasharray="1,5" d="M251.893,-72C217.292,-69.3373 178.669,-69.0867 146.765,-69.6094"/>
<polygon fill="none" stroke="black" points="146.587,-66.112 136.656,-69.8041 146.722,-73.1107 146.587,-66.112"/>
</g>
<!-- \\SeekableIterator -->
<g id="node23" class="node"><title>\\SeekableIterator</title>
<ellipse fill="none" stroke="black" cx="653.323" cy="-26" rx="70.6878" ry="18"/>
<text text-anchor="middle" x="653.323" y="-22.3" font-family="Times,serif" font-size="14.00" fill="gray">\SeekableIterator</text>
</g>
<!-- \\Haldayne\\Customs\\UploadIterator&#45;&gt;\\SeekableIterator -->
<g id="edge5" class="edge"><title>\\Haldayne\\Customs\\UploadIterator&#45;&gt;\\SeekableIterator</title>
<path fill="none" stroke="black" stroke-dasharray="1,5" d="M829.865,-239.202C817.724,-235.214 805.661,-229.42 796.167,-221 736.913,-168.453 779.783,-114.383 724.167,-58 719.258,-53.0238 713.432,-48.7439 707.27,-45.0838"/>
<polygon fill="none" stroke="black" points="708.538,-41.7922 698.07,-40.156 705.232,-47.9628 708.538,-41.7922"/>
</g>
<!-- \\Countable -->
<g id="node24" class="node"><title>\\Countable</title>
<ellipse fill="none" stroke="black" cx="78.5" cy="-18" rx="49.2915" ry="18"/>
<text text-anchor="middle" x="78.5" y="-14.3" font-family="Times,serif" font-size="14.00" fill="gray">\Countable</text>
</g>
<!-- \\Haldayne\\Customs\\UploadIterator&#45;&gt;\\Countable -->
<g id="edge6" class="edge"><title>\\Haldayne\\Customs\\UploadIterator&#45;&gt;\\Countable</title>
<path fill="none" stroke="black" stroke-dasharray="1,5" d="M830.069,-232.35C818.786,-228.834 807.032,-224.964 796.167,-221 666.465,-173.676 644.107,-133.722 510.479,-99 399.497,-70.1622 368.223,-80.798 253.893,-72"/>
<path fill="none" stroke="black" stroke-dasharray="1,5" d="M251.893,-72C227.055,-68.9659 166.201,-48.7336 123.881,-33.922"/>
<polygon fill="none" stroke="black" points="124.949,-30.5876 114.354,-30.5701 122.626,-37.1908 124.949,-30.5876"/>
</g>
<!-- \\Haldayne\\Customs\\HtmlNameAccessorTrait -->
<g id="node8" class="node"><title>\\Haldayne\\Customs\\HtmlNameAccessorTrait</title>
<polygon fill="none" stroke="black" points="964.667,-212 806.667,-212 806.667,-176 964.667,-176 964.667,-212"/>
<text text-anchor="middle" x="885.667" y="-191.2" font-family="Courier,monospace" font-size="11.00">HtmlNameAccessorTrait</text>
</g>
<!-- \\Haldayne\\Boost\\Lambda\\Retry -->
<g id="node9" class="node"><title>\\Haldayne\\Boost\\Lambda\\Retry</title>
<polygon fill="none" stroke="black" points="912.667,-886 858.667,-886 858.667,-850 912.667,-850 912.667,-886"/>
<text text-anchor="middle" x="885.667" y="-865.2" font-family="Courier,monospace" font-size="11.00">Retry</text>
</g>
<!-- \\Haldayne\\Boost\\Lambda\\Capture -->
<g id="node10" class="node"><title>\\Haldayne\\Boost\\Lambda\\Capture</title>
<polygon fill="none" stroke="black" points="917.667,-832 853.667,-832 853.667,-796 917.667,-796 917.667,-832"/>
<text text-anchor="middle" x="885.667" y="-811.2" font-family="Courier,monospace" font-size="11.00">Capture</text>
</g>
<!-- \\Haldayne\\Boost\\Lambda\\Y -->
<g id="node11" class="node"><title>\\Haldayne\\Boost\\Lambda\\Y</title>
<polygon fill="none" stroke="black" points="912.667,-778 858.667,-778 858.667,-742 912.667,-742 912.667,-778"/>
<text text-anchor="middle" x="885.667" y="-757.2" font-family="Courier,monospace" font-size="11.00">Y</text>
</g>
<!-- \\Haldayne\\Boost\\Lambda\\Expression -->
<g id="node12" class="node"><title>\\Haldayne\\Boost\\Lambda\\Expression</title>
<polygon fill="none" stroke="black" points="927.667,-724 843.667,-724 843.667,-688 927.667,-688 927.667,-724"/>
<text text-anchor="middle" x="885.667" y="-703.2" font-family="Courier,monospace" font-size="11.00">Expression</text>
</g>
<!-- \\Haldayne\\Boost\\Contract\\Arrayable -->
<g id="node13" class="node"><title>\\Haldayne\\Boost\\Contract\\Arrayable</title>
<polygon fill="none" stroke="black" points="117,-678 40,-678 40,-642 117,-642 117,-678"/>
<text text-anchor="middle" x="78.5" y="-657.2" font-family="Courier,monospace" font-size="11.00">Arrayable</text>
</g>
<!-- \\Haldayne\\Boost\\Contract\\Jsonable -->
<g id="node14" class="node"><title>\\Haldayne\\Boost\\Contract\\Jsonable</title>
<polygon fill="none" stroke="black" points="114,-624 43,-624 43,-588 114,-588 114,-624"/>
<text text-anchor="middle" x="78.5" y="-603.2" font-family="Courier,monospace" font-size="11.00">Jsonable</text>
</g>
<!-- \\Haldayne\\Boost\\MapOfNumerics -->
<g id="node15" class="node"><title>\\Haldayne\\Boost\\MapOfNumerics</title>
<polygon fill="none" stroke="black" points="705.323,-616 601.323,-616 601.323,-580 705.323,-580 705.323,-616"/>
<text text-anchor="middle" x="653.323" y="-595.2" font-family="Courier,monospace" font-size="11.00">MapOfNumerics</text>
</g>
<!-- \\Haldayne\\Boost\\GuardedMapAbstract -->
<g id="node16" class="node"><title>\\Haldayne\\Boost\\GuardedMapAbstract</title>
<polygon fill="none" stroke="black" points="500.186,-616 362.186,-616 362.186,-580 500.186,-580 500.186,-616"/>
<text text-anchor="start" x="397.186" y="-601.2" font-family="Courier,monospace" font-size="11.00">«abstract»</text>
<text text-anchor="start" x="370.186" y="-589.2" font-family="Courier,monospace" font-size="11.00">GuardedMapAbstract</text>
</g>
<!-- \\Haldayne\\Boost\\MapOfNumerics&#45;&gt;\\Haldayne\\Boost\\GuardedMapAbstract -->
<g id="edge7" class="edge"><title>\\Haldayne\\Boost\\MapOfNumerics&#45;&gt;\\Haldayne\\Boost\\GuardedMapAbstract</title>
<path fill="none" stroke="black" d="M601.266,-598C574.335,-598 540.713,-598 510.56,-598"/>
<polygon fill="none" stroke="black" points="510.482,-594.5 500.482,-598 510.482,-601.5 510.482,-594.5"/>
</g>
<!-- \\Haldayne\\Boost\\Map -->
<g id="node19" class="node"><title>\\Haldayne\\Boost\\Map</title>
<polygon fill="none" stroke="black" points="279.893,-616 225.893,-616 225.893,-580 279.893,-580 279.893,-616"/>
<text text-anchor="middle" x="252.893" y="-595.2" font-family="Courier,monospace" font-size="11.00">Map</text>
</g>
<!-- \\Haldayne\\Boost\\GuardedMapAbstract&#45;&gt;\\Haldayne\\Boost\\Map -->
<g id="edge8" class="edge"><title>\\Haldayne\\Boost\\GuardedMapAbstract&#45;&gt;\\Haldayne\\Boost\\Map</title>
<path fill="none" stroke="black" d="M362.027,-598C337.604,-598 311.02,-598 290.322,-598"/>
<polygon fill="none" stroke="black" points="290.078,-594.5 280.078,-598 290.078,-601.5 290.078,-594.5"/>
</g>
<!-- \\Haldayne\\Boost\\MapOfCollections -->
<g id="node17" class="node"><title>\\Haldayne\\Boost\\MapOfCollections</title>
<polygon fill="none" stroke="black" points="715.823,-670 590.823,-670 590.823,-634 715.823,-634 715.823,-670"/>
<text text-anchor="middle" x="653.323" y="-649.2" font-family="Courier,monospace" font-size="11.00">MapOfCollections</text>
</g>
<!-- \\Haldayne\\Boost\\MapOfCollections&#45;&gt;\\Haldayne\\Boost\\GuardedMapAbstract -->
<g id="edge9" class="edge"><title>\\Haldayne\\Boost\\MapOfCollections&#45;&gt;\\Haldayne\\Boost\\GuardedMapAbstract</title>
<path fill="none" stroke="black" d="M590.71,-636.886C565.784,-630.772 536.716,-623.641 510.328,-617.168"/>
<polygon fill="none" stroke="black" points="510.906,-613.706 500.36,-614.723 509.238,-620.505 510.906,-613.706"/>
</g>
<!-- \\Haldayne\\Boost\\MapOfInts -->
<g id="node18" class="node"><title>\\Haldayne\\Boost\\MapOfInts</title>
<polygon fill="none" stroke="black" points="924.167,-670 847.167,-670 847.167,-634 924.167,-634 924.167,-670"/>
<text text-anchor="middle" x="885.667" y="-649.2" font-family="Courier,monospace" font-size="11.00">MapOfInts</text>
</g>
<!-- \\Haldayne\\Boost\\MapOfInts&#45;&gt;\\Haldayne\\Boost\\MapOfNumerics -->
<g id="edge10" class="edge"><title>\\Haldayne\\Boost\\MapOfInts&#45;&gt;\\Haldayne\\Boost\\MapOfNumerics</title>
<path fill="none" stroke="black" d="M847.145,-643.204C811.503,-634.848 757.29,-622.139 715.415,-612.322"/>
<polygon fill="none" stroke="black" points="716.133,-608.895 705.598,-610.021 714.535,-615.711 716.133,-608.895"/>
</g>
<!-- \\Haldayne\\Boost\\Map&#45;&gt;\\Haldayne\\Boost\\Contract\\Arrayable -->
<g id="edge12" class="edge"><title>\\Haldayne\\Boost\\Map&#45;&gt;\\Haldayne\\Boost\\Contract\\Arrayable</title>
<path fill="none" stroke="black" stroke-dasharray="1,5" d="M225.71,-607.416C199.504,-616.841 158.606,-631.55 126.721,-643.017"/>
<polygon fill="none" stroke="black" points="125.366,-639.785 117.141,-646.463 127.735,-646.372 125.366,-639.785"/>
</g>
<!-- \\Haldayne\\Boost\\Map&#45;&gt;\\Haldayne\\Boost\\Contract\\Jsonable -->
<g id="edge13" class="edge"><title>\\Haldayne\\Boost\\Map&#45;&gt;\\Haldayne\\Boost\\Contract\\Jsonable</title>
<path fill="none" stroke="black" stroke-dasharray="1,5" d="M225.71,-599.215C198.852,-600.461 156.562,-602.424 124.358,-603.918"/>
<polygon fill="none" stroke="black" points="124.116,-600.426 114.289,-604.386 124.441,-607.418 124.116,-600.426"/>
</g>
<!-- \\Haldayne\\Boost\\Map&#45;&gt;\\ArrayAccess -->
<g id="edge14" class="edge"><title>\\Haldayne\\Boost\\Map&#45;&gt;\\ArrayAccess</title>
<path fill="none" stroke="black" stroke-dasharray="1,5" d="M250.678,-579.809C244.946,-499.095 218.147,-174.014 153.893,-99 149.389,-93.7417 143.776,-89.5073 137.665,-86.0975"/>
<polygon fill="none" stroke="black" points="138.956,-82.8353 128.426,-81.6686 135.93,-89.1475 138.956,-82.8353"/>
</g>
<!-- \\Haldayne\\Boost\\Map&#45;&gt;\\Countable -->
<g id="edge11" class="edge"><title>\\Haldayne\\Boost\\Map&#45;&gt;\\Countable</title>
<path fill="none" stroke="black" stroke-dasharray="1,5" d="M251.064,-579.905C246.789,-494.132 224.633,-129.152 153.893,-45 148.301,-38.3477 140.931,-33.3344 133.003,-29.5563"/>
<polygon fill="none" stroke="black" points="134.093,-26.2205 123.513,-25.6643 131.437,-32.697 134.093,-26.2205"/>
</g>
<!-- \\IteratorAggregate -->
<g id="node25" class="node"><title>\\IteratorAggregate</title>
<ellipse fill="none" stroke="black" cx="78.5" cy="-126" rx="75.2868" ry="18"/>
<text text-anchor="middle" x="78.5" y="-122.3" font-family="Times,serif" font-size="14.00" fill="gray">\IteratorAggregate</text>
</g>
<!-- \\Haldayne\\Boost\\Map&#45;&gt;\\IteratorAggregate -->
<g id="edge15" class="edge"><title>\\Haldayne\\Boost\\Map&#45;&gt;\\IteratorAggregate</title>
<path fill="none" stroke="black" stroke-dasharray="1,5" d="M245.241,-579.786C218.843,-507.51 121.369,-240.634 89.5899,-153.625"/>
<polygon fill="none" stroke="black" points="92.8509,-152.352 86.1326,-144.159 86.2758,-154.753 92.8509,-152.352"/>
</g>
<!-- \\Haldayne\\Boost\\MapOfFloats -->
<g id="node20" class="node"><title>\\Haldayne\\Boost\\MapOfFloats</title>
<polygon fill="none" stroke="black" points="931.167,-616 840.167,-616 840.167,-580 931.167,-580 931.167,-616"/>
<text text-anchor="middle" x="885.667" y="-595.2" font-family="Courier,monospace" font-size="11.00">MapOfFloats</text>
</g>
<!-- \\Haldayne\\Boost\\MapOfFloats&#45;&gt;\\Haldayne\\Boost\\MapOfNumerics -->
<g id="edge16" class="edge"><title>\\Haldayne\\Boost\\MapOfFloats&#45;&gt;\\Haldayne\\Boost\\MapOfNumerics</title>
<path fill="none" stroke="black" d="M839.981,-598C804.672,-598 755.002,-598 715.921,-598"/>
<polygon fill="none" stroke="black" points="715.715,-594.5 705.715,-598 715.715,-601.5 715.715,-594.5"/>
</g>
</g>
</svg>
