<?xml version="1.0" encoding="UTF-8" standalone="no"?>
<!DOCTYPE svg PUBLIC "-//W3C//DTD SVG 1.1//EN"
 "http://www.w3.org/Graphics/SVG/1.1/DTD/svg11.dtd">
<!-- Generated by graphviz version 2.38.0 (20140413.2041)
 -->
<!-- Title: G Pages: 1 -->
<svg width="663pt" height="860pt"
 viewBox="0.00 0.00 663.27 860.00" xmlns="http://www.w3.org/2000/svg" xmlns:xlink="http://www.w3.org/1999/xlink">
<g id="graph0" class="graph" transform="scale(1 1) rotate(0) translate(4 856)">
<title>G</title>
<polygon fill="white" stroke="none" points="-4,4 -4,-856 659.273,-856 659.273,4 -4,4"/>
<g id="clust1" class="cluster"><title>cluster_Global</title>
<path fill="none" stroke="gray" d="M20.793,-206C20.793,-206 635.273,-206 635.273,-206 641.273,-206 647.273,-212 647.273,-218 647.273,-218 647.273,-832 647.273,-832 647.273,-838 641.273,-844 635.273,-844 635.273,-844 20.793,-844 20.793,-844 14.793,-844 8.79296,-838 8.79296,-832 8.79296,-832 8.79296,-218 8.79296,-218 8.79296,-212 14.793,-206 20.793,-206"/>
<text text-anchor="middle" x="328.033" y="-831.2" font-family="Times,serif" font-size="11.00" fill="gray">Global</text>
</g>
<g id="clust2" class="cluster"><title>cluster_\Haldayne</title>
<path fill="none" stroke="gray" d="M28.793,-214C28.793,-214 627.273,-214 627.273,-214 633.273,-214 639.273,-220 639.273,-226 639.273,-226 639.273,-804 639.273,-804 639.273,-810 633.273,-816 627.273,-816 627.273,-816 28.793,-816 28.793,-816 22.793,-816 16.793,-810 16.793,-804 16.793,-804 16.793,-226 16.793,-226 16.793,-220 22.793,-214 28.793,-214"/>
<text text-anchor="middle" x="328.033" y="-803.2" font-family="Times,serif" font-size="11.00" fill="gray">Haldayne</text>
</g>
<g id="clust3" class="cluster"><title>cluster_\Haldayne\Customs</title>
<path fill="none" stroke="gray" d="M246.43,-392C246.43,-392 619.273,-392 619.273,-392 625.273,-392 631.273,-398 631.273,-404 631.273,-404 631.273,-776 631.273,-776 631.273,-782 625.273,-788 619.273,-788 619.273,-788 246.43,-788 246.43,-788 240.43,-788 234.43,-782 234.43,-776 234.43,-776 234.43,-404 234.43,-404 234.43,-398 240.43,-392 246.43,-392"/>
<text text-anchor="middle" x="432.851" y="-775.2" font-family="Times,serif" font-size="11.00" fill="gray">Customs</text>
</g>
<g id="clust4" class="cluster"><title>cluster_\Haldayne\Boost</title>
<path fill="none" stroke="gray" d="M36.793,-222C36.793,-222 568.273,-222 568.273,-222 574.273,-222 580.273,-228 580.273,-234 580.273,-234 580.273,-372 580.273,-372 580.273,-378 574.273,-384 568.273,-384 568.273,-384 36.793,-384 36.793,-384 30.793,-384 24.793,-378 24.793,-372 24.793,-372 24.793,-234 24.793,-234 24.793,-228 30.793,-222 36.793,-222"/>
<text text-anchor="middle" x="302.533" y="-371.2" font-family="Times,serif" font-size="11.00" fill="gray">Boost</text>
</g>
<g id="clust5" class="cluster"><title>cluster_\Haldayne\Boost\Contract</title>
<path fill="none" stroke="gray" d="M44.793,-230C44.793,-230 113.793,-230 113.793,-230 119.793,-230 125.793,-236 125.793,-242 125.793,-242 125.793,-344 125.793,-344 125.793,-350 119.793,-356 113.793,-356 113.793,-356 44.793,-356 44.793,-356 38.793,-356 32.793,-350 32.793,-344 32.793,-344 32.793,-242 32.793,-242 32.793,-236 38.793,-230 44.793,-230"/>
<text text-anchor="middle" x="79.293" y="-343.2" font-family="Times,serif" font-size="11.00" fill="gray">Contract</text>
</g>
<!-- \\Haldayne\\Customs\\UploadException -->
<g id="node1" class="node"><title>\\Haldayne\\Customs\\UploadException</title>
<polygon fill="none" stroke="black" points="360.43,-598 242.43,-598 242.43,-562 360.43,-562 360.43,-598"/>
<text text-anchor="middle" x="301.43" y="-577.2" font-family="Courier,monospace" font-size="11.00">UploadException</text>
</g>
<!-- \\RuntimeException -->
<g id="node13" class="node"><title>\\RuntimeException</title>
<ellipse fill="none" stroke="black" cx="79.293" cy="-180" rx="79.0865" ry="18"/>
<text text-anchor="middle" x="79.293" y="-176.3" font-family="Times,serif" font-size="14.00" fill="gray">\RuntimeException</text>
</g>
<!-- \\Haldayne\\Customs\\UploadException&#45;&gt;\\RuntimeException -->
<g id="edge1" class="edge"><title>\\Haldayne\\Customs\\UploadException&#45;&gt;\\RuntimeException</title>
<path fill="none" stroke="black" d="M293.878,-561.675C269.224,-493.011 182.224,-253.482 158.586,-226 149.987,-216.003 138.65,-207.628 127.281,-200.883"/>
<polygon fill="none" stroke="black" points="128.647,-197.637 118.209,-195.822 125.237,-203.75 128.647,-197.637"/>
</g>
<!-- \\Haldayne\\Customs\\UploadFile -->
<g id="node2" class="node"><title>\\Haldayne\\Customs\\UploadFile</title>
<polygon fill="none" stroke="black" points="575.773,-760 491.773,-760 491.773,-724 575.773,-724 575.773,-760"/>
<text text-anchor="middle" x="533.773" y="-739.2" font-family="Courier,monospace" font-size="11.00">UploadFile</text>
</g>
<!-- \\Haldayne\\Customs\\UploadError -->
<g id="node3" class="node"><title>\\Haldayne\\Customs\\UploadError</title>
<polygon fill="none" stroke="black" points="579.273,-706 488.273,-706 488.273,-670 579.273,-670 579.273,-706"/>
<text text-anchor="middle" x="533.773" y="-685.2" font-family="Courier,monospace" font-size="11.00">UploadError</text>
</g>
<!-- \\Haldayne\\Customs\\ServerProblemException -->
<g id="node4" class="node"><title>\\Haldayne\\Customs\\ServerProblemException</title>
<polygon fill="none" stroke="black" points="616.273,-652 451.273,-652 451.273,-616 616.273,-616 616.273,-652"/>
<text text-anchor="middle" x="533.773" y="-631.2" font-family="Courier,monospace" font-size="11.00">ServerProblemException</text>
</g>
<!-- \\Haldayne\\Customs\\ServerProblemException&#45;&gt;\\Haldayne\\Customs\\UploadException -->
<g id="edge2" class="edge"><title>\\Haldayne\\Customs\\ServerProblemException&#45;&gt;\\Haldayne\\Customs\\UploadException</title>
<path fill="none" stroke="black" d="M455.752,-615.944C428.267,-609.5 397.514,-602.291 370.806,-596.03"/>
<polygon fill="none" stroke="black" points="371.319,-592.555 360.784,-593.68 369.721,-599.37 371.319,-592.555"/>
</g>
<!-- \\Haldayne\\Customs\\SecurityConcernException -->
<g id="node5" class="node"><title>\\Haldayne\\Customs\\SecurityConcernException</title>
<polygon fill="none" stroke="black" points="623.273,-598 444.273,-598 444.273,-562 623.273,-562 623.273,-598"/>
<text text-anchor="middle" x="533.773" y="-577.2" font-family="Courier,monospace" font-size="11.00">SecurityConcernException</text>
</g>
<!-- \\Haldayne\\Customs\\SecurityConcernException&#45;&gt;\\Haldayne\\Customs\\UploadException -->
<g id="edge3" class="edge"><title>\\Haldayne\\Customs\\SecurityConcernException&#45;&gt;\\Haldayne\\Customs\\UploadException</title>
<path fill="none" stroke="black" d="M444.046,-580C419.648,-580 393.576,-580 370.538,-580"/>
<polygon fill="none" stroke="black" points="370.525,-576.5 360.525,-580 370.525,-583.5 370.525,-576.5"/>
</g>
<!-- \\Haldayne\\Customs\\UploadConfig -->
<g id="node6" class="node"><title>\\Haldayne\\Customs\\UploadConfig</title>
<polygon fill="none" stroke="black" points="582.773,-544 484.773,-544 484.773,-508 582.773,-508 582.773,-544"/>
<text text-anchor="middle" x="533.773" y="-523.2" font-family="Courier,monospace" font-size="11.00">UploadConfig</text>
</g>
<!-- \\Haldayne\\Customs\\UploadIterator -->
<g id="node7" class="node"><title>\\Haldayne\\Customs\\UploadIterator</title>
<polygon fill="none" stroke="black" points="589.273,-490 478.273,-490 478.273,-454 589.273,-454 589.273,-490"/>
<text text-anchor="middle" x="533.773" y="-469.2" font-family="Courier,monospace" font-size="11.00">UploadIterator</text>
</g>
<!-- \\ArrayAccess -->
<g id="node14" class="node"><title>\\ArrayAccess</title>
<ellipse fill="none" stroke="black" cx="79.293" cy="-18" rx="58.4896" ry="18"/>
<text text-anchor="middle" x="79.293" y="-14.3" font-family="Times,serif" font-size="14.00" fill="gray">\ArrayAccess</text>
</g>
<!-- \\Haldayne\\Customs\\UploadIterator&#45;&gt;\\ArrayAccess -->
<g id="edge4" class="edge"><title>\\Haldayne\\Customs\\UploadIterator&#45;&gt;\\ArrayAccess</title>
<path fill="none" stroke="black" stroke-dasharray="1,5" d="M478.216,-464.226C465.781,-460.212 453.525,-454.15 444.273,-445 318.171,-320.281 450.516,-169.607 302.43,-72"/>
<path fill="none" stroke="black" stroke-dasharray="1,5" d="M300.43,-72C296.926,-69.6906 200.305,-46.4721 136.247,-31.2419"/>
<polygon fill="none" stroke="black" points="136.804,-27.7767 126.265,-28.8706 135.186,-34.5872 136.804,-27.7767"/>
</g>
<!-- \\SeekableIterator -->
<g id="node15" class="node"><title>\\SeekableIterator</title>
<ellipse fill="none" stroke="black" cx="301.43" cy="-26" rx="70.6878" ry="18"/>
<text text-anchor="middle" x="301.43" y="-22.3" font-family="Times,serif" font-size="14.00" fill="gray">\SeekableIterator</text>
</g>
<!-- \\Haldayne\\Customs\\UploadIterator&#45;&gt;\\SeekableIterator -->
<g id="edge5" class="edge"><title>\\Haldayne\\Customs\\UploadIterator&#45;&gt;\\SeekableIterator</title>
<path fill="none" stroke="black" stroke-dasharray="1,5" d="M477.862,-465.148C465.285,-461.122 453.051,-454.822 444.273,-445 327.693,-314.55 479.892,-195.935 372.273,-58 368.235,-52.8243 363.168,-48.4559 357.617,-44.7757"/>
<polygon fill="none" stroke="black" points="358.982,-41.5217 348.574,-39.5419 355.475,-47.5802 358.982,-41.5217"/>
</g>
<!-- \\Countable -->
<g id="node16" class="node"><title>\\Countable</title>
<ellipse fill="none" stroke="black" cx="79.293" cy="-72" rx="49.2915" ry="18"/>
<text text-anchor="middle" x="79.293" y="-68.3" font-family="Times,serif" font-size="14.00" fill="gray">\Countable</text>
</g>
<!-- \\Haldayne\\Customs\\UploadIterator&#45;&gt;\\Countable -->
<g id="edge6" class="edge"><title>\\Haldayne\\Customs\\UploadIterator&#45;&gt;\\Countable</title>
<path fill="none" stroke="black" stroke-dasharray="1,5" d="M300.43,-72C274.52,-54.9222 192.9,-59.5109 136.674,-65.15"/>
<polygon fill="none" stroke="black" points="136.075,-61.6934 126.491,-66.2101 136.799,-68.6558 136.075,-61.6934"/>
</g>
<!-- \\Haldayne\\Customs\\HtmlNameAccessorTrait -->
<g id="node8" class="node"><title>\\Haldayne\\Customs\\HtmlNameAccessorTrait</title>
<polygon fill="none" stroke="black" points="612.773,-436 454.773,-436 454.773,-400 612.773,-400 612.773,-436"/>
<text text-anchor="middle" x="533.773" y="-415.2" font-family="Courier,monospace" font-size="11.00">HtmlNameAccessorTrait</text>
</g>
<!-- \\Haldayne\\Boost\\Contract\\Arrayable -->
<g id="node9" class="node"><title>\\Haldayne\\Boost\\Contract\\Arrayable</title>
<polygon fill="none" stroke="black" points="117.793,-328 40.793,-328 40.793,-292 117.793,-292 117.793,-328"/>
<text text-anchor="middle" x="79.293" y="-307.2" font-family="Courier,monospace" font-size="11.00">Arrayable</text>
</g>
<!-- \\Haldayne\\Boost\\Contract\\Jsonable -->
<g id="node10" class="node"><title>\\Haldayne\\Boost\\Contract\\Jsonable</title>
<polygon fill="none" stroke="black" points="114.793,-274 43.793,-274 43.793,-238 114.793,-238 114.793,-274"/>
<text text-anchor="middle" x="79.293" y="-253.2" font-family="Courier,monospace" font-size="11.00">Jsonable</text>
</g>
<!-- \\Haldayne\\Boost\\Map -->
<g id="node11" class="node"><title>\\Haldayne\\Boost\\Map</title>
<polygon fill="none" stroke="black" points="328.43,-266 274.43,-266 274.43,-230 328.43,-230 328.43,-266"/>
<text text-anchor="middle" x="301.43" y="-245.2" font-family="Courier,monospace" font-size="11.00">Map</text>
</g>
<!-- \\Haldayne\\Boost\\Map&#45;&gt;\\Haldayne\\Boost\\Contract\\Arrayable -->
<g id="edge8" class="edge"><title>\\Haldayne\\Boost\\Map&#45;&gt;\\Haldayne\\Boost\\Contract\\Arrayable</title>
<path fill="none" stroke="black" stroke-dasharray="1,5" d="M274.313,-255.356C238.313,-265.495 172.813,-283.942 127.96,-296.575"/>
<polygon fill="none" stroke="black" points="126.836,-293.255 118.159,-299.335 128.734,-299.993 126.836,-293.255"/>
</g>
<!-- \\Haldayne\\Boost\\Map&#45;&gt;\\Haldayne\\Boost\\Contract\\Jsonable -->
<g id="edge9" class="edge"><title>\\Haldayne\\Boost\\Map&#45;&gt;\\Haldayne\\Boost\\Contract\\Jsonable</title>
<path fill="none" stroke="black" stroke-dasharray="1,5" d="M274.313,-248.949C237.543,-250.285 169.999,-252.74 125.112,-254.371"/>
<polygon fill="none" stroke="black" points="124.927,-250.876 115.06,-254.737 125.181,-257.871 124.927,-250.876"/>
</g>
<!-- \\Haldayne\\Boost\\Map&#45;&gt;\\ArrayAccess -->
<g id="edge10" class="edge"><title>\\Haldayne\\Boost\\Map&#45;&gt;\\ArrayAccess</title>
<path fill="none" stroke="black" stroke-dasharray="1,5" d="M292.622,-229.955C274.708,-190.617 226.878,-96.5402 158.586,-45 151.822,-39.8952 144.023,-35.7098 136.023,-32.2911"/>
<polygon fill="none" stroke="black" points="137.179,-28.9854 126.591,-28.6208 134.641,-35.5089 137.179,-28.9854"/>
</g>
<!-- \\Haldayne\\Boost\\Map&#45;&gt;\\Countable -->
<g id="edge7" class="edge"><title>\\Haldayne\\Boost\\Map&#45;&gt;\\Countable</title>
<path fill="none" stroke="black" stroke-dasharray="1,5" d="M287.68,-229.728C265.094,-198.637 215.077,-135.292 158.586,-99 150.058,-93.5211 140.289,-89.0122 130.61,-85.3545"/>
<polygon fill="none" stroke="black" points="131.604,-81.9942 121.009,-81.9763 129.281,-88.5973 131.604,-81.9942"/>
</g>
<!-- \\IteratorAggregate -->
<g id="node17" class="node"><title>\\IteratorAggregate</title>
<ellipse fill="none" stroke="black" cx="79.293" cy="-126" rx="75.2868" ry="18"/>
<text text-anchor="middle" x="79.293" y="-122.3" font-family="Times,serif" font-size="14.00" fill="gray">\IteratorAggregate</text>
</g>
<!-- \\Haldayne\\Boost\\Map&#45;&gt;\\IteratorAggregate -->
<g id="edge11" class="edge"><title>\\Haldayne\\Boost\\Map&#45;&gt;\\IteratorAggregate</title>
<path fill="none" stroke="black" stroke-dasharray="1,5" d="M277.478,-229.895C250.33,-209.145 203.178,-175.155 158.586,-153 151.705,-149.581 144.285,-146.413 136.852,-143.541"/>
<polygon fill="none" stroke="black" points="138.061,-140.256 127.468,-140.063 135.628,-146.82 138.061,-140.256"/>
</g>
<!-- \\Haldayne\\Boost\\MapOfMaps -->
<g id="node12" class="node"><title>\\Haldayne\\Boost\\MapOfMaps</title>
<polygon fill="none" stroke="black" points="572.273,-266 495.273,-266 495.273,-230 572.273,-230 572.273,-266"/>
<text text-anchor="middle" x="533.773" y="-245.2" font-family="Courier,monospace" font-size="11.00">MapOfMaps</text>
</g>
<!-- \\Haldayne\\Boost\\MapOfMaps&#45;&gt;\\Haldayne\\Boost\\Map -->
<g id="edge12" class="edge"><title>\\Haldayne\\Boost\\MapOfMaps&#45;&gt;\\Haldayne\\Boost\\Map</title>
<path fill="none" stroke="black" d="M495.252,-248C452.004,-248 381.412,-248 338.7,-248"/>
<polygon fill="none" stroke="black" points="338.475,-244.5 328.475,-248 338.475,-251.5 338.475,-244.5"/>
</g>
</g>
</svg>
