<?xml version="1.0" encoding="UTF-8" standalone="no"?>
<!DOCTYPE svg PUBLIC "-//W3C//DTD SVG 1.1//EN"
 "http://www.w3.org/Graphics/SVG/1.1/DTD/svg11.dtd">
<!-- Generated by graphviz version 2.38.0 (20140413.2041)
 -->
<!-- Title: G Pages: 1 -->
<svg width="1015pt" height="1120pt"
 viewBox="0.00 0.00 1015.17 1120.00" xmlns="http://www.w3.org/2000/svg" xmlns:xlink="http://www.w3.org/1999/xlink">
<g id="graph0" class="graph" transform="scale(1 1) rotate(0) translate(4 1116)">
<title>G</title>
<polygon fill="white" stroke="none" points="-4,4 -4,-1116 1011.17,-1116 1011.17,4 -4,4"/>
<g id="clust1" class="cluster"><title>cluster_Global</title>
<path fill="none" stroke="gray" d="M20,-152C20,-152 987.167,-152 987.167,-152 993.167,-152 999.167,-158 999.167,-164 999.167,-164 999.167,-1092 999.167,-1092 999.167,-1098 993.167,-1104 987.167,-1104 987.167,-1104 20,-1104 20,-1104 14,-1104 8,-1098 8,-1092 8,-1092 8,-164 8,-164 8,-158 14,-152 20,-152"/>
<text text-anchor="middle" x="503.583" y="-1091.2" font-family="Times,serif" font-size="11.00" fill="gray">Global</text>
</g>
<g id="clust2" class="cluster"><title>cluster_\Haldayne</title>
<path fill="none" stroke="gray" d="M28,-160C28,-160 979.167,-160 979.167,-160 985.167,-160 991.167,-166 991.167,-172 991.167,-172 991.167,-1064 991.167,-1064 991.167,-1070 985.167,-1076 979.167,-1076 979.167,-1076 28,-1076 28,-1076 22,-1076 16,-1070 16,-1064 16,-1064 16,-172 16,-172 16,-166 22,-160 28,-160"/>
<text text-anchor="middle" x="503.583" y="-1063.2" font-family="Times,serif" font-size="11.00" fill="gray">Haldayne</text>
</g>
<g id="clust3" class="cluster"><title>cluster_\Haldayne\Boost</title>
<path fill="none" stroke="gray" d="M36,-868C36,-868 927.167,-868 927.167,-868 933.167,-868 939.167,-874 939.167,-880 939.167,-880 939.167,-1036 939.167,-1036 939.167,-1042 933.167,-1048 927.167,-1048 927.167,-1048 36,-1048 36,-1048 30,-1048 24,-1042 24,-1036 24,-1036 24,-880 24,-880 24,-874 30,-868 36,-868"/>
<text text-anchor="middle" x="481.583" y="-1035.2" font-family="Times,serif" font-size="11.00" fill="gray">Boost</text>
</g>
<g id="clust4" class="cluster"><title>cluster_\Haldayne\Boost\Contract</title>
<path fill="none" stroke="gray" d="M44,-876C44,-876 113,-876 113,-876 119,-876 125,-882 125,-888 125,-888 125,-990 125,-990 125,-996 119,-1002 113,-1002 113,-1002 44,-1002 44,-1002 38,-1002 32,-996 32,-990 32,-990 32,-888 32,-888 32,-882 38,-876 44,-876"/>
<text text-anchor="middle" x="78.5" y="-989.2" font-family="Times,serif" font-size="11.00" fill="gray">Contract</text>
</g>
<g id="clust5" class="cluster"><title>cluster_\Haldayne\Customs</title>
<path fill="none" stroke="gray" d="M598.323,-464C598.323,-464 971.167,-464 971.167,-464 977.167,-464 983.167,-470 983.167,-476 983.167,-476 983.167,-848 983.167,-848 983.167,-854 977.167,-860 971.167,-860 971.167,-860 598.323,-860 598.323,-860 592.323,-860 586.323,-854 586.323,-848 586.323,-848 586.323,-476 586.323,-476 586.323,-470 592.323,-464 598.323,-464"/>
<text text-anchor="middle" x="784.745" y="-847.2" font-family="Times,serif" font-size="11.00" fill="gray">Customs</text>
</g>
<g id="clust6" class="cluster"><title>cluster_\Haldayne\Fox</title>
<path fill="none" stroke="gray" d="M837.667,-168C837.667,-168 933.667,-168 933.667,-168 939.667,-168 945.667,-174 945.667,-180 945.667,-180 945.667,-444 945.667,-444 945.667,-450 939.667,-456 933.667,-456 933.667,-456 837.667,-456 837.667,-456 831.667,-456 825.667,-450 825.667,-444 825.667,-444 825.667,-180 825.667,-180 825.667,-174 831.667,-168 837.667,-168"/>
<text text-anchor="middle" x="885.667" y="-443.2" font-family="Times,serif" font-size="11.00" fill="gray">Fox</text>
</g>
<!-- \\Haldayne\\Boost\\Contract\\Arrayable -->
<g id="node1" class="node"><title>\\Haldayne\\Boost\\Contract\\Arrayable</title>
<polygon fill="none" stroke="black" points="117,-974 40,-974 40,-938 117,-938 117,-974"/>
<text text-anchor="middle" x="78.5" y="-953.2" font-family="Courier,monospace" font-size="11.00">Arrayable</text>
</g>
<!-- \\Haldayne\\Boost\\Contract\\Jsonable -->
<g id="node2" class="node"><title>\\Haldayne\\Boost\\Contract\\Jsonable</title>
<polygon fill="none" stroke="black" points="114,-920 43,-920 43,-884 114,-884 114,-920"/>
<text text-anchor="middle" x="78.5" y="-899.2" font-family="Courier,monospace" font-size="11.00">Jsonable</text>
</g>
<!-- \\Haldayne\\Boost\\MapOfStrings -->
<g id="node3" class="node"><title>\\Haldayne\\Boost\\MapOfStrings</title>
<polygon fill="none" stroke="black" points="702.323,-966 604.323,-966 604.323,-930 702.323,-930 702.323,-966"/>
<text text-anchor="middle" x="653.323" y="-945.2" font-family="Courier,monospace" font-size="11.00">MapOfStrings</text>
</g>
<!-- \\Haldayne\\Boost\\GuardedMapAbstract -->
<g id="node7" class="node"><title>\\Haldayne\\Boost\\GuardedMapAbstract</title>
<polygon fill="none" stroke="black" points="500.186,-943 362.186,-943 362.186,-907 500.186,-907 500.186,-943"/>
<text text-anchor="start" x="397.186" y="-928.2" font-family="Courier,monospace" font-size="11.00">«abstract»</text>
<text text-anchor="start" x="370.186" y="-916.2" font-family="Courier,monospace" font-size="11.00">GuardedMapAbstract</text>
</g>
<!-- \\Haldayne\\Boost\\MapOfStrings&#45;&gt;\\Haldayne\\Boost\\GuardedMapAbstract -->
<g id="edge1" class="edge"><title>\\Haldayne\\Boost\\MapOfStrings&#45;&gt;\\Haldayne\\Boost\\GuardedMapAbstract</title>
<path fill="none" stroke="black" d="M604.285,-942.981C576.888,-940.118 541.878,-936.461 510.596,-933.192"/>
<polygon fill="none" stroke="black" points="510.895,-929.705 500.585,-932.146 510.167,-936.667 510.895,-929.705"/>
</g>
<!-- \\Haldayne\\Boost\\MapOfFloats -->
<g id="node4" class="node"><title>\\Haldayne\\Boost\\MapOfFloats</title>
<polygon fill="none" stroke="black" points="931.167,-966 840.167,-966 840.167,-930 931.167,-930 931.167,-966"/>
<text text-anchor="middle" x="885.667" y="-945.2" font-family="Courier,monospace" font-size="11.00">MapOfFloats</text>
</g>
<!-- \\Haldayne\\Boost\\MapOfNumerics -->
<g id="node6" class="node"><title>\\Haldayne\\Boost\\MapOfNumerics</title>
<polygon fill="none" stroke="black" points="705.323,-912 601.323,-912 601.323,-876 705.323,-876 705.323,-912"/>
<text text-anchor="middle" x="653.323" y="-891.2" font-family="Courier,monospace" font-size="11.00">MapOfNumerics</text>
</g>
<!-- \\Haldayne\\Boost\\MapOfFloats&#45;&gt;\\Haldayne\\Boost\\MapOfNumerics -->
<g id="edge4" class="edge"><title>\\Haldayne\\Boost\\MapOfFloats&#45;&gt;\\Haldayne\\Boost\\MapOfNumerics</title>
<path fill="none" stroke="black" d="M839.981,-937.524C804.672,-929.247 755.002,-917.602 715.921,-908.441"/>
<polygon fill="none" stroke="black" points="716.25,-904.923 705.715,-906.048 714.652,-911.738 716.25,-904.923"/>
</g>
<!-- \\Haldayne\\Boost\\MapOfInts -->
<g id="node5" class="node"><title>\\Haldayne\\Boost\\MapOfInts</title>
<polygon fill="none" stroke="black" points="924.167,-912 847.167,-912 847.167,-876 924.167,-876 924.167,-912"/>
<text text-anchor="middle" x="885.667" y="-891.2" font-family="Courier,monospace" font-size="11.00">MapOfInts</text>
</g>
<!-- \\Haldayne\\Boost\\MapOfInts&#45;&gt;\\Haldayne\\Boost\\MapOfNumerics -->
<g id="edge5" class="edge"><title>\\Haldayne\\Boost\\MapOfInts&#45;&gt;\\Haldayne\\Boost\\MapOfNumerics</title>
<path fill="none" stroke="black" d="M847.145,-894C811.578,-894 757.518,-894 715.68,-894"/>
<polygon fill="none" stroke="black" points="715.598,-890.5 705.598,-894 715.598,-897.5 715.598,-890.5"/>
</g>
<!-- \\Haldayne\\Boost\\MapOfNumerics&#45;&gt;\\Haldayne\\Boost\\GuardedMapAbstract -->
<g id="edge10" class="edge"><title>\\Haldayne\\Boost\\MapOfNumerics&#45;&gt;\\Haldayne\\Boost\\GuardedMapAbstract</title>
<path fill="none" stroke="black" d="M601.266,-901.19C574.335,-904.982 540.713,-909.717 510.56,-913.963"/>
<polygon fill="none" stroke="black" points="509.896,-910.522 500.482,-915.383 510.872,-917.454 509.896,-910.522"/>
</g>
<!-- \\Haldayne\\Boost\\Map -->
<g id="node9" class="node"><title>\\Haldayne\\Boost\\Map</title>
<polygon fill="none" stroke="black" points="279.893,-916 225.893,-916 225.893,-880 279.893,-880 279.893,-916"/>
<text text-anchor="middle" x="252.893" y="-895.2" font-family="Courier,monospace" font-size="11.00">Map</text>
</g>
<!-- \\Haldayne\\Boost\\GuardedMapAbstract&#45;&gt;\\Haldayne\\Boost\\Map -->
<g id="edge11" class="edge"><title>\\Haldayne\\Boost\\GuardedMapAbstract&#45;&gt;\\Haldayne\\Boost\\Map</title>
<path fill="none" stroke="black" d="M362.027,-914.561C337.492,-910.803 310.776,-906.712 290.038,-903.536"/>
<polygon fill="none" stroke="black" points="290.493,-900.065 280.078,-902.01 289.433,-906.984 290.493,-900.065"/>
</g>
<!-- \\Haldayne\\Boost\\MapOfCollections -->
<g id="node8" class="node"><title>\\Haldayne\\Boost\\MapOfCollections</title>
<polygon fill="none" stroke="black" points="715.823,-1020 590.823,-1020 590.823,-984 715.823,-984 715.823,-1020"/>
<text text-anchor="middle" x="653.323" y="-999.2" font-family="Courier,monospace" font-size="11.00">MapOfCollections</text>
</g>
<!-- \\Haldayne\\Boost\\MapOfCollections&#45;&gt;\\Haldayne\\Boost\\GuardedMapAbstract -->
<g id="edge12" class="edge"><title>\\Haldayne\\Boost\\MapOfCollections&#45;&gt;\\Haldayne\\Boost\\GuardedMapAbstract</title>
<path fill="none" stroke="black" d="M600.711,-983.947C568.672,-972.74 527.324,-958.277 493.603,-946.482"/>
<polygon fill="none" stroke="black" points="494.451,-943.071 483.856,-943.073 492.14,-949.679 494.451,-943.071"/>
</g>
<!-- \\Haldayne\\Boost\\Map&#45;&gt;\\Haldayne\\Boost\\Contract\\Arrayable -->
<g id="edge14" class="edge"><title>\\Haldayne\\Boost\\Map&#45;&gt;\\Haldayne\\Boost\\Contract\\Arrayable</title>
<path fill="none" stroke="black" stroke-dasharray="1,5" d="M225.71,-906.809C199.504,-915.626 158.606,-929.386 126.721,-940.113"/>
<polygon fill="none" stroke="black" points="125.503,-936.83 117.141,-943.336 127.735,-943.465 125.503,-936.83"/>
</g>
<!-- \\Haldayne\\Boost\\Map&#45;&gt;\\Haldayne\\Boost\\Contract\\Jsonable -->
<g id="edge15" class="edge"><title>\\Haldayne\\Boost\\Map&#45;&gt;\\Haldayne\\Boost\\Contract\\Jsonable</title>
<path fill="none" stroke="black" stroke-dasharray="1,5" d="M225.71,-898.608C198.852,-899.231 156.562,-900.212 124.358,-900.959"/>
<polygon fill="none" stroke="black" points="124.205,-897.462 114.289,-901.193 124.368,-904.46 124.205,-897.462"/>
</g>
<!-- \\ArrayAccess -->
<g id="node24" class="node"><title>\\ArrayAccess</title>
<ellipse fill="none" stroke="black" cx="78.5" cy="-18" rx="58.4896" ry="18"/>
<text text-anchor="middle" x="78.5" y="-14.3" font-family="Times,serif" font-size="14.00" fill="gray">\ArrayAccess</text>
</g>
<!-- \\Haldayne\\Boost\\Map&#45;&gt;\\ArrayAccess -->
<g id="edge16" class="edge"><title>\\Haldayne\\Boost\\Map&#45;&gt;\\ArrayAccess</title>
<path fill="none" stroke="black" stroke-dasharray="1,5" d="M250.945,-879.855C244.666,-762.46 207.655,-113.066 153.893,-45 149.602,-39.5668 144.118,-35.2263 138.076,-31.759"/>
<polygon fill="none" stroke="black" points="139.422,-28.5212 128.9,-27.2782 136.35,-34.8113 139.422,-28.5212"/>
</g>
<!-- \\Countable -->
<g id="node26" class="node"><title>\\Countable</title>
<ellipse fill="none" stroke="black" cx="78.5" cy="-72" rx="49.2915" ry="18"/>
<text text-anchor="middle" x="78.5" y="-68.3" font-family="Times,serif" font-size="14.00" fill="gray">\Countable</text>
</g>
<!-- \\Haldayne\\Boost\\Map&#45;&gt;\\Countable -->
<g id="edge13" class="edge"><title>\\Haldayne\\Boost\\Map&#45;&gt;\\Countable</title>
<path fill="none" stroke="black" stroke-dasharray="1,5" d="M252.152,-879.896C253.325,-773.043 254.318,-225.15 153.893,-99 148.481,-92.2009 141.201,-87.1133 133.308,-83.3066"/>
<polygon fill="none" stroke="black" points="134.415,-79.977 123.836,-79.4004 131.746,-86.4484 134.415,-79.977"/>
</g>
<!-- \\IteratorAggregate -->
<g id="node27" class="node"><title>\\IteratorAggregate</title>
<ellipse fill="none" stroke="black" cx="78.5" cy="-126" rx="75.2868" ry="18"/>
<text text-anchor="middle" x="78.5" y="-122.3" font-family="Times,serif" font-size="14.00" fill="gray">\IteratorAggregate</text>
</g>
<!-- \\Haldayne\\Boost\\Map&#45;&gt;\\IteratorAggregate -->
<g id="edge17" class="edge"><title>\\Haldayne\\Boost\\Map&#45;&gt;\\IteratorAggregate</title>
<path fill="none" stroke="black" stroke-dasharray="1,5" d="M247.802,-879.678C224.987,-777.508 113.505,-278.279 85.7613,-154.039"/>
<polygon fill="none" stroke="black" points="89.1485,-153.147 83.5532,-144.151 82.3168,-154.673 89.1485,-153.147"/>
</g>
<!-- \\Haldayne\\Customs\\UploadException -->
<g id="node10" class="node"><title>\\Haldayne\\Customs\\UploadException</title>
<polygon fill="none" stroke="black" points="712.323,-778 594.323,-778 594.323,-742 712.323,-742 712.323,-778"/>
<text text-anchor="middle" x="653.323" y="-757.2" font-family="Courier,monospace" font-size="11.00">UploadException</text>
</g>
<!-- \\RuntimeException -->
<g id="node23" class="node"><title>\\RuntimeException</title>
<ellipse fill="none" stroke="black" cx="431.186" cy="-126" rx="79.0865" ry="18"/>
<text text-anchor="middle" x="431.186" y="-122.3" font-family="Times,serif" font-size="14.00" fill="gray">\RuntimeException</text>
</g>
<!-- \\Haldayne\\Customs\\UploadException&#45;&gt;\\RuntimeException -->
<g id="edge2" class="edge"><title>\\Haldayne\\Customs\\UploadException&#45;&gt;\\RuntimeException</title>
<path fill="none" stroke="black" d="M645.972,-741.709C614.933,-652.316 479.179,-261.34 441.764,-153.585"/>
<polygon fill="none" stroke="black" points="445.044,-152.36 438.457,-144.061 438.431,-154.656 445.044,-152.36"/>
</g>
<!-- \\Haldayne\\Customs\\ServerProblemException -->
<g id="node11" class="node"><title>\\Haldayne\\Customs\\ServerProblemException</title>
<polygon fill="none" stroke="black" points="968.167,-832 803.167,-832 803.167,-796 968.167,-796 968.167,-832"/>
<text text-anchor="middle" x="885.667" y="-811.2" font-family="Courier,monospace" font-size="11.00">ServerProblemException</text>
</g>
<!-- \\Haldayne\\Customs\\ServerProblemException&#45;&gt;\\Haldayne\\Customs\\UploadException -->
<g id="edge3" class="edge"><title>\\Haldayne\\Customs\\ServerProblemException&#45;&gt;\\Haldayne\\Customs\\UploadException</title>
<path fill="none" stroke="black" d="M807.645,-795.944C780.16,-789.5 749.407,-782.291 722.7,-776.03"/>
<polygon fill="none" stroke="black" points="723.212,-772.555 712.677,-773.68 721.614,-779.37 723.212,-772.555"/>
</g>
<!-- \\Haldayne\\Customs\\SecurityConcernException -->
<g id="node12" class="node"><title>\\Haldayne\\Customs\\SecurityConcernException</title>
<polygon fill="none" stroke="black" points="975.167,-778 796.167,-778 796.167,-742 975.167,-742 975.167,-778"/>
<text text-anchor="middle" x="885.667" y="-757.2" font-family="Courier,monospace" font-size="11.00">SecurityConcernException</text>
</g>
<!-- \\Haldayne\\Customs\\SecurityConcernException&#45;&gt;\\Haldayne\\Customs\\UploadException -->
<g id="edge6" class="edge"><title>\\Haldayne\\Customs\\SecurityConcernException&#45;&gt;\\Haldayne\\Customs\\UploadException</title>
<path fill="none" stroke="black" d="M795.939,-760C771.541,-760 745.469,-760 722.432,-760"/>
<polygon fill="none" stroke="black" points="722.419,-756.5 712.419,-760 722.419,-763.5 722.419,-756.5"/>
</g>
<!-- \\Haldayne\\Customs\\UploadFile -->
<g id="node13" class="node"><title>\\Haldayne\\Customs\\UploadFile</title>
<polygon fill="none" stroke="black" points="927.667,-724 843.667,-724 843.667,-688 927.667,-688 927.667,-724"/>
<text text-anchor="middle" x="885.667" y="-703.2" font-family="Courier,monospace" font-size="11.00">UploadFile</text>
</g>
<!-- \\Haldayne\\Customs\\UploadError -->
<g id="node14" class="node"><title>\\Haldayne\\Customs\\UploadError</title>
<polygon fill="none" stroke="black" points="931.167,-670 840.167,-670 840.167,-634 931.167,-634 931.167,-670"/>
<text text-anchor="middle" x="885.667" y="-649.2" font-family="Courier,monospace" font-size="11.00">UploadError</text>
</g>
<!-- \\Haldayne\\Customs\\UploadConfig -->
<g id="node15" class="node"><title>\\Haldayne\\Customs\\UploadConfig</title>
<polygon fill="none" stroke="black" points="934.667,-616 836.667,-616 836.667,-580 934.667,-580 934.667,-616"/>
<text text-anchor="middle" x="885.667" y="-595.2" font-family="Courier,monospace" font-size="11.00">UploadConfig</text>
</g>
<!-- \\Haldayne\\Customs\\UploadIterator -->
<g id="node16" class="node"><title>\\Haldayne\\Customs\\UploadIterator</title>
<polygon fill="none" stroke="black" points="941.167,-562 830.167,-562 830.167,-526 941.167,-526 941.167,-562"/>
<text text-anchor="middle" x="885.667" y="-541.2" font-family="Courier,monospace" font-size="11.00">UploadIterator</text>
</g>
<!-- \\Haldayne\\Customs\\UploadIterator&#45;&gt;\\ArrayAccess -->
<g id="edge7" class="edge"><title>\\Haldayne\\Customs\\UploadIterator&#45;&gt;\\ArrayAccess</title>
<path fill="none" stroke="black" stroke-dasharray="1,5" d="M830.124,-537.375C817.387,-533.355 804.984,-527.001 796.167,-517 671.492,-375.602 864.795,-224.543 724.167,-99 567.992,40.4227 462.631,-88.0629 253.893,-72"/>
<path fill="none" stroke="black" stroke-dasharray="1,5" d="M251.893,-72C239.271,-71.6304 174.306,-50.3557 127.849,-34.6241"/>
<polygon fill="none" stroke="black" points="128.837,-31.2632 118.242,-31.3608 126.585,-37.8912 128.837,-31.2632"/>
</g>
<!-- \\SeekableIterator -->
<g id="node25" class="node"><title>\\SeekableIterator</title>
<ellipse fill="none" stroke="black" cx="653.323" cy="-126" rx="70.6878" ry="18"/>
<text text-anchor="middle" x="653.323" y="-122.3" font-family="Times,serif" font-size="14.00" fill="gray">\SeekableIterator</text>
</g>
<!-- \\Haldayne\\Customs\\UploadIterator&#45;&gt;\\SeekableIterator -->
<g id="edge8" class="edge"><title>\\Haldayne\\Customs\\UploadIterator&#45;&gt;\\SeekableIterator</title>
<path fill="none" stroke="black" stroke-dasharray="1,5" d="M829.908,-535.809C817.624,-531.803 805.486,-525.848 796.167,-517 688.824,-415.088 662.441,-225.702 656.188,-154.259"/>
<polygon fill="none" stroke="black" points="659.671,-153.902 655.376,-144.217 652.694,-154.466 659.671,-153.902"/>
</g>
<!-- \\Haldayne\\Customs\\UploadIterator&#45;&gt;\\Countable -->
<g id="edge9" class="edge"><title>\\Haldayne\\Customs\\UploadIterator&#45;&gt;\\Countable</title>
<path fill="none" stroke="black" stroke-dasharray="1,5" d="M251.893,-72C214.032,-69.0865 171.355,-69.0609 137.936,-69.7763"/>
<polygon fill="none" stroke="black" points="137.789,-66.2787 127.877,-70.0197 137.959,-73.2767 137.789,-66.2787"/>
</g>
<!-- \\Haldayne\\Customs\\HtmlNameAccessorTrait -->
<g id="node17" class="node"><title>\\Haldayne\\Customs\\HtmlNameAccessorTrait</title>
<polygon fill="none" stroke="black" points="964.667,-508 806.667,-508 806.667,-472 964.667,-472 964.667,-508"/>
<text text-anchor="middle" x="885.667" y="-487.2" font-family="Courier,monospace" font-size="11.00">HtmlNameAccessorTrait</text>
</g>
<!-- \\Haldayne\\Fox\\Y -->
<g id="node18" class="node"><title>\\Haldayne\\Fox\\Y</title>
<polygon fill="none" stroke="black" points="912.667,-428 858.667,-428 858.667,-392 912.667,-392 912.667,-428"/>
<text text-anchor="middle" x="885.667" y="-407.2" font-family="Courier,monospace" font-size="11.00">Y</text>
</g>
<!-- \\Haldayne\\Fox\\Retry -->
<g id="node19" class="node"><title>\\Haldayne\\Fox\\Retry</title>
<polygon fill="none" stroke="black" points="912.667,-374 858.667,-374 858.667,-338 912.667,-338 912.667,-374"/>
<text text-anchor="middle" x="885.667" y="-353.2" font-family="Courier,monospace" font-size="11.00">Retry</text>
</g>
<!-- \\Haldayne\\Fox\\Expression -->
<g id="node20" class="node"><title>\\Haldayne\\Fox\\Expression</title>
<polygon fill="none" stroke="black" points="927.667,-320 843.667,-320 843.667,-284 927.667,-284 927.667,-320"/>
<text text-anchor="middle" x="885.667" y="-299.2" font-family="Courier,monospace" font-size="11.00">Expression</text>
</g>
<!-- \\Haldayne\\Fox\\Improve -->
<g id="node21" class="node"><title>\\Haldayne\\Fox\\Improve</title>
<polygon fill="none" stroke="black" points="917.667,-266 853.667,-266 853.667,-230 917.667,-230 917.667,-266"/>
<text text-anchor="middle" x="885.667" y="-245.2" font-family="Courier,monospace" font-size="11.00">Improve</text>
</g>
<!-- \\Haldayne\\Fox\\CaptureErrors -->
<g id="node22" class="node"><title>\\Haldayne\\Fox\\CaptureErrors</title>
<polygon fill="none" stroke="black" points="937.667,-212 833.667,-212 833.667,-176 937.667,-176 937.667,-212"/>
<text text-anchor="middle" x="885.667" y="-191.2" font-family="Courier,monospace" font-size="11.00">CaptureErrors</text>
</g>
</g>
</svg>
