<?xml version="1.0" encoding="UTF-8" standalone="no"?>
<!DOCTYPE svg PUBLIC "-//W3C//DTD SVG 1.1//EN"
 "http://www.w3.org/Graphics/SVG/1.1/DTD/svg11.dtd">
<!-- Generated by graphviz version 2.38.0 (20140413.2041)
 -->
<!-- Title: G Pages: 1 -->
<svg width="663pt" height="1014pt"
 viewBox="0.00 0.00 663.27 1014.00" xmlns="http://www.w3.org/2000/svg" xmlns:xlink="http://www.w3.org/1999/xlink">
<g id="graph0" class="graph" transform="scale(1 1) rotate(0) translate(4 1010)">
<title>G</title>
<polygon fill="white" stroke="none" points="-4,4 -4,-1010 659.273,-1010 659.273,4 -4,4"/>
<g id="clust1" class="cluster"><title>cluster_Global</title>
<path fill="none" stroke="gray" d="M20.793,-206C20.793,-206 635.273,-206 635.273,-206 641.273,-206 647.273,-212 647.273,-218 647.273,-218 647.273,-986 647.273,-986 647.273,-992 641.273,-998 635.273,-998 635.273,-998 20.793,-998 20.793,-998 14.793,-998 8.79296,-992 8.79296,-986 8.79296,-986 8.79296,-218 8.79296,-218 8.79296,-212 14.793,-206 20.793,-206"/>
<text text-anchor="middle" x="328.033" y="-985.2" font-family="Times,serif" font-size="11.00" fill="gray">Global</text>
</g>
<g id="clust2" class="cluster"><title>cluster_\Haldayne</title>
<path fill="none" stroke="gray" d="M28.793,-214C28.793,-214 627.273,-214 627.273,-214 633.273,-214 639.273,-220 639.273,-226 639.273,-226 639.273,-958 639.273,-958 639.273,-964 633.273,-970 627.273,-970 627.273,-970 28.793,-970 28.793,-970 22.793,-970 16.793,-964 16.793,-958 16.793,-958 16.793,-226 16.793,-226 16.793,-220 22.793,-214 28.793,-214"/>
<text text-anchor="middle" x="328.033" y="-957.2" font-family="Times,serif" font-size="11.00" fill="gray">Haldayne</text>
</g>
<g id="clust3" class="cluster"><title>cluster_\Haldayne\Customs</title>
<path fill="none" stroke="gray" d="M246.43,-546C246.43,-546 619.273,-546 619.273,-546 625.273,-546 631.273,-552 631.273,-558 631.273,-558 631.273,-930 631.273,-930 631.273,-936 625.273,-942 619.273,-942 619.273,-942 246.43,-942 246.43,-942 240.43,-942 234.43,-936 234.43,-930 234.43,-930 234.43,-558 234.43,-558 234.43,-552 240.43,-546 246.43,-546"/>
<text text-anchor="middle" x="432.851" y="-929.2" font-family="Times,serif" font-size="11.00" fill="gray">Customs</text>
</g>
<g id="clust4" class="cluster"><title>cluster_\Haldayne\Boost</title>
<path fill="none" stroke="gray" d="M36.793,-222C36.793,-222 579.773,-222 579.773,-222 585.773,-222 591.773,-228 591.773,-234 591.773,-234 591.773,-526 591.773,-526 591.773,-532 585.773,-538 579.773,-538 579.773,-538 36.793,-538 36.793,-538 30.793,-538 24.793,-532 24.793,-526 24.793,-526 24.793,-234 24.793,-234 24.793,-228 30.793,-222 36.793,-222"/>
<text text-anchor="middle" x="308.283" y="-525.2" font-family="Times,serif" font-size="11.00" fill="gray">Boost</text>
</g>
<g id="clust5" class="cluster"><title>cluster_\Haldayne\Boost\Lambda</title>
<path fill="none" stroke="gray" d="M495.773,-276C495.773,-276 571.773,-276 571.773,-276 577.773,-276 583.773,-282 583.773,-288 583.773,-288 583.773,-498 583.773,-498 583.773,-504 577.773,-510 571.773,-510 571.773,-510 495.773,-510 495.773,-510 489.773,-510 483.773,-504 483.773,-498 483.773,-498 483.773,-288 483.773,-288 483.773,-282 489.773,-276 495.773,-276"/>
<text text-anchor="middle" x="533.773" y="-497.2" font-family="Times,serif" font-size="11.00" fill="gray">Lambda</text>
</g>
<g id="clust6" class="cluster"><title>cluster_\Haldayne\Boost\Contract</title>
<path fill="none" stroke="gray" d="M44.793,-230C44.793,-230 113.793,-230 113.793,-230 119.793,-230 125.793,-236 125.793,-242 125.793,-242 125.793,-344 125.793,-344 125.793,-350 119.793,-356 113.793,-356 113.793,-356 44.793,-356 44.793,-356 38.793,-356 32.793,-350 32.793,-344 32.793,-344 32.793,-242 32.793,-242 32.793,-236 38.793,-230 44.793,-230"/>
<text text-anchor="middle" x="79.293" y="-343.2" font-family="Times,serif" font-size="11.00" fill="gray">Contract</text>
</g>
<!-- \\Haldayne\\Customs\\UploadException -->
<g id="node1" class="node"><title>\\Haldayne\\Customs\\UploadException</title>
<polygon fill="none" stroke="black" points="360.43,-860 242.43,-860 242.43,-824 360.43,-824 360.43,-860"/>
<text text-anchor="middle" x="301.43" y="-839.2" font-family="Courier,monospace" font-size="11.00">UploadException</text>
</g>
<!-- \\RuntimeException -->
<g id="node17" class="node"><title>\\RuntimeException</title>
<ellipse fill="none" stroke="black" cx="79.293" cy="-180" rx="79.0865" ry="18"/>
<text text-anchor="middle" x="79.293" y="-176.3" font-family="Times,serif" font-size="14.00" fill="gray">\RuntimeException</text>
</g>
<!-- \\Haldayne\\Customs\\UploadException&#45;&gt;\\RuntimeException -->
<g id="edge1" class="edge"><title>\\Haldayne\\Customs\\UploadException&#45;&gt;\\RuntimeException</title>
<path fill="none" stroke="black" d="M296.148,-823.744C285.177,-776.94 255.192,-648.829 230.586,-542 198.255,-401.631 243.659,-342.238 158.586,-226 151.019,-215.661 140.365,-207.25 129.348,-200.585"/>
<polygon fill="none" stroke="black" points="130.919,-197.454 120.486,-195.611 127.493,-203.558 130.919,-197.454"/>
</g>
<!-- \\Haldayne\\Customs\\ServerProblemException -->
<g id="node2" class="node"><title>\\Haldayne\\Customs\\ServerProblemException</title>
<polygon fill="none" stroke="black" points="616.273,-914 451.273,-914 451.273,-878 616.273,-878 616.273,-914"/>
<text text-anchor="middle" x="533.773" y="-893.2" font-family="Courier,monospace" font-size="11.00">ServerProblemException</text>
</g>
<!-- \\Haldayne\\Customs\\ServerProblemException&#45;&gt;\\Haldayne\\Customs\\UploadException -->
<g id="edge2" class="edge"><title>\\Haldayne\\Customs\\ServerProblemException&#45;&gt;\\Haldayne\\Customs\\UploadException</title>
<path fill="none" stroke="black" d="M455.752,-877.944C428.267,-871.5 397.514,-864.291 370.806,-858.03"/>
<polygon fill="none" stroke="black" points="371.319,-854.555 360.784,-855.68 369.721,-861.37 371.319,-854.555"/>
</g>
<!-- \\Haldayne\\Customs\\SecurityConcernException -->
<g id="node3" class="node"><title>\\Haldayne\\Customs\\SecurityConcernException</title>
<polygon fill="none" stroke="black" points="623.273,-860 444.273,-860 444.273,-824 623.273,-824 623.273,-860"/>
<text text-anchor="middle" x="533.773" y="-839.2" font-family="Courier,monospace" font-size="11.00">SecurityConcernException</text>
</g>
<!-- \\Haldayne\\Customs\\SecurityConcernException&#45;&gt;\\Haldayne\\Customs\\UploadException -->
<g id="edge3" class="edge"><title>\\Haldayne\\Customs\\SecurityConcernException&#45;&gt;\\Haldayne\\Customs\\UploadException</title>
<path fill="none" stroke="black" d="M444.046,-842C419.648,-842 393.576,-842 370.538,-842"/>
<polygon fill="none" stroke="black" points="370.525,-838.5 360.525,-842 370.525,-845.5 370.525,-838.5"/>
</g>
<!-- \\Haldayne\\Customs\\UploadFile -->
<g id="node4" class="node"><title>\\Haldayne\\Customs\\UploadFile</title>
<polygon fill="none" stroke="black" points="575.773,-806 491.773,-806 491.773,-770 575.773,-770 575.773,-806"/>
<text text-anchor="middle" x="533.773" y="-785.2" font-family="Courier,monospace" font-size="11.00">UploadFile</text>
</g>
<!-- \\Haldayne\\Customs\\UploadError -->
<g id="node5" class="node"><title>\\Haldayne\\Customs\\UploadError</title>
<polygon fill="none" stroke="black" points="579.273,-752 488.273,-752 488.273,-716 579.273,-716 579.273,-752"/>
<text text-anchor="middle" x="533.773" y="-731.2" font-family="Courier,monospace" font-size="11.00">UploadError</text>
</g>
<!-- \\Haldayne\\Customs\\UploadConfig -->
<g id="node6" class="node"><title>\\Haldayne\\Customs\\UploadConfig</title>
<polygon fill="none" stroke="black" points="582.773,-698 484.773,-698 484.773,-662 582.773,-662 582.773,-698"/>
<text text-anchor="middle" x="533.773" y="-677.2" font-family="Courier,monospace" font-size="11.00">UploadConfig</text>
</g>
<!-- \\Haldayne\\Customs\\UploadIterator -->
<g id="node7" class="node"><title>\\Haldayne\\Customs\\UploadIterator</title>
<polygon fill="none" stroke="black" points="589.273,-644 478.273,-644 478.273,-608 589.273,-608 589.273,-644"/>
<text text-anchor="middle" x="533.773" y="-623.2" font-family="Courier,monospace" font-size="11.00">UploadIterator</text>
</g>
<!-- \\ArrayAccess -->
<g id="node18" class="node"><title>\\ArrayAccess</title>
<ellipse fill="none" stroke="black" cx="79.293" cy="-18" rx="58.4896" ry="18"/>
<text text-anchor="middle" x="79.293" y="-14.3" font-family="Times,serif" font-size="14.00" fill="gray">\ArrayAccess</text>
</g>
<!-- \\Haldayne\\Customs\\UploadIterator&#45;&gt;\\ArrayAccess -->
<g id="edge4" class="edge"><title>\\Haldayne\\Customs\\UploadIterator&#45;&gt;\\ArrayAccess</title>
<path fill="none" stroke="black" stroke-dasharray="1,5" d="M477.881,-619.131C465.304,-615.105 453.065,-608.809 444.273,-599 282.387,-418.37 495.919,-218.274 302.43,-72"/>
<path fill="none" stroke="black" stroke-dasharray="1,5" d="M300.43,-72C297.082,-69.4694 200.409,-46.3246 136.3,-31.1681"/>
<polygon fill="none" stroke="black" points="136.846,-27.7009 126.309,-28.8086 135.237,-34.5135 136.846,-27.7009"/>
</g>
<!-- \\SeekableIterator -->
<g id="node19" class="node"><title>\\SeekableIterator</title>
<ellipse fill="none" stroke="black" cx="301.43" cy="-26" rx="70.6878" ry="18"/>
<text text-anchor="middle" x="301.43" y="-22.3" font-family="Times,serif" font-size="14.00" fill="gray">\SeekableIterator</text>
</g>
<!-- \\Haldayne\\Customs\\UploadIterator&#45;&gt;\\SeekableIterator -->
<g id="edge5" class="edge"><title>\\Haldayne\\Customs\\UploadIterator&#45;&gt;\\SeekableIterator</title>
<path fill="none" stroke="black" stroke-dasharray="1,5" d="M477.966,-619.604C465.233,-615.58 452.898,-609.167 444.273,-599 287.362,-414.024 516.497,-253.031 372.273,-58 368.422,-52.7921 363.519,-48.4086 358.101,-44.724"/>
<polygon fill="none" stroke="black" points="359.631,-41.5631 349.241,-39.4913 356.072,-47.5904 359.631,-41.5631"/>
</g>
<!-- \\Countable -->
<g id="node20" class="node"><title>\\Countable</title>
<ellipse fill="none" stroke="black" cx="79.293" cy="-72" rx="49.2915" ry="18"/>
<text text-anchor="middle" x="79.293" y="-68.3" font-family="Times,serif" font-size="14.00" fill="gray">\Countable</text>
</g>
<!-- \\Haldayne\\Customs\\UploadIterator&#45;&gt;\\Countable -->
<g id="edge6" class="edge"><title>\\Haldayne\\Customs\\UploadIterator&#45;&gt;\\Countable</title>
<path fill="none" stroke="black" stroke-dasharray="1,5" d="M300.43,-72C275.532,-53.1778 192.793,-58.3736 136.156,-64.6014"/>
<polygon fill="none" stroke="black" points="135.443,-61.1599 125.904,-65.7707 136.237,-68.1148 135.443,-61.1599"/>
</g>
<!-- \\Haldayne\\Customs\\HtmlNameAccessorTrait -->
<g id="node8" class="node"><title>\\Haldayne\\Customs\\HtmlNameAccessorTrait</title>
<polygon fill="none" stroke="black" points="612.773,-590 454.773,-590 454.773,-554 612.773,-554 612.773,-590"/>
<text text-anchor="middle" x="533.773" y="-569.2" font-family="Courier,monospace" font-size="11.00">HtmlNameAccessorTrait</text>
</g>
<!-- \\Haldayne\\Boost\\Lambda\\Y -->
<g id="node9" class="node"><title>\\Haldayne\\Boost\\Lambda\\Y</title>
<polygon fill="none" stroke="black" points="560.773,-482 506.773,-482 506.773,-446 560.773,-446 560.773,-482"/>
<text text-anchor="middle" x="533.773" y="-461.2" font-family="Courier,monospace" font-size="11.00">Y</text>
</g>
<!-- \\Haldayne\\Boost\\Lambda\\Retry -->
<g id="node10" class="node"><title>\\Haldayne\\Boost\\Lambda\\Retry</title>
<polygon fill="none" stroke="black" points="560.773,-428 506.773,-428 506.773,-392 560.773,-392 560.773,-428"/>
<text text-anchor="middle" x="533.773" y="-407.2" font-family="Courier,monospace" font-size="11.00">Retry</text>
</g>
<!-- \\Haldayne\\Boost\\Lambda\\Capture -->
<g id="node11" class="node"><title>\\Haldayne\\Boost\\Lambda\\Capture</title>
<polygon fill="none" stroke="black" points="565.773,-374 501.773,-374 501.773,-338 565.773,-338 565.773,-374"/>
<text text-anchor="middle" x="533.773" y="-353.2" font-family="Courier,monospace" font-size="11.00">Capture</text>
</g>
<!-- \\Haldayne\\Boost\\Lambda\\Expression -->
<g id="node12" class="node"><title>\\Haldayne\\Boost\\Lambda\\Expression</title>
<polygon fill="none" stroke="black" points="575.773,-320 491.773,-320 491.773,-284 575.773,-284 575.773,-320"/>
<text text-anchor="middle" x="533.773" y="-299.2" font-family="Courier,monospace" font-size="11.00">Expression</text>
</g>
<!-- \\Haldayne\\Boost\\Contract\\Arrayable -->
<g id="node13" class="node"><title>\\Haldayne\\Boost\\Contract\\Arrayable</title>
<polygon fill="none" stroke="black" points="117.793,-328 40.793,-328 40.793,-292 117.793,-292 117.793,-328"/>
<text text-anchor="middle" x="79.293" y="-307.2" font-family="Courier,monospace" font-size="11.00">Arrayable</text>
</g>
<!-- \\Haldayne\\Boost\\Contract\\Jsonable -->
<g id="node14" class="node"><title>\\Haldayne\\Boost\\Contract\\Jsonable</title>
<polygon fill="none" stroke="black" points="114.793,-274 43.793,-274 43.793,-238 114.793,-238 114.793,-274"/>
<text text-anchor="middle" x="79.293" y="-253.2" font-family="Courier,monospace" font-size="11.00">Jsonable</text>
</g>
<!-- \\Haldayne\\Boost\\Map -->
<g id="node15" class="node"><title>\\Haldayne\\Boost\\Map</title>
<polygon fill="none" stroke="black" points="328.43,-266 274.43,-266 274.43,-230 328.43,-230 328.43,-266"/>
<text text-anchor="middle" x="301.43" y="-245.2" font-family="Courier,monospace" font-size="11.00">Map</text>
</g>
<!-- \\Haldayne\\Boost\\Map&#45;&gt;\\Haldayne\\Boost\\Contract\\Arrayable -->
<g id="edge8" class="edge"><title>\\Haldayne\\Boost\\Map&#45;&gt;\\Haldayne\\Boost\\Contract\\Arrayable</title>
<path fill="none" stroke="black" stroke-dasharray="1,5" d="M274.313,-255.356C238.313,-265.495 172.813,-283.942 127.96,-296.575"/>
<polygon fill="none" stroke="black" points="126.836,-293.255 118.159,-299.335 128.734,-299.993 126.836,-293.255"/>
</g>
<!-- \\Haldayne\\Boost\\Map&#45;&gt;\\Haldayne\\Boost\\Contract\\Jsonable -->
<g id="edge9" class="edge"><title>\\Haldayne\\Boost\\Map&#45;&gt;\\Haldayne\\Boost\\Contract\\Jsonable</title>
<path fill="none" stroke="black" stroke-dasharray="1,5" d="M274.313,-248.949C237.543,-250.285 169.999,-252.74 125.112,-254.371"/>
<polygon fill="none" stroke="black" points="124.927,-250.876 115.06,-254.737 125.181,-257.871 124.927,-250.876"/>
</g>
<!-- \\Haldayne\\Boost\\Map&#45;&gt;\\ArrayAccess -->
<g id="edge10" class="edge"><title>\\Haldayne\\Boost\\Map&#45;&gt;\\ArrayAccess</title>
<path fill="none" stroke="black" stroke-dasharray="1,5" d="M292.622,-229.955C274.708,-190.617 226.878,-96.5402 158.586,-45 151.822,-39.8952 144.023,-35.7098 136.023,-32.2911"/>
<polygon fill="none" stroke="black" points="137.179,-28.9854 126.591,-28.6208 134.641,-35.5089 137.179,-28.9854"/>
</g>
<!-- \\Haldayne\\Boost\\Map&#45;&gt;\\Countable -->
<g id="edge7" class="edge"><title>\\Haldayne\\Boost\\Map&#45;&gt;\\Countable</title>
<path fill="none" stroke="black" stroke-dasharray="1,5" d="M287.68,-229.728C265.094,-198.637 215.077,-135.292 158.586,-99 150.058,-93.5211 140.289,-89.0122 130.61,-85.3545"/>
<polygon fill="none" stroke="black" points="131.604,-81.9942 121.009,-81.9763 129.281,-88.5973 131.604,-81.9942"/>
</g>
<!-- \\IteratorAggregate -->
<g id="node21" class="node"><title>\\IteratorAggregate</title>
<ellipse fill="none" stroke="black" cx="79.293" cy="-126" rx="75.2868" ry="18"/>
<text text-anchor="middle" x="79.293" y="-122.3" font-family="Times,serif" font-size="14.00" fill="gray">\IteratorAggregate</text>
</g>
<!-- \\Haldayne\\Boost\\Map&#45;&gt;\\IteratorAggregate -->
<g id="edge11" class="edge"><title>\\Haldayne\\Boost\\Map&#45;&gt;\\IteratorAggregate</title>
<path fill="none" stroke="black" stroke-dasharray="1,5" d="M277.478,-229.895C250.33,-209.145 203.178,-175.155 158.586,-153 151.705,-149.581 144.285,-146.413 136.852,-143.541"/>
<polygon fill="none" stroke="black" points="138.061,-140.256 127.468,-140.063 135.628,-146.82 138.061,-140.256"/>
</g>
<!-- \\Haldayne\\Boost\\MapOfMaps -->
<g id="node16" class="node"><title>\\Haldayne\\Boost\\MapOfMaps</title>
<polygon fill="none" stroke="black" points="572.273,-266 495.273,-266 495.273,-230 572.273,-230 572.273,-266"/>
<text text-anchor="middle" x="533.773" y="-245.2" font-family="Courier,monospace" font-size="11.00">MapOfMaps</text>
</g>
<!-- \\Haldayne\\Boost\\MapOfMaps&#45;&gt;\\Haldayne\\Boost\\Map -->
<g id="edge12" class="edge"><title>\\Haldayne\\Boost\\MapOfMaps&#45;&gt;\\Haldayne\\Boost\\Map</title>
<path fill="none" stroke="black" d="M495.252,-248C452.004,-248 381.412,-248 338.7,-248"/>
<polygon fill="none" stroke="black" points="338.475,-244.5 328.475,-248 338.475,-251.5 338.475,-244.5"/>
</g>
</g>
</svg>
