<?xml version="1.0" encoding="UTF-8" standalone="no"?>
<!DOCTYPE svg PUBLIC "-//W3C//DTD SVG 1.1//EN"
 "http://www.w3.org/Graphics/SVG/1.1/DTD/svg11.dtd">
<!-- Generated by graphviz version 2.38.0 (20140413.2041)
 -->
<!-- Title: G Pages: 1 -->
<svg width="700pt" height="1040pt"
 viewBox="0.00 0.00 699.67 1040.00" xmlns="http://www.w3.org/2000/svg" xmlns:xlink="http://www.w3.org/1999/xlink">
<g id="graph0" class="graph" transform="scale(1 1) rotate(0) translate(4 1036)">
<title>G</title>
<polygon fill="white" stroke="none" points="-4,4 -4,-1036 695.67,-1036 695.67,4 -4,4"/>
<g id="clust1" class="cluster"><title>cluster_Global</title>
<path fill="none" stroke="gray" d="M248.628,-206C248.628,-206 671.67,-206 671.67,-206 677.67,-206 683.67,-212 683.67,-218 683.67,-218 683.67,-1012 683.67,-1012 683.67,-1018 677.67,-1024 671.67,-1024 671.67,-1024 248.628,-1024 248.628,-1024 242.628,-1024 236.628,-1018 236.628,-1012 236.628,-1012 236.628,-218 236.628,-218 236.628,-212 242.628,-206 248.628,-206"/>
<text text-anchor="middle" x="460.149" y="-1011.2" font-family="Times,serif" font-size="11.00" fill="gray">Global</text>
</g>
<g id="clust2" class="cluster"><title>cluster_\Haldayne</title>
<path fill="none" stroke="gray" d="M256.628,-214C256.628,-214 663.67,-214 663.67,-214 669.67,-214 675.67,-220 675.67,-226 675.67,-226 675.67,-984 675.67,-984 675.67,-990 669.67,-996 663.67,-996 663.67,-996 256.628,-996 256.628,-996 250.628,-996 244.628,-990 244.628,-984 244.628,-984 244.628,-226 244.628,-226 244.628,-220 250.628,-214 256.628,-214"/>
<text text-anchor="middle" x="460.149" y="-983.2" font-family="Times,serif" font-size="11.00" fill="gray">Haldayne</text>
</g>
<g id="clust3" class="cluster"><title>cluster_\Haldayne\Customs</title>
<path fill="none" stroke="gray" d="M264.628,-572C264.628,-572 655.67,-572 655.67,-572 661.67,-572 667.67,-578 667.67,-584 667.67,-584 667.67,-956 667.67,-956 667.67,-962 661.67,-968 655.67,-968 655.67,-968 264.628,-968 264.628,-968 258.628,-968 252.628,-962 252.628,-956 252.628,-956 252.628,-584 252.628,-584 252.628,-578 258.628,-572 264.628,-572"/>
<text text-anchor="middle" x="460.149" y="-955.2" font-family="Times,serif" font-size="11.00" fill="gray">Customs</text>
</g>
<g id="clust4" class="cluster"><title>cluster_\Haldayne\Boost</title>
<path fill="none" stroke="gray" d="M527.67,-222C527.67,-222 612.67,-222 612.67,-222 618.67,-222 624.67,-228 624.67,-234 624.67,-234 624.67,-552 624.67,-552 624.67,-558 618.67,-564 612.67,-564 612.67,-564 527.67,-564 527.67,-564 521.67,-564 515.67,-558 515.67,-552 515.67,-552 515.67,-234 515.67,-234 515.67,-228 521.67,-222 527.67,-222"/>
<text text-anchor="middle" x="570.17" y="-551.2" font-family="Times,serif" font-size="11.00" fill="gray">Boost</text>
</g>
<g id="clust5" class="cluster"><title>cluster_\Haldayne\Boost\Contract</title>
<path fill="none" stroke="gray" d="M535.67,-410C535.67,-410 604.67,-410 604.67,-410 610.67,-410 616.67,-416 616.67,-422 616.67,-422 616.67,-524 616.67,-524 616.67,-530 610.67,-536 604.67,-536 604.67,-536 535.67,-536 535.67,-536 529.67,-536 523.67,-530 523.67,-524 523.67,-524 523.67,-422 523.67,-422 523.67,-416 529.67,-410 535.67,-410"/>
<text text-anchor="middle" x="570.17" y="-523.2" font-family="Times,serif" font-size="11.00" fill="gray">Contract</text>
</g>
<g id="clust6" class="cluster"><title>cluster_\Haldayne\Boost\Lambda</title>
<path fill="none" stroke="gray" d="M542.17,-276C542.17,-276 598.17,-276 598.17,-276 604.17,-276 610.17,-282 610.17,-288 610.17,-288 610.17,-390 610.17,-390 610.17,-396 604.17,-402 598.17,-402 598.17,-402 542.17,-402 542.17,-402 536.17,-402 530.17,-396 530.17,-390 530.17,-390 530.17,-288 530.17,-288 530.17,-282 536.17,-276 542.17,-276"/>
<text text-anchor="middle" x="570.17" y="-389.2" font-family="Times,serif" font-size="11.00" fill="gray">Lambda</text>
</g>
<!-- \\Haldayne\\Customs\\UploadException -->
<g id="node1" class="node"><title>\\Haldayne\\Customs\\UploadException</title>
<polygon fill="none" stroke="black" points="378.628,-913 260.628,-913 260.628,-877 378.628,-877 378.628,-913"/>
<text text-anchor="middle" x="319.628" y="-892.2" font-family="Courier,monospace" font-size="11.00">UploadException</text>
</g>
<!-- \\RuntimeException -->
<g id="node14" class="node"><title>\\RuntimeException</title>
<ellipse fill="none" stroke="black" cx="79.293" cy="-895" rx="79.0865" ry="18"/>
<text text-anchor="middle" x="79.293" y="-891.3" font-family="Times,serif" font-size="14.00" fill="gray">\RuntimeException</text>
</g>
<!-- \\Haldayne\\Customs\\UploadException&#45;&gt;\\RuntimeException -->
<g id="edge1" class="edge"><title>\\Haldayne\\Customs\\UploadException&#45;&gt;\\RuntimeException</title>
<path fill="none" stroke="black" d="M260.325,-895C232.838,-895 199.446,-895 168.921,-895"/>
<polygon fill="none" stroke="black" points="168.691,-891.5 158.691,-895 168.691,-898.5 168.691,-891.5"/>
</g>
<!-- \\Haldayne\\Customs\\ServerProblemException -->
<g id="node2" class="node"><title>\\Haldayne\\Customs\\ServerProblemException</title>
<polygon fill="none" stroke="black" points="652.67,-940 487.67,-940 487.67,-904 652.67,-904 652.67,-940"/>
<text text-anchor="middle" x="570.17" y="-919.2" font-family="Courier,monospace" font-size="11.00">ServerProblemException</text>
</g>
<!-- \\Haldayne\\Customs\\ServerProblemException&#45;&gt;\\Haldayne\\Customs\\UploadException -->
<g id="edge2" class="edge"><title>\\Haldayne\\Customs\\ServerProblemException&#45;&gt;\\Haldayne\\Customs\\UploadException</title>
<path fill="none" stroke="black" d="M487.444,-913.122C455.538,-909.656 419.377,-905.727 388.898,-902.416"/>
<polygon fill="none" stroke="black" points="389.114,-898.919 378.794,-901.319 388.358,-905.878 389.114,-898.919"/>
</g>
<!-- \\Haldayne\\Customs\\SecurityConcernException -->
<g id="node3" class="node"><title>\\Haldayne\\Customs\\SecurityConcernException</title>
<polygon fill="none" stroke="black" points="659.67,-886 480.67,-886 480.67,-850 659.67,-850 659.67,-886"/>
<text text-anchor="middle" x="570.17" y="-865.2" font-family="Courier,monospace" font-size="11.00">SecurityConcernException</text>
</g>
<!-- \\Haldayne\\Customs\\SecurityConcernException&#45;&gt;\\Haldayne\\Customs\\UploadException -->
<g id="edge3" class="edge"><title>\\Haldayne\\Customs\\SecurityConcernException&#45;&gt;\\Haldayne\\Customs\\UploadException</title>
<path fill="none" stroke="black" d="M480.493,-877.633C450.446,-880.897 417.367,-884.491 389.133,-887.558"/>
<polygon fill="none" stroke="black" points="388.529,-884.103 378.965,-888.663 389.285,-891.062 388.529,-884.103"/>
</g>
<!-- \\Haldayne\\Customs\\UploadFile -->
<g id="node4" class="node"><title>\\Haldayne\\Customs\\UploadFile</title>
<polygon fill="none" stroke="black" points="612.17,-832 528.17,-832 528.17,-796 612.17,-796 612.17,-832"/>
<text text-anchor="middle" x="570.17" y="-811.2" font-family="Courier,monospace" font-size="11.00">UploadFile</text>
</g>
<!-- \\Haldayne\\Customs\\UploadError -->
<g id="node5" class="node"><title>\\Haldayne\\Customs\\UploadError</title>
<polygon fill="none" stroke="black" points="615.67,-778 524.67,-778 524.67,-742 615.67,-742 615.67,-778"/>
<text text-anchor="middle" x="570.17" y="-757.2" font-family="Courier,monospace" font-size="11.00">UploadError</text>
</g>
<!-- \\Haldayne\\Customs\\UploadConfig -->
<g id="node6" class="node"><title>\\Haldayne\\Customs\\UploadConfig</title>
<polygon fill="none" stroke="black" points="619.17,-724 521.17,-724 521.17,-688 619.17,-688 619.17,-724"/>
<text text-anchor="middle" x="570.17" y="-703.2" font-family="Courier,monospace" font-size="11.00">UploadConfig</text>
</g>
<!-- \\Haldayne\\Customs\\UploadIterator -->
<g id="node7" class="node"><title>\\Haldayne\\Customs\\UploadIterator</title>
<polygon fill="none" stroke="black" points="625.67,-670 514.67,-670 514.67,-634 625.67,-634 625.67,-670"/>
<text text-anchor="middle" x="570.17" y="-649.2" font-family="Courier,monospace" font-size="11.00">UploadIterator</text>
</g>
<!-- \\ArrayAccess -->
<g id="node15" class="node"><title>\\ArrayAccess</title>
<ellipse fill="none" stroke="black" cx="319.628" cy="-180" rx="58.4896" ry="18"/>
<text text-anchor="middle" x="319.628" y="-176.3" font-family="Times,serif" font-size="14.00" fill="gray">\ArrayAccess</text>
</g>
<!-- \\Haldayne\\Customs\\UploadIterator&#45;&gt;\\ArrayAccess -->
<g id="edge4" class="edge"><title>\\Haldayne\\Customs\\UploadIterator&#45;&gt;\\ArrayAccess</title>
<path fill="none" stroke="black" stroke-dasharray="1,5" d="M514.394,-643.827C502.11,-639.821 489.978,-633.861 480.67,-625 356.864,-507.132 328.58,-286.635 322.334,-208.414"/>
<polygon fill="none" stroke="black" points="325.818,-208.062 321.591,-198.346 318.837,-208.577 325.818,-208.062"/>
</g>
<!-- \\SeekableIterator -->
<g id="node16" class="node"><title>\\SeekableIterator</title>
<ellipse fill="none" stroke="black" cx="319.628" cy="-126" rx="70.6878" ry="18"/>
<text text-anchor="middle" x="319.628" y="-122.3" font-family="Times,serif" font-size="14.00" fill="gray">\SeekableIterator</text>
</g>
<!-- \\Haldayne\\Customs\\UploadIterator&#45;&gt;\\SeekableIterator -->
<g id="edge5" class="edge"><title>\\Haldayne\\Customs\\UploadIterator&#45;&gt;\\SeekableIterator</title>
<path fill="none" stroke="black" stroke-dasharray="1,5" d="M514.495,-645.491C501.761,-641.468 489.392,-635.085 480.67,-625 341.861,-464.492 547.362,-313.609 408.67,-153 403.785,-147.343 397.748,-142.852 391.143,-139.289"/>
<polygon fill="none" stroke="black" points="392.384,-136.007 381.838,-134.984 389.444,-142.36 392.384,-136.007"/>
</g>
<!-- \\Countable -->
<g id="node17" class="node"><title>\\Countable</title>
<ellipse fill="none" stroke="black" cx="319.628" cy="-72" rx="49.2915" ry="18"/>
<text text-anchor="middle" x="319.628" y="-68.3" font-family="Times,serif" font-size="14.00" fill="gray">\Countable</text>
</g>
<!-- \\Haldayne\\Customs\\UploadIterator&#45;&gt;\\Countable -->
<g id="edge6" class="edge"><title>\\Haldayne\\Customs\\UploadIterator&#45;&gt;\\Countable</title>
<path fill="none" stroke="black" stroke-dasharray="1,5" d="M514.389,-645.582C501.656,-641.558 489.314,-635.151 480.67,-625 327.697,-445.347 561.513,-278.764 408.67,-99 400.66,-89.5794 389.454,-83.3866 377.714,-79.3312"/>
<polygon fill="none" stroke="black" points="378.367,-75.8747 367.785,-76.4034 376.387,-82.5889 378.367,-75.8747"/>
</g>
<!-- \\Haldayne\\Customs\\HtmlNameAccessorTrait -->
<g id="node8" class="node"><title>\\Haldayne\\Customs\\HtmlNameAccessorTrait</title>
<polygon fill="none" stroke="black" points="649.17,-616 491.17,-616 491.17,-580 649.17,-580 649.17,-616"/>
<text text-anchor="middle" x="570.17" y="-595.2" font-family="Courier,monospace" font-size="11.00">HtmlNameAccessorTrait</text>
</g>
<!-- \\Haldayne\\Boost\\Contract\\Arrayable -->
<g id="node9" class="node"><title>\\Haldayne\\Boost\\Contract\\Arrayable</title>
<polygon fill="none" stroke="black" points="608.67,-508 531.67,-508 531.67,-472 608.67,-472 608.67,-508"/>
<text text-anchor="middle" x="570.17" y="-487.2" font-family="Courier,monospace" font-size="11.00">Arrayable</text>
</g>
<!-- \\Haldayne\\Boost\\Contract\\Jsonable -->
<g id="node10" class="node"><title>\\Haldayne\\Boost\\Contract\\Jsonable</title>
<polygon fill="none" stroke="black" points="605.67,-454 534.67,-454 534.67,-418 605.67,-418 605.67,-454"/>
<text text-anchor="middle" x="570.17" y="-433.2" font-family="Courier,monospace" font-size="11.00">Jsonable</text>
</g>
<!-- \\Haldayne\\Boost\\Lambda\\Y -->
<g id="node11" class="node"><title>\\Haldayne\\Boost\\Lambda\\Y</title>
<polygon fill="none" stroke="black" points="597.17,-374 543.17,-374 543.17,-338 597.17,-338 597.17,-374"/>
<text text-anchor="middle" x="570.17" y="-353.2" font-family="Courier,monospace" font-size="11.00">Y</text>
</g>
<!-- \\Haldayne\\Boost\\Lambda\\Factory -->
<g id="node12" class="node"><title>\\Haldayne\\Boost\\Lambda\\Factory</title>
<polygon fill="none" stroke="black" points="602.17,-320 538.17,-320 538.17,-284 602.17,-284 602.17,-320"/>
<text text-anchor="middle" x="570.17" y="-299.2" font-family="Courier,monospace" font-size="11.00">Factory</text>
</g>
<!-- \\Haldayne\\Boost\\MapOfMaps -->
<g id="node13" class="node"><title>\\Haldayne\\Boost\\MapOfMaps</title>
<polygon fill="none" stroke="black" points="608.67,-266 531.67,-266 531.67,-230 608.67,-230 608.67,-266"/>
<text text-anchor="middle" x="570.17" y="-245.2" font-family="Courier,monospace" font-size="11.00">MapOfMaps</text>
</g>
<!-- \\Haldayne\\Boost\\Map -->
<g id="node18" class="node"><title>\\Haldayne\\Boost\\Map</title>
<ellipse fill="none" stroke="black" cx="319.628" cy="-18" rx="89.0842" ry="18"/>
<text text-anchor="middle" x="319.628" y="-14.3" font-family="Times,serif" font-size="14.00" fill="gray">\Haldayne\Boost\Map</text>
</g>
<!-- \\Haldayne\\Boost\\MapOfMaps&#45;&gt;\\Haldayne\\Boost\\Map -->
<g id="edge7" class="edge"><title>\\Haldayne\\Boost\\MapOfMaps&#45;&gt;\\Haldayne\\Boost\\Map</title>
<path fill="none" stroke="black" d="M559.82,-229.795C538.521,-190.135 482.477,-95.4588 408.67,-45 403.084,-41.1807 396.938,-37.8863 390.57,-35.0475"/>
<polygon fill="none" stroke="black" points="391.703,-31.7299 381.121,-31.2064 389.066,-38.2146 391.703,-31.7299"/>
</g>
</g>
</svg>
