<?xml version="1.0" encoding="UTF-8" standalone="no"?>
<!DOCTYPE svg PUBLIC "-//W3C//DTD SVG 1.1//EN"
 "http://www.w3.org/Graphics/SVG/1.1/DTD/svg11.dtd">
<!-- Generated by graphviz version 2.38.0 (20140413.2041)
 -->
<!-- Title: G Pages: 1 -->
<svg width="1015pt" height="1228pt"
 viewBox="0.00 0.00 1015.17 1228.00" xmlns="http://www.w3.org/2000/svg" xmlns:xlink="http://www.w3.org/1999/xlink">
<g id="graph0" class="graph" transform="scale(1 1) rotate(0) translate(4 1224)">
<title>G</title>
<polygon fill="white" stroke="none" points="-4,4 -4,-1224 1011.17,-1224 1011.17,4 -4,4"/>
<g id="clust1" class="cluster"><title>cluster_Global</title>
<path fill="none" stroke="gray" d="M20,-152C20,-152 987.167,-152 987.167,-152 993.167,-152 999.167,-158 999.167,-164 999.167,-164 999.167,-1200 999.167,-1200 999.167,-1206 993.167,-1212 987.167,-1212 987.167,-1212 20,-1212 20,-1212 14,-1212 8,-1206 8,-1200 8,-1200 8,-164 8,-164 8,-158 14,-152 20,-152"/>
<text text-anchor="middle" x="503.583" y="-1199.2" font-family="Times,serif" font-size="11.00" fill="gray">Global</text>
</g>
<g id="clust2" class="cluster"><title>cluster_\Haldayne</title>
<path fill="none" stroke="gray" d="M28,-160C28,-160 979.167,-160 979.167,-160 985.167,-160 991.167,-166 991.167,-172 991.167,-172 991.167,-1172 991.167,-1172 991.167,-1178 985.167,-1184 979.167,-1184 979.167,-1184 28,-1184 28,-1184 22,-1184 16,-1178 16,-1172 16,-1172 16,-172 16,-172 16,-166 22,-160 28,-160"/>
<text text-anchor="middle" x="503.583" y="-1171.2" font-family="Times,serif" font-size="11.00" fill="gray">Haldayne</text>
</g>
<g id="clust3" class="cluster"><title>cluster_\Haldayne\Boost</title>
<path fill="none" stroke="gray" d="M36,-922C36,-922 927.167,-922 927.167,-922 933.167,-922 939.167,-928 939.167,-934 939.167,-934 939.167,-1144 939.167,-1144 939.167,-1150 933.167,-1156 927.167,-1156 927.167,-1156 36,-1156 36,-1156 30,-1156 24,-1150 24,-1144 24,-1144 24,-934 24,-934 24,-928 30,-922 36,-922"/>
<text text-anchor="middle" x="481.583" y="-1143.2" font-family="Times,serif" font-size="11.00" fill="gray">Boost</text>
</g>
<g id="clust4" class="cluster"><title>cluster_\Haldayne\Boost\Contract</title>
<path fill="none" stroke="gray" d="M44,-930C44,-930 113,-930 113,-930 119,-930 125,-936 125,-942 125,-942 125,-1044 125,-1044 125,-1050 119,-1056 113,-1056 113,-1056 44,-1056 44,-1056 38,-1056 32,-1050 32,-1044 32,-1044 32,-942 32,-942 32,-936 38,-930 44,-930"/>
<text text-anchor="middle" x="78.5" y="-1043.2" font-family="Times,serif" font-size="11.00" fill="gray">Contract</text>
</g>
<g id="clust5" class="cluster"><title>cluster_\Haldayne\Customs</title>
<path fill="none" stroke="gray" d="M598.323,-518C598.323,-518 971.167,-518 971.167,-518 977.167,-518 983.167,-524 983.167,-530 983.167,-530 983.167,-902 983.167,-902 983.167,-908 977.167,-914 971.167,-914 971.167,-914 598.323,-914 598.323,-914 592.323,-914 586.323,-908 586.323,-902 586.323,-902 586.323,-530 586.323,-530 586.323,-524 592.323,-518 598.323,-518"/>
<text text-anchor="middle" x="784.745" y="-901.2" font-family="Times,serif" font-size="11.00" fill="gray">Customs</text>
</g>
<g id="clust6" class="cluster"><title>cluster_\Haldayne\Fox</title>
<path fill="none" stroke="gray" d="M827.167,-168C827.167,-168 944.167,-168 944.167,-168 950.167,-168 956.167,-174 956.167,-180 956.167,-180 956.167,-498 956.167,-498 956.167,-504 950.167,-510 944.167,-510 944.167,-510 827.167,-510 827.167,-510 821.167,-510 815.167,-504 815.167,-498 815.167,-498 815.167,-180 815.167,-180 815.167,-174 821.167,-168 827.167,-168"/>
<text text-anchor="middle" x="885.667" y="-497.2" font-family="Times,serif" font-size="11.00" fill="gray">Fox</text>
</g>
<!-- \\Haldayne\\Boost\\Contract\\Arrayable -->
<g id="node1" class="node"><title>\\Haldayne\\Boost\\Contract\\Arrayable</title>
<polygon fill="none" stroke="black" points="117,-1028 40,-1028 40,-992 117,-992 117,-1028"/>
<text text-anchor="middle" x="78.5" y="-1007.2" font-family="Courier,monospace" font-size="11.00">Arrayable</text>
</g>
<!-- \\Haldayne\\Boost\\Contract\\Jsonable -->
<g id="node2" class="node"><title>\\Haldayne\\Boost\\Contract\\Jsonable</title>
<polygon fill="none" stroke="black" points="114,-974 43,-974 43,-938 114,-938 114,-974"/>
<text text-anchor="middle" x="78.5" y="-953.2" font-family="Courier,monospace" font-size="11.00">Jsonable</text>
</g>
<!-- \\Haldayne\\Boost\\MapOfStrings -->
<g id="node3" class="node"><title>\\Haldayne\\Boost\\MapOfStrings</title>
<polygon fill="none" stroke="black" points="702.323,-1128 604.323,-1128 604.323,-1092 702.323,-1092 702.323,-1128"/>
<text text-anchor="middle" x="653.323" y="-1107.2" font-family="Courier,monospace" font-size="11.00">MapOfStrings</text>
</g>
<!-- \\Haldayne\\Boost\\GuardedMapAbstract -->
<g id="node7" class="node"><title>\\Haldayne\\Boost\\GuardedMapAbstract</title>
<polygon fill="none" stroke="black" points="500.186,-1020 362.186,-1020 362.186,-984 500.186,-984 500.186,-1020"/>
<text text-anchor="start" x="397.186" y="-1005.2" font-family="Courier,monospace" font-size="11.00">«abstract»</text>
<text text-anchor="start" x="370.186" y="-993.2" font-family="Courier,monospace" font-size="11.00">GuardedMapAbstract</text>
</g>
<!-- \\Haldayne\\Boost\\MapOfStrings&#45;&gt;\\Haldayne\\Boost\\GuardedMapAbstract -->
<g id="edge1" class="edge"><title>\\Haldayne\\Boost\\MapOfStrings&#45;&gt;\\Haldayne\\Boost\\GuardedMapAbstract</title>
<path fill="none" stroke="black" d="M604.275,-1092.34C596.911,-1089.37 589.446,-1086.21 582.479,-1083 544.051,-1065.3 501.754,-1042.16 471.847,-1025.14"/>
<polygon fill="none" stroke="black" points="473.4,-1022 462.982,-1020.07 469.924,-1028.08 473.4,-1022"/>
</g>
<!-- \\Haldayne\\Boost\\MapOfFloats -->
<g id="node4" class="node"><title>\\Haldayne\\Boost\\MapOfFloats</title>
<polygon fill="none" stroke="black" points="931.167,-1101 840.167,-1101 840.167,-1065 931.167,-1065 931.167,-1101"/>
<text text-anchor="middle" x="885.667" y="-1080.2" font-family="Courier,monospace" font-size="11.00">MapOfFloats</text>
</g>
<!-- \\Haldayne\\Boost\\MapOfNumerics -->
<g id="node6" class="node"><title>\\Haldayne\\Boost\\MapOfNumerics</title>
<polygon fill="none" stroke="black" points="705.323,-1074 601.323,-1074 601.323,-1038 705.323,-1038 705.323,-1074"/>
<text text-anchor="middle" x="653.323" y="-1053.2" font-family="Courier,monospace" font-size="11.00">MapOfNumerics</text>
</g>
<!-- \\Haldayne\\Boost\\MapOfFloats&#45;&gt;\\Haldayne\\Boost\\MapOfNumerics -->
<g id="edge4" class="edge"><title>\\Haldayne\\Boost\\MapOfFloats&#45;&gt;\\Haldayne\\Boost\\MapOfNumerics</title>
<path fill="none" stroke="black" d="M839.981,-1077.76C804.672,-1073.62 755.002,-1067.8 715.921,-1063.22"/>
<polygon fill="none" stroke="black" points="716.055,-1059.71 705.715,-1062.02 715.24,-1066.66 716.055,-1059.71"/>
</g>
<!-- \\Haldayne\\Boost\\MapOfInts -->
<g id="node5" class="node"><title>\\Haldayne\\Boost\\MapOfInts</title>
<polygon fill="none" stroke="black" points="924.167,-1047 847.167,-1047 847.167,-1011 924.167,-1011 924.167,-1047"/>
<text text-anchor="middle" x="885.667" y="-1026.2" font-family="Courier,monospace" font-size="11.00">MapOfInts</text>
</g>
<!-- \\Haldayne\\Boost\\MapOfInts&#45;&gt;\\Haldayne\\Boost\\MapOfNumerics -->
<g id="edge5" class="edge"><title>\\Haldayne\\Boost\\MapOfInts&#45;&gt;\\Haldayne\\Boost\\MapOfNumerics</title>
<path fill="none" stroke="black" d="M847.145,-1033.4C811.578,-1037.57 757.518,-1043.9 715.68,-1048.81"/>
<polygon fill="none" stroke="black" points="715.122,-1045.35 705.598,-1049.99 715.937,-1052.3 715.122,-1045.35"/>
</g>
<!-- \\Haldayne\\Boost\\MapOfNumerics&#45;&gt;\\Haldayne\\Boost\\GuardedMapAbstract -->
<g id="edge10" class="edge"><title>\\Haldayne\\Boost\\MapOfNumerics&#45;&gt;\\Haldayne\\Boost\\GuardedMapAbstract</title>
<path fill="none" stroke="black" d="M601.266,-1043.48C574.335,-1036.87 540.713,-1028.62 510.56,-1021.23"/>
<polygon fill="none" stroke="black" points="511.028,-1017.74 500.482,-1018.75 509.36,-1024.53 511.028,-1017.74"/>
</g>
<!-- \\Haldayne\\Boost\\Map -->
<g id="node10" class="node"><title>\\Haldayne\\Boost\\Map</title>
<polygon fill="none" stroke="black" points="279.893,-970 225.893,-970 225.893,-934 279.893,-934 279.893,-970"/>
<text text-anchor="middle" x="252.893" y="-949.2" font-family="Courier,monospace" font-size="11.00">Map</text>
</g>
<!-- \\Haldayne\\Boost\\GuardedMapAbstract&#45;&gt;\\Haldayne\\Boost\\Map -->
<g id="edge11" class="edge"><title>\\Haldayne\\Boost\\GuardedMapAbstract&#45;&gt;\\Haldayne\\Boost\\Map</title>
<path fill="none" stroke="black" d="M366.54,-983.949C340.827,-976.656 312.093,-968.506 290.081,-962.263"/>
<polygon fill="none" stroke="black" points="290.743,-958.813 280.167,-959.452 288.833,-965.548 290.743,-958.813"/>
</g>
<!-- \\Haldayne\\Boost\\MapOfCollections -->
<g id="node8" class="node"><title>\\Haldayne\\Boost\\MapOfCollections</title>
<polygon fill="none" stroke="black" points="715.823,-1020 590.823,-1020 590.823,-984 715.823,-984 715.823,-1020"/>
<text text-anchor="middle" x="653.323" y="-999.2" font-family="Courier,monospace" font-size="11.00">MapOfCollections</text>
</g>
<!-- \\Haldayne\\Boost\\MapOfCollections&#45;&gt;\\Haldayne\\Boost\\GuardedMapAbstract -->
<g id="edge12" class="edge"><title>\\Haldayne\\Boost\\MapOfCollections&#45;&gt;\\Haldayne\\Boost\\GuardedMapAbstract</title>
<path fill="none" stroke="black" d="M590.71,-1002C565.894,-1002 536.972,-1002 510.677,-1002"/>
<polygon fill="none" stroke="black" points="510.36,-998.5 500.36,-1002 510.36,-1005.5 510.36,-998.5"/>
</g>
<!-- \\Haldayne\\Boost\\MapOfObjects -->
<g id="node9" class="node"><title>\\Haldayne\\Boost\\MapOfObjects</title>
<polygon fill="none" stroke="black" points="702.323,-966 604.323,-966 604.323,-930 702.323,-930 702.323,-966"/>
<text text-anchor="middle" x="653.323" y="-945.2" font-family="Courier,monospace" font-size="11.00">MapOfObjects</text>
</g>
<!-- \\Haldayne\\Boost\\MapOfObjects&#45;&gt;\\Haldayne\\Boost\\GuardedMapAbstract -->
<g id="edge13" class="edge"><title>\\Haldayne\\Boost\\MapOfObjects&#45;&gt;\\Haldayne\\Boost\\GuardedMapAbstract</title>
<path fill="none" stroke="black" d="M604.285,-959.784C576.888,-966.504 541.878,-975.092 510.596,-982.766"/>
<polygon fill="none" stroke="black" points="509.463,-979.44 500.585,-985.222 511.131,-986.238 509.463,-979.44"/>
</g>
<!-- \\Haldayne\\Boost\\Map&#45;&gt;\\Haldayne\\Boost\\Contract\\Arrayable -->
<g id="edge15" class="edge"><title>\\Haldayne\\Boost\\Map&#45;&gt;\\Haldayne\\Boost\\Contract\\Arrayable</title>
<path fill="none" stroke="black" stroke-dasharray="1,5" d="M225.71,-960.809C199.504,-969.626 158.606,-983.386 126.721,-994.113"/>
<polygon fill="none" stroke="black" points="125.503,-990.83 117.141,-997.336 127.735,-997.465 125.503,-990.83"/>
</g>
<!-- \\Haldayne\\Boost\\Map&#45;&gt;\\Haldayne\\Boost\\Contract\\Jsonable -->
<g id="edge16" class="edge"><title>\\Haldayne\\Boost\\Map&#45;&gt;\\Haldayne\\Boost\\Contract\\Jsonable</title>
<path fill="none" stroke="black" stroke-dasharray="1,5" d="M225.71,-952.608C198.852,-953.231 156.562,-954.212 124.358,-954.959"/>
<polygon fill="none" stroke="black" points="124.205,-951.462 114.289,-955.193 124.368,-958.46 124.205,-951.462"/>
</g>
<!-- \\ArrayAccess -->
<g id="node26" class="node"><title>\\ArrayAccess</title>
<ellipse fill="none" stroke="black" cx="78.5" cy="-18" rx="58.4896" ry="18"/>
<text text-anchor="middle" x="78.5" y="-14.3" font-family="Times,serif" font-size="14.00" fill="gray">\ArrayAccess</text>
</g>
<!-- \\Haldayne\\Boost\\Map&#45;&gt;\\ArrayAccess -->
<g id="edge17" class="edge"><title>\\Haldayne\\Boost\\Map&#45;&gt;\\ArrayAccess</title>
<path fill="none" stroke="black" stroke-dasharray="1,5" d="M251.078,-933.898C245.454,-812.36 210.954,-117.747 153.893,-45 149.62,-39.5523 144.147,-35.2031 138.112,-31.731"/>
<polygon fill="none" stroke="black" points="139.462,-28.4954 128.941,-27.2459 136.387,-34.7836 139.462,-28.4954"/>
</g>
<!-- \\Countable -->
<g id="node28" class="node"><title>\\Countable</title>
<ellipse fill="none" stroke="black" cx="78.5" cy="-72" rx="49.2915" ry="18"/>
<text text-anchor="middle" x="78.5" y="-68.3" font-family="Times,serif" font-size="14.00" fill="gray">\Countable</text>
</g>
<!-- \\Haldayne\\Boost\\Map&#45;&gt;\\Countable -->
<g id="edge14" class="edge"><title>\\Haldayne\\Boost\\Map&#45;&gt;\\Countable</title>
<path fill="none" stroke="black" stroke-dasharray="1,5" d="M250.945,-933.855C244.666,-816.46 207.655,-167.066 153.893,-99 148.507,-92.1802 141.241,-87.0822 133.353,-83.2715"/>
<polygon fill="none" stroke="black" points="134.461,-79.9427 123.882,-79.3632 131.791,-86.4134 134.461,-79.9427"/>
</g>
<!-- \\IteratorAggregate -->
<g id="node29" class="node"><title>\\IteratorAggregate</title>
<ellipse fill="none" stroke="black" cx="78.5" cy="-126" rx="75.2868" ry="18"/>
<text text-anchor="middle" x="78.5" y="-122.3" font-family="Times,serif" font-size="14.00" fill="gray">\IteratorAggregate</text>
</g>
<!-- \\Haldayne\\Boost\\Map&#45;&gt;\\IteratorAggregate -->
<g id="edge18" class="edge"><title>\\Haldayne\\Boost\\Map&#45;&gt;\\IteratorAggregate</title>
<path fill="none" stroke="black" stroke-dasharray="1,5" d="M248.132,-933.98C225.982,-827.847 112.575,-284.476 85.3712,-154.131"/>
<polygon fill="none" stroke="black" points="88.7546,-153.21 83.2852,-144.136 81.9022,-154.641 88.7546,-153.21"/>
</g>
<!-- \\Haldayne\\Customs\\UploadException -->
<g id="node11" class="node"><title>\\Haldayne\\Customs\\UploadException</title>
<polygon fill="none" stroke="black" points="712.323,-832 594.323,-832 594.323,-796 712.323,-796 712.323,-832"/>
<text text-anchor="middle" x="653.323" y="-811.2" font-family="Courier,monospace" font-size="11.00">UploadException</text>
</g>
<!-- \\RuntimeException -->
<g id="node25" class="node"><title>\\RuntimeException</title>
<ellipse fill="none" stroke="black" cx="431.186" cy="-126" rx="79.0865" ry="18"/>
<text text-anchor="middle" x="431.186" y="-122.3" font-family="Times,serif" font-size="14.00" fill="gray">\RuntimeException</text>
</g>
<!-- \\Haldayne\\Customs\\UploadException&#45;&gt;\\RuntimeException -->
<g id="edge2" class="edge"><title>\\Haldayne\\Customs\\UploadException&#45;&gt;\\RuntimeException</title>
<path fill="none" stroke="black" d="M646.548,-795.951C616.485,-701.994 477.867,-268.768 441.138,-153.977"/>
<polygon fill="none" stroke="black" points="444.384,-152.635 438.002,-144.177 437.716,-154.768 444.384,-152.635"/>
</g>
<!-- \\Haldayne\\Customs\\ServerProblemException -->
<g id="node12" class="node"><title>\\Haldayne\\Customs\\ServerProblemException</title>
<polygon fill="none" stroke="black" points="968.167,-886 803.167,-886 803.167,-850 968.167,-850 968.167,-886"/>
<text text-anchor="middle" x="885.667" y="-865.2" font-family="Courier,monospace" font-size="11.00">ServerProblemException</text>
</g>
<!-- \\Haldayne\\Customs\\ServerProblemException&#45;&gt;\\Haldayne\\Customs\\UploadException -->
<g id="edge3" class="edge"><title>\\Haldayne\\Customs\\ServerProblemException&#45;&gt;\\Haldayne\\Customs\\UploadException</title>
<path fill="none" stroke="black" d="M807.645,-849.944C780.16,-843.5 749.407,-836.291 722.7,-830.03"/>
<polygon fill="none" stroke="black" points="723.212,-826.555 712.677,-827.68 721.614,-833.37 723.212,-826.555"/>
</g>
<!-- \\Haldayne\\Customs\\SecurityConcernException -->
<g id="node13" class="node"><title>\\Haldayne\\Customs\\SecurityConcernException</title>
<polygon fill="none" stroke="black" points="975.167,-832 796.167,-832 796.167,-796 975.167,-796 975.167,-832"/>
<text text-anchor="middle" x="885.667" y="-811.2" font-family="Courier,monospace" font-size="11.00">SecurityConcernException</text>
</g>
<!-- \\Haldayne\\Customs\\SecurityConcernException&#45;&gt;\\Haldayne\\Customs\\UploadException -->
<g id="edge6" class="edge"><title>\\Haldayne\\Customs\\SecurityConcernException&#45;&gt;\\Haldayne\\Customs\\UploadException</title>
<path fill="none" stroke="black" d="M795.939,-814C771.541,-814 745.469,-814 722.432,-814"/>
<polygon fill="none" stroke="black" points="722.419,-810.5 712.419,-814 722.419,-817.5 722.419,-810.5"/>
</g>
<!-- \\Haldayne\\Customs\\UploadFile -->
<g id="node14" class="node"><title>\\Haldayne\\Customs\\UploadFile</title>
<polygon fill="none" stroke="black" points="927.667,-778 843.667,-778 843.667,-742 927.667,-742 927.667,-778"/>
<text text-anchor="middle" x="885.667" y="-757.2" font-family="Courier,monospace" font-size="11.00">UploadFile</text>
</g>
<!-- \\Haldayne\\Customs\\UploadError -->
<g id="node15" class="node"><title>\\Haldayne\\Customs\\UploadError</title>
<polygon fill="none" stroke="black" points="931.167,-724 840.167,-724 840.167,-688 931.167,-688 931.167,-724"/>
<text text-anchor="middle" x="885.667" y="-703.2" font-family="Courier,monospace" font-size="11.00">UploadError</text>
</g>
<!-- \\Haldayne\\Customs\\UploadConfig -->
<g id="node16" class="node"><title>\\Haldayne\\Customs\\UploadConfig</title>
<polygon fill="none" stroke="black" points="934.667,-670 836.667,-670 836.667,-634 934.667,-634 934.667,-670"/>
<text text-anchor="middle" x="885.667" y="-649.2" font-family="Courier,monospace" font-size="11.00">UploadConfig</text>
</g>
<!-- \\Haldayne\\Customs\\UploadIterator -->
<g id="node17" class="node"><title>\\Haldayne\\Customs\\UploadIterator</title>
<polygon fill="none" stroke="black" points="941.167,-616 830.167,-616 830.167,-580 941.167,-580 941.167,-616"/>
<text text-anchor="middle" x="885.667" y="-595.2" font-family="Courier,monospace" font-size="11.00">UploadIterator</text>
</g>
<!-- \\Haldayne\\Customs\\UploadIterator&#45;&gt;\\ArrayAccess -->
<g id="edge7" class="edge"><title>\\Haldayne\\Customs\\UploadIterator&#45;&gt;\\ArrayAccess</title>
<path fill="none" stroke="black" stroke-dasharray="1,5" d="M830.149,-588.153C818.133,-584.208 806.055,-578.695 796.167,-571 602.649,-420.403 717.493,-230.43 510.479,-99 413.674,-37.5395 368.223,-80.798 253.893,-72"/>
<path fill="none" stroke="black" stroke-dasharray="1,5" d="M251.893,-72C227.521,-69.3671 168.632,-49.8143 126.469,-34.9872"/>
<polygon fill="none" stroke="black" points="127.54,-31.6534 116.945,-31.6185 125.205,-38.2528 127.54,-31.6534"/>
</g>
<!-- \\SeekableIterator -->
<g id="node27" class="node"><title>\\SeekableIterator</title>
<ellipse fill="none" stroke="black" cx="653.323" cy="-26" rx="70.6878" ry="18"/>
<text text-anchor="middle" x="653.323" y="-22.3" font-family="Times,serif" font-size="14.00" fill="gray">\SeekableIterator</text>
</g>
<!-- \\Haldayne\\Customs\\UploadIterator&#45;&gt;\\SeekableIterator -->
<g id="edge8" class="edge"><title>\\Haldayne\\Customs\\UploadIterator&#45;&gt;\\SeekableIterator</title>
<path fill="none" stroke="black" stroke-dasharray="1,5" d="M829.909,-591.562C817.176,-587.539 804.828,-581.137 796.167,-571 646.606,-395.958 861.718,-242.628 724.167,-58 720.297,-52.8059 715.382,-48.4309 709.958,-44.7511"/>
<polygon fill="none" stroke="black" points="711.483,-41.5876 701.092,-39.5231 707.928,-47.6174 711.483,-41.5876"/>
</g>
<!-- \\Haldayne\\Customs\\UploadIterator&#45;&gt;\\Countable -->
<g id="edge9" class="edge"><title>\\Haldayne\\Customs\\UploadIterator&#45;&gt;\\Countable</title>
<path fill="none" stroke="black" stroke-dasharray="1,5" d="M251.893,-72C214.032,-69.0865 171.355,-69.0609 137.936,-69.7763"/>
<polygon fill="none" stroke="black" points="137.789,-66.2787 127.877,-70.0197 137.959,-73.2767 137.789,-66.2787"/>
</g>
<!-- \\Haldayne\\Customs\\HtmlNameAccessorTrait -->
<g id="node18" class="node"><title>\\Haldayne\\Customs\\HtmlNameAccessorTrait</title>
<polygon fill="none" stroke="black" points="964.667,-562 806.667,-562 806.667,-526 964.667,-526 964.667,-562"/>
<text text-anchor="middle" x="885.667" y="-541.2" font-family="Courier,monospace" font-size="11.00">HtmlNameAccessorTrait</text>
</g>
<!-- \\Haldayne\\Fox\\Y -->
<g id="node19" class="node"><title>\\Haldayne\\Fox\\Y</title>
<polygon fill="none" stroke="black" points="912.667,-482 858.667,-482 858.667,-446 912.667,-446 912.667,-482"/>
<text text-anchor="middle" x="885.667" y="-461.2" font-family="Courier,monospace" font-size="11.00">Y</text>
</g>
<!-- \\Haldayne\\Fox\\Retry -->
<g id="node20" class="node"><title>\\Haldayne\\Fox\\Retry</title>
<polygon fill="none" stroke="black" points="912.667,-428 858.667,-428 858.667,-392 912.667,-392 912.667,-428"/>
<text text-anchor="middle" x="885.667" y="-407.2" font-family="Courier,monospace" font-size="11.00">Retry</text>
</g>
<!-- \\Haldayne\\Fox\\Expression -->
<g id="node21" class="node"><title>\\Haldayne\\Fox\\Expression</title>
<polygon fill="none" stroke="black" points="927.667,-374 843.667,-374 843.667,-338 927.667,-338 927.667,-374"/>
<text text-anchor="middle" x="885.667" y="-353.2" font-family="Courier,monospace" font-size="11.00">Expression</text>
</g>
<!-- \\Haldayne\\Fox\\Improve -->
<g id="node22" class="node"><title>\\Haldayne\\Fox\\Improve</title>
<polygon fill="none" stroke="black" points="917.667,-320 853.667,-320 853.667,-284 917.667,-284 917.667,-320"/>
<text text-anchor="middle" x="885.667" y="-299.2" font-family="Courier,monospace" font-size="11.00">Improve</text>
</g>
<!-- \\Haldayne\\Fox\\ExceptionToError -->
<g id="node23" class="node"><title>\\Haldayne\\Fox\\ExceptionToError</title>
<polygon fill="none" stroke="black" points="948.167,-266 823.167,-266 823.167,-230 948.167,-230 948.167,-266"/>
<text text-anchor="middle" x="885.667" y="-245.2" font-family="Courier,monospace" font-size="11.00">ExceptionToError</text>
</g>
<!-- \\Haldayne\\Fox\\CaptureErrors -->
<g id="node24" class="node"><title>\\Haldayne\\Fox\\CaptureErrors</title>
<polygon fill="none" stroke="black" points="937.667,-212 833.667,-212 833.667,-176 937.667,-176 937.667,-212"/>
<text text-anchor="middle" x="885.667" y="-191.2" font-family="Courier,monospace" font-size="11.00">CaptureErrors</text>
</g>
</g>
</svg>
