<?xml version="1.0" encoding="UTF-8" standalone="no"?>
<!DOCTYPE svg PUBLIC "-//W3C//DTD SVG 1.1//EN"
 "http://www.w3.org/Graphics/SVG/1.1/DTD/svg11.dtd">
<!-- Generated by graphviz version 2.38.0 (20140413.2041)
 -->
<!-- Title: G Pages: 1 -->
<svg width="805pt" height="832pt"
 viewBox="0.00 0.00 804.76 832.00" xmlns="http://www.w3.org/2000/svg" xmlns:xlink="http://www.w3.org/1999/xlink">
<g id="graph0" class="graph" transform="scale(1 1) rotate(0) translate(4 828)">
<title>G</title>
<polygon fill="white" stroke="none" points="-4,4 -4,-828 800.764,-828 800.764,4 -4,4"/>
<g id="clust1" class="cluster"><title>cluster_Global</title>
<path fill="none" stroke="gray" d="M20,-206C20,-206 776.764,-206 776.764,-206 782.764,-206 788.764,-212 788.764,-218 788.764,-218 788.764,-804 788.764,-804 788.764,-810 782.764,-816 776.764,-816 776.764,-816 20,-816 20,-816 14,-816 8,-810 8,-804 8,-804 8,-218 8,-218 8,-212 14,-206 20,-206"/>
<text text-anchor="middle" x="398.382" y="-803.2" font-family="Times,serif" font-size="11.00" fill="gray">Global</text>
</g>
<g id="clust2" class="cluster"><title>cluster_\Haldayne</title>
<path fill="none" stroke="gray" d="M28,-214C28,-214 768.764,-214 768.764,-214 774.764,-214 780.764,-220 780.764,-226 780.764,-226 780.764,-776 780.764,-776 780.764,-782 774.764,-788 768.764,-788 768.764,-788 28,-788 28,-788 22,-788 16,-782 16,-776 16,-776 16,-226 16,-226 16,-220 22,-214 28,-214"/>
<text text-anchor="middle" x="398.382" y="-775.2" font-family="Times,serif" font-size="11.00" fill="gray">Haldayne</text>
</g>
<g id="clust3" class="cluster"><title>cluster_\Haldayne\Customs</title>
<path fill="none" stroke="gray" d="M318.329,-472C318.329,-472 760.764,-472 760.764,-472 766.764,-472 772.764,-478 772.764,-484 772.764,-484 772.764,-748 772.764,-748 772.764,-754 766.764,-760 760.764,-760 760.764,-760 318.329,-760 318.329,-760 312.329,-760 306.329,-754 306.329,-748 306.329,-748 306.329,-484 306.329,-484 306.329,-478 312.329,-472 318.329,-472"/>
<text text-anchor="middle" x="539.546" y="-747.2" font-family="Times,serif" font-size="11.00" fill="gray">Customs</text>
</g>
<g id="clust4" class="cluster"><title>cluster_\Haldayne\Boost</title>
<path fill="none" stroke="gray" d="M36,-302C36,-302 730.264,-302 730.264,-302 736.264,-302 742.264,-308 742.264,-314 742.264,-314 742.264,-452 742.264,-452 742.264,-458 736.264,-464 730.264,-464 730.264,-464 36,-464 36,-464 30,-464 24,-458 24,-452 24,-452 24,-314 24,-314 24,-308 30,-302 36,-302"/>
<text text-anchor="middle" x="383.132" y="-451.2" font-family="Times,serif" font-size="11.00" fill="gray">Boost</text>
</g>
<g id="clust5" class="cluster"><title>cluster_\Haldayne\Boost\Contract</title>
<path fill="none" stroke="gray" d="M44,-310C44,-310 113,-310 113,-310 119,-310 125,-316 125,-322 125,-322 125,-424 125,-424 125,-430 119,-436 113,-436 113,-436 44,-436 44,-436 38,-436 32,-430 32,-424 32,-424 32,-322 32,-322 32,-316 38,-310 44,-310"/>
<text text-anchor="middle" x="78.5" y="-423.2" font-family="Times,serif" font-size="11.00" fill="gray">Contract</text>
</g>
<g id="clust6" class="cluster"><title>cluster_\Haldayne\DataStructure</title>
<path fill="none" stroke="gray" d="M644.264,-222C644.264,-222 747.264,-222 747.264,-222 753.264,-222 759.264,-228 759.264,-234 759.264,-234 759.264,-282 759.264,-282 759.264,-288 753.264,-294 747.264,-294 747.264,-294 644.264,-294 644.264,-294 638.264,-294 632.264,-288 632.264,-282 632.264,-282 632.264,-234 632.264,-234 632.264,-228 638.264,-222 644.264,-222"/>
<text text-anchor="middle" x="695.764" y="-281.2" font-family="Times,serif" font-size="11.00" fill="gray">DataStructure</text>
</g>
<!-- \\Haldayne\\Customs\\UploadException -->
<g id="node1" class="node"><title>\\Haldayne\\Customs\\UploadException</title>
<polygon fill="none" stroke="black" points="754.764,-624 636.764,-624 636.764,-588 754.764,-588 754.764,-624"/>
<text text-anchor="middle" x="695.764" y="-603.2" font-family="Courier,monospace" font-size="11.00">UploadException</text>
</g>
<!-- \\RuntimeException -->
<g id="node12" class="node"><title>\\RuntimeException</title>
<ellipse fill="none" stroke="black" cx="390.329" cy="-126" rx="79.0865" ry="18"/>
<text text-anchor="middle" x="390.329" y="-122.3" font-family="Times,serif" font-size="14.00" fill="gray">\RuntimeException</text>
</g>
<!-- \\Haldayne\\Customs\\UploadException&#45;&gt;\\RuntimeException -->
<g id="edge1" class="edge"><title>\\Haldayne\\Customs\\UploadException&#45;&gt;\\RuntimeException</title>
<path fill="none" stroke="black" d="M636.481,-588.104C632.862,-585.473 629.56,-582.457 626.764,-579 506.005,-429.707 690.793,-288.526 554.764,-153 534.17,-132.483 504.359,-123.958 475.819,-121.155"/>
<polygon fill="none" stroke="black" points="476.032,-117.661 465.795,-120.392 475.5,-124.641 476.032,-117.661"/>
</g>
<!-- \\Haldayne\\Customs\\UploadFile -->
<g id="node2" class="node"><title>\\Haldayne\\Customs\\UploadFile</title>
<polygon fill="none" stroke="black" points="737.764,-732 653.764,-732 653.764,-696 737.764,-696 737.764,-732"/>
<text text-anchor="middle" x="695.764" y="-711.2" font-family="Courier,monospace" font-size="11.00">UploadFile</text>
</g>
<!-- \\Haldayne\\Customs\\AbstractUploadEntity -->
<g id="node5" class="node"><title>\\Haldayne\\Customs\\AbstractUploadEntity</title>
<polygon fill="none" stroke="black" points="466.329,-732 314.329,-732 314.329,-696 466.329,-696 466.329,-732"/>
<text text-anchor="start" x="356.329" y="-717.2" font-family="Courier,monospace" font-size="11.00">«abstract»</text>
<text text-anchor="start" x="322.329" y="-705.2" font-family="Courier,monospace" font-size="11.00">AbstractUploadEntity</text>
</g>
<!-- \\Haldayne\\Customs\\UploadFile&#45;&gt;\\Haldayne\\Customs\\AbstractUploadEntity -->
<g id="edge2" class="edge"><title>\\Haldayne\\Customs\\UploadFile&#45;&gt;\\Haldayne\\Customs\\AbstractUploadEntity</title>
<path fill="none" stroke="black" d="M653.526,-714C608.278,-714 534.397,-714 476.573,-714"/>
<polygon fill="none" stroke="black" points="476.341,-710.5 466.341,-714 476.341,-717.5 476.341,-710.5"/>
</g>
<!-- \\Haldayne\\Customs\\UploadIteratorTest -->
<g id="node3" class="node"><title>\\Haldayne\\Customs\\UploadIteratorTest</title>
<polygon fill="none" stroke="black" points="764.764,-516 626.764,-516 626.764,-480 764.764,-480 764.764,-516"/>
<text text-anchor="middle" x="695.764" y="-495.2" font-family="Courier,monospace" font-size="11.00">UploadIteratorTest</text>
</g>
<!-- \\PHPUnit_Framework_TestCase -->
<g id="node13" class="node"><title>\\PHPUnit_Framework_TestCase</title>
<ellipse fill="none" stroke="black" cx="390.329" cy="-18" rx="126.978" ry="18"/>
<text text-anchor="middle" x="390.329" y="-14.3" font-family="Times,serif" font-size="14.00" fill="gray">\PHPUnit_Framework_TestCase</text>
</g>
<!-- \\Haldayne\\Customs\\UploadIteratorTest&#45;&gt;\\PHPUnit_Framework_TestCase -->
<g id="edge3" class="edge"><title>\\Haldayne\\Customs\\UploadIteratorTest&#45;&gt;\\PHPUnit_Framework_TestCase</title>
<path fill="none" stroke="black" d="M639.603,-479.789C634.749,-476.477 630.333,-472.58 626.764,-468 509.547,-317.574 689.94,-179.519 554.764,-45 546.085,-36.3626 535.771,-29.8515 524.607,-24.9983"/>
<polygon fill="none" stroke="black" points="525.636,-21.6437 515.047,-21.3013 523.112,-28.1725 525.636,-21.6437"/>
</g>
<!-- \\Haldayne\\Customs\\UploadError -->
<g id="node4" class="node"><title>\\Haldayne\\Customs\\UploadError</title>
<polygon fill="none" stroke="black" points="741.264,-570 650.264,-570 650.264,-534 741.264,-534 741.264,-570"/>
<text text-anchor="middle" x="695.764" y="-549.2" font-family="Courier,monospace" font-size="11.00">UploadError</text>
</g>
<!-- \\Haldayne\\Customs\\AbstractdUploadEntity -->
<g id="node14" class="node"><title>\\Haldayne\\Customs\\AbstractdUploadEntity</title>
<ellipse fill="none" stroke="black" cx="390.329" cy="-72" rx="164.371" ry="18"/>
<text text-anchor="middle" x="390.329" y="-68.3" font-family="Times,serif" font-size="14.00" fill="gray">\Haldayne\Customs\AbstractdUploadEntity</text>
</g>
<!-- \\Haldayne\\Customs\\UploadError&#45;&gt;\\Haldayne\\Customs\\AbstractdUploadEntity -->
<g id="edge4" class="edge"><title>\\Haldayne\\Customs\\UploadError&#45;&gt;\\Haldayne\\Customs\\AbstractdUploadEntity</title>
<path fill="none" stroke="black" d="M650.19,-541.858C641.295,-537.934 632.835,-532.506 626.764,-525 506.005,-375.707 690.793,-234.526 554.764,-99 550.018,-94.2712 544.782,-90.1796 539.185,-86.6481"/>
<polygon fill="none" stroke="black" points="540.543,-83.3965 530.11,-81.5489 537.113,-89.4991 540.543,-83.3965"/>
</g>
<!-- \\Haldayne\\Customs\\UploadIterator -->
<g id="node6" class="node"><title>\\Haldayne\\Customs\\UploadIterator</title>
<polygon fill="none" stroke="black" points="751.264,-678 640.264,-678 640.264,-642 751.264,-642 751.264,-678"/>
<text text-anchor="middle" x="695.764" y="-657.2" font-family="Courier,monospace" font-size="11.00">UploadIterator</text>
</g>
<!-- \\ArrayAccess -->
<g id="node15" class="node"><title>\\ArrayAccess</title>
<ellipse fill="none" stroke="black" cx="78.5" cy="-126" rx="58.4896" ry="18"/>
<text text-anchor="middle" x="78.5" y="-122.3" font-family="Times,serif" font-size="14.00" fill="gray">\ArrayAccess</text>
</g>
<!-- \\Haldayne\\Customs\\UploadIterator&#45;&gt;\\ArrayAccess -->
<g id="edge5" class="edge"><title>\\Haldayne\\Customs\\UploadIterator&#45;&gt;\\ArrayAccess</title>
<path fill="none" stroke="black" stroke-dasharray="1,5" d="M389.329,-226C360.718,-203.233 259.854,-220.549 225.893,-207 188.741,-192.177 189.076,-172.03 153.893,-153 146.51,-149.006 138.414,-145.381 130.365,-142.176"/>
<polygon fill="none" stroke="black" points="131.576,-138.892 120.985,-138.609 129.088,-145.435 131.576,-138.892"/>
</g>
<!-- \\SeekableIterator -->
<g id="node16" class="node"><title>\\SeekableIterator</title>
<ellipse fill="none" stroke="black" cx="390.329" cy="-180" rx="70.6878" ry="18"/>
<text text-anchor="middle" x="390.329" y="-176.3" font-family="Times,serif" font-size="14.00" fill="gray">\SeekableIterator</text>
</g>
<!-- \\Haldayne\\Customs\\UploadIterator&#45;&gt;\\SeekableIterator -->
<g id="edge6" class="edge"><title>\\Haldayne\\Customs\\UploadIterator&#45;&gt;\\SeekableIterator</title>
<path fill="none" stroke="black" stroke-dasharray="1,5" d="M639.989,-644.466C634.996,-641.319 630.443,-637.539 626.764,-633 507.239,-485.527 687.374,-347.827 554.764,-212 532.988,-189.696 500.567,-180.502 470.328,-177.333"/>
<polygon fill="none" stroke="black" points="470.434,-173.829 460.176,-176.479 469.847,-180.805 470.434,-173.829"/>
</g>
<!-- \\Countable -->
<g id="node17" class="node"><title>\\Countable</title>
<ellipse fill="none" stroke="black" cx="78.5" cy="-72" rx="49.2915" ry="18"/>
<text text-anchor="middle" x="78.5" y="-68.3" font-family="Times,serif" font-size="14.00" fill="gray">\Countable</text>
</g>
<!-- \\Haldayne\\Customs\\UploadIterator&#45;&gt;\\Countable -->
<g id="edge7" class="edge"><title>\\Haldayne\\Customs\\UploadIterator&#45;&gt;\\Countable</title>
<path fill="none" stroke="black" stroke-dasharray="1,5" d="M640.181,-644.306C635.152,-641.19 630.538,-637.46 626.764,-633 528.393,-516.746 650.968,-416.054 554.764,-298 504.622,-236.469 453.438,-275.424 391.329,-226"/>
<path fill="none" stroke="black" stroke-dasharray="1,5" d="M389.329,-226C332.108,-180.466 288.264,-245.177 225.893,-207 176.69,-176.883 199.273,-134.619 153.893,-99 146.826,-93.4527 138.515,-88.9776 130.057,-85.389"/>
<polygon fill="none" stroke="black" points="131.094,-82.0375 120.504,-81.7041 128.574,-88.5685 131.094,-82.0375"/>
</g>
<!-- \\Haldayne\\Boost\\Contract\\Arrayable -->
<g id="node7" class="node"><title>\\Haldayne\\Boost\\Contract\\Arrayable</title>
<polygon fill="none" stroke="black" points="117,-354 40,-354 40,-318 117,-318 117,-354"/>
<text text-anchor="middle" x="78.5" y="-333.2" font-family="Courier,monospace" font-size="11.00">Arrayable</text>
</g>
<!-- \\Haldayne\\Boost\\Contract\\Jsonable -->
<g id="node8" class="node"><title>\\Haldayne\\Boost\\Contract\\Jsonable</title>
<polygon fill="none" stroke="black" points="114,-408 43,-408 43,-372 114,-372 114,-408"/>
<text text-anchor="middle" x="78.5" y="-387.2" font-family="Courier,monospace" font-size="11.00">Jsonable</text>
</g>
<!-- \\Haldayne\\Boost\\Map -->
<g id="node9" class="node"><title>\\Haldayne\\Boost\\Map</title>
<polygon fill="none" stroke="black" points="417.329,-346 363.329,-346 363.329,-310 417.329,-310 417.329,-346"/>
<text text-anchor="middle" x="390.329" y="-325.2" font-family="Courier,monospace" font-size="11.00">Map</text>
</g>
<!-- \\Haldayne\\Boost\\Map&#45;&gt;\\Haldayne\\Boost\\Contract\\Arrayable -->
<g id="edge10" class="edge"><title>\\Haldayne\\Boost\\Map&#45;&gt;\\Haldayne\\Boost\\Contract\\Arrayable</title>
<path fill="none" stroke="black" stroke-dasharray="1,5" d="M363.18,-328.675C311.042,-330.021 193.476,-333.057 127.223,-334.768"/>
<polygon fill="none" stroke="black" points="126.955,-331.273 117.048,-335.03 127.135,-338.271 126.955,-331.273"/>
</g>
<!-- \\Haldayne\\Boost\\Map&#45;&gt;\\Haldayne\\Boost\\Contract\\Jsonable -->
<g id="edge11" class="edge"><title>\\Haldayne\\Boost\\Map&#45;&gt;\\Haldayne\\Boost\\Contract\\Jsonable</title>
<path fill="none" stroke="black" stroke-dasharray="1,5" d="M363.18,-333.233C310.28,-343.818 190.027,-367.882 124.353,-381.025"/>
<polygon fill="none" stroke="black" points="123.418,-377.642 114.3,-383.036 124.792,-384.506 123.418,-377.642"/>
</g>
<!-- \\Haldayne\\Boost\\Map&#45;&gt;\\ArrayAccess -->
<g id="edge12" class="edge"><title>\\Haldayne\\Boost\\Map&#45;&gt;\\ArrayAccess</title>
<path fill="none" stroke="black" stroke-dasharray="1,5" d="M363.113,-317.64C329.176,-303.428 269.257,-275.549 225.893,-240 187.078,-208.18 194.922,-181.909 153.893,-153 147.496,-148.493 140.264,-144.655 132.884,-141.411"/>
<polygon fill="none" stroke="black" points="134.092,-138.124 123.509,-137.615 131.464,-144.612 134.092,-138.124"/>
</g>
<!-- \\Haldayne\\Boost\\Map&#45;&gt;\\Countable -->
<g id="edge9" class="edge"><title>\\Haldayne\\Boost\\Map&#45;&gt;\\Countable</title>
<path fill="none" stroke="black" stroke-dasharray="1,5" d="M363.043,-319.467C327.933,-306.931 265.559,-280.54 225.893,-240 176.684,-189.706 206.635,-145.577 153.893,-99 147.234,-93.1188 139.192,-88.486 130.891,-84.8462"/>
<polygon fill="none" stroke="black" points="132.056,-81.5436 121.469,-81.145 129.497,-88.0589 132.056,-81.5436"/>
</g>
<!-- \\IteratorAggregate -->
<g id="node18" class="node"><title>\\IteratorAggregate</title>
<ellipse fill="none" stroke="black" cx="78.5" cy="-180" rx="75.2868" ry="18"/>
<text text-anchor="middle" x="78.5" y="-176.3" font-family="Times,serif" font-size="14.00" fill="gray">\IteratorAggregate</text>
</g>
<!-- \\Haldayne\\Boost\\Map&#45;&gt;\\IteratorAggregate -->
<g id="edge13" class="edge"><title>\\Haldayne\\Boost\\Map&#45;&gt;\\IteratorAggregate</title>
<path fill="none" stroke="black" stroke-dasharray="1,5" d="M363.18,-315.509C309.784,-290.003 187.767,-231.717 122.521,-200.55"/>
<polygon fill="none" stroke="black" points="123.853,-197.308 113.321,-196.156 120.836,-203.624 123.853,-197.308"/>
</g>
<!-- \\Haldayne\\Boost\\MapOfMaps -->
<g id="node10" class="node"><title>\\Haldayne\\Boost\\MapOfMaps</title>
<polygon fill="none" stroke="black" points="734.264,-346 657.264,-346 657.264,-310 734.264,-310 734.264,-346"/>
<text text-anchor="middle" x="695.764" y="-325.2" font-family="Courier,monospace" font-size="11.00">MapOfMaps</text>
</g>
<!-- \\Haldayne\\Boost\\MapOfMaps&#45;&gt;\\Haldayne\\Boost\\Map -->
<g id="edge14" class="edge"><title>\\Haldayne\\Boost\\MapOfMaps&#45;&gt;\\Haldayne\\Boost\\Map</title>
<path fill="none" stroke="black" d="M657.253,-328C598.589,-328 485.853,-328 427.822,-328"/>
<polygon fill="none" stroke="black" points="427.648,-324.5 417.648,-328 427.648,-331.5 427.648,-324.5"/>
</g>
<!-- \\Haldayne\\DataStructure\\CollectionTest -->
<g id="node11" class="node"><title>\\Haldayne\\DataStructure\\CollectionTest</title>
<polygon fill="none" stroke="black" points="751.264,-266 640.264,-266 640.264,-230 751.264,-230 751.264,-266"/>
<text text-anchor="middle" x="695.764" y="-245.2" font-family="Courier,monospace" font-size="11.00">CollectionTest</text>
</g>
<!-- \\Haldayne\\DataStructure\\CollectionTest&#45;&gt;\\PHPUnit_Framework_TestCase -->
<g id="edge8" class="edge"><title>\\Haldayne\\DataStructure\\CollectionTest&#45;&gt;\\PHPUnit_Framework_TestCase</title>
<path fill="none" stroke="black" d="M688.097,-229.998C672.068,-189.461 627.244,-90.9866 554.764,-45 543.137,-37.6232 530.143,-32.0612 516.699,-27.8934"/>
<polygon fill="none" stroke="black" points="517.419,-24.4596 506.843,-25.0989 515.509,-31.1941 517.419,-24.4596"/>
</g>
</g>
</svg>
