<?xml version="1.0" encoding="UTF-8" standalone="no"?>
<!DOCTYPE svg PUBLIC "-//W3C//DTD SVG 1.1//EN"
 "http://www.w3.org/Graphics/SVG/1.1/DTD/svg11.dtd">
<!-- Generated by graphviz version 2.38.0 (20140413.2041)
 -->
<!-- Title: G Pages: 1 -->
<svg width="1015pt" height="824pt"
 viewBox="0.00 0.00 1015.17 824.00" xmlns="http://www.w3.org/2000/svg" xmlns:xlink="http://www.w3.org/1999/xlink">
<g id="graph0" class="graph" transform="scale(1 1) rotate(0) translate(4 820)">
<title>G</title>
<polygon fill="white" stroke="none" points="-4,4 -4,-820 1011.17,-820 1011.17,4 -4,4"/>
<g id="clust1" class="cluster"><title>cluster_Global</title>
<path fill="none" stroke="gray" d="M20,-152C20,-152 987.167,-152 987.167,-152 993.167,-152 999.167,-158 999.167,-164 999.167,-164 999.167,-796 999.167,-796 999.167,-802 993.167,-808 987.167,-808 987.167,-808 20,-808 20,-808 14,-808 8,-802 8,-796 8,-796 8,-164 8,-164 8,-158 14,-152 20,-152"/>
<text text-anchor="middle" x="503.583" y="-795.2" font-family="Times,serif" font-size="11.00" fill="gray">Global</text>
</g>
<g id="clust2" class="cluster"><title>cluster_\Haldayne</title>
<path fill="none" stroke="gray" d="M28,-160C28,-160 979.167,-160 979.167,-160 985.167,-160 991.167,-166 991.167,-172 991.167,-172 991.167,-768 991.167,-768 991.167,-774 985.167,-780 979.167,-780 979.167,-780 28,-780 28,-780 22,-780 16,-774 16,-768 16,-768 16,-172 16,-172 16,-166 22,-160 28,-160"/>
<text text-anchor="middle" x="503.583" y="-767.2" font-family="Times,serif" font-size="11.00" fill="gray">Haldayne</text>
</g>
<g id="clust3" class="cluster"><title>cluster_\Haldayne\Boost</title>
<path fill="none" stroke="gray" d="M36,-572C36,-572 927.167,-572 927.167,-572 933.167,-572 939.167,-578 939.167,-584 939.167,-584 939.167,-740 939.167,-740 939.167,-746 933.167,-752 927.167,-752 927.167,-752 36,-752 36,-752 30,-752 24,-746 24,-740 24,-740 24,-584 24,-584 24,-578 30,-572 36,-572"/>
<text text-anchor="middle" x="481.583" y="-739.2" font-family="Times,serif" font-size="11.00" fill="gray">Boost</text>
</g>
<g id="clust4" class="cluster"><title>cluster_\Haldayne\Boost\Contract</title>
<path fill="none" stroke="gray" d="M44,-580C44,-580 113,-580 113,-580 119,-580 125,-586 125,-592 125,-592 125,-694 125,-694 125,-700 119,-706 113,-706 113,-706 44,-706 44,-706 38,-706 32,-700 32,-694 32,-694 32,-592 32,-592 32,-586 38,-580 44,-580"/>
<text text-anchor="middle" x="78.5" y="-693.2" font-family="Times,serif" font-size="11.00" fill="gray">Contract</text>
</g>
<g id="clust5" class="cluster"><title>cluster_\Haldayne\Customs</title>
<path fill="none" stroke="gray" d="M598.323,-168C598.323,-168 971.167,-168 971.167,-168 977.167,-168 983.167,-174 983.167,-180 983.167,-180 983.167,-552 983.167,-552 983.167,-558 977.167,-564 971.167,-564 971.167,-564 598.323,-564 598.323,-564 592.323,-564 586.323,-558 586.323,-552 586.323,-552 586.323,-180 586.323,-180 586.323,-174 592.323,-168 598.323,-168"/>
<text text-anchor="middle" x="784.745" y="-551.2" font-family="Times,serif" font-size="11.00" fill="gray">Customs</text>
</g>
<!-- \\Haldayne\\Boost\\Contract\\Arrayable -->
<g id="node1" class="node"><title>\\Haldayne\\Boost\\Contract\\Arrayable</title>
<polygon fill="none" stroke="black" points="117,-678 40,-678 40,-642 117,-642 117,-678"/>
<text text-anchor="middle" x="78.5" y="-657.2" font-family="Courier,monospace" font-size="11.00">Arrayable</text>
</g>
<!-- \\Haldayne\\Boost\\Contract\\Jsonable -->
<g id="node2" class="node"><title>\\Haldayne\\Boost\\Contract\\Jsonable</title>
<polygon fill="none" stroke="black" points="114,-624 43,-624 43,-588 114,-588 114,-624"/>
<text text-anchor="middle" x="78.5" y="-603.2" font-family="Courier,monospace" font-size="11.00">Jsonable</text>
</g>
<!-- \\Haldayne\\Boost\\MapOfStrings -->
<g id="node3" class="node"><title>\\Haldayne\\Boost\\MapOfStrings</title>
<polygon fill="none" stroke="black" points="702.323,-670 604.323,-670 604.323,-634 702.323,-634 702.323,-670"/>
<text text-anchor="middle" x="653.323" y="-649.2" font-family="Courier,monospace" font-size="11.00">MapOfStrings</text>
</g>
<!-- \\Haldayne\\Boost\\GuardedMapAbstract -->
<g id="node6" class="node"><title>\\Haldayne\\Boost\\GuardedMapAbstract</title>
<polygon fill="none" stroke="black" points="500.186,-647 362.186,-647 362.186,-611 500.186,-611 500.186,-647"/>
<text text-anchor="start" x="397.186" y="-632.2" font-family="Courier,monospace" font-size="11.00">«abstract»</text>
<text text-anchor="start" x="370.186" y="-620.2" font-family="Courier,monospace" font-size="11.00">GuardedMapAbstract</text>
</g>
<!-- \\Haldayne\\Boost\\MapOfStrings&#45;&gt;\\Haldayne\\Boost\\GuardedMapAbstract -->
<g id="edge1" class="edge"><title>\\Haldayne\\Boost\\MapOfStrings&#45;&gt;\\Haldayne\\Boost\\GuardedMapAbstract</title>
<path fill="none" stroke="black" d="M604.285,-646.981C576.888,-644.118 541.878,-640.461 510.596,-637.192"/>
<polygon fill="none" stroke="black" points="510.895,-633.705 500.585,-636.146 510.167,-640.667 510.895,-633.705"/>
</g>
<!-- \\Haldayne\\Boost\\MapOfFloats -->
<g id="node4" class="node"><title>\\Haldayne\\Boost\\MapOfFloats</title>
<polygon fill="none" stroke="black" points="931.167,-670 840.167,-670 840.167,-634 931.167,-634 931.167,-670"/>
<text text-anchor="middle" x="885.667" y="-649.2" font-family="Courier,monospace" font-size="11.00">MapOfFloats</text>
</g>
<!-- \\Haldayne\\Boost\\MapOfNumerics -->
<g id="node7" class="node"><title>\\Haldayne\\Boost\\MapOfNumerics</title>
<polygon fill="none" stroke="black" points="705.323,-616 601.323,-616 601.323,-580 705.323,-580 705.323,-616"/>
<text text-anchor="middle" x="653.323" y="-595.2" font-family="Courier,monospace" font-size="11.00">MapOfNumerics</text>
</g>
<!-- \\Haldayne\\Boost\\MapOfFloats&#45;&gt;\\Haldayne\\Boost\\MapOfNumerics -->
<g id="edge4" class="edge"><title>\\Haldayne\\Boost\\MapOfFloats&#45;&gt;\\Haldayne\\Boost\\MapOfNumerics</title>
<path fill="none" stroke="black" d="M839.981,-641.524C804.672,-633.247 755.002,-621.602 715.921,-612.441"/>
<polygon fill="none" stroke="black" points="716.25,-608.923 705.715,-610.048 714.652,-615.738 716.25,-608.923"/>
</g>
<!-- \\Haldayne\\Boost\\MapOfInts -->
<g id="node5" class="node"><title>\\Haldayne\\Boost\\MapOfInts</title>
<polygon fill="none" stroke="black" points="924.167,-616 847.167,-616 847.167,-580 924.167,-580 924.167,-616"/>
<text text-anchor="middle" x="885.667" y="-595.2" font-family="Courier,monospace" font-size="11.00">MapOfInts</text>
</g>
<!-- \\Haldayne\\Boost\\MapOfInts&#45;&gt;\\Haldayne\\Boost\\MapOfNumerics -->
<g id="edge5" class="edge"><title>\\Haldayne\\Boost\\MapOfInts&#45;&gt;\\Haldayne\\Boost\\MapOfNumerics</title>
<path fill="none" stroke="black" d="M847.145,-598C811.578,-598 757.518,-598 715.68,-598"/>
<polygon fill="none" stroke="black" points="715.598,-594.5 705.598,-598 715.598,-601.5 715.598,-594.5"/>
</g>
<!-- \\Haldayne\\Boost\\Map -->
<g id="node9" class="node"><title>\\Haldayne\\Boost\\Map</title>
<polygon fill="none" stroke="black" points="279.893,-620 225.893,-620 225.893,-584 279.893,-584 279.893,-620"/>
<text text-anchor="middle" x="252.893" y="-599.2" font-family="Courier,monospace" font-size="11.00">Map</text>
</g>
<!-- \\Haldayne\\Boost\\GuardedMapAbstract&#45;&gt;\\Haldayne\\Boost\\Map -->
<g id="edge6" class="edge"><title>\\Haldayne\\Boost\\GuardedMapAbstract&#45;&gt;\\Haldayne\\Boost\\Map</title>
<path fill="none" stroke="black" d="M362.027,-618.561C337.492,-614.803 310.776,-610.712 290.038,-607.536"/>
<polygon fill="none" stroke="black" points="290.493,-604.065 280.078,-606.01 289.433,-610.984 290.493,-604.065"/>
</g>
<!-- \\Haldayne\\Boost\\MapOfNumerics&#45;&gt;\\Haldayne\\Boost\\GuardedMapAbstract -->
<g id="edge11" class="edge"><title>\\Haldayne\\Boost\\MapOfNumerics&#45;&gt;\\Haldayne\\Boost\\GuardedMapAbstract</title>
<path fill="none" stroke="black" d="M601.266,-605.19C574.335,-608.982 540.713,-613.717 510.56,-617.963"/>
<polygon fill="none" stroke="black" points="509.896,-614.522 500.482,-619.383 510.872,-621.454 509.896,-614.522"/>
</g>
<!-- \\Haldayne\\Boost\\MapOfCollections -->
<g id="node8" class="node"><title>\\Haldayne\\Boost\\MapOfCollections</title>
<polygon fill="none" stroke="black" points="715.823,-724 590.823,-724 590.823,-688 715.823,-688 715.823,-724"/>
<text text-anchor="middle" x="653.323" y="-703.2" font-family="Courier,monospace" font-size="11.00">MapOfCollections</text>
</g>
<!-- \\Haldayne\\Boost\\MapOfCollections&#45;&gt;\\Haldayne\\Boost\\GuardedMapAbstract -->
<g id="edge12" class="edge"><title>\\Haldayne\\Boost\\MapOfCollections&#45;&gt;\\Haldayne\\Boost\\GuardedMapAbstract</title>
<path fill="none" stroke="black" d="M600.711,-687.947C568.672,-676.74 527.324,-662.277 493.603,-650.482"/>
<polygon fill="none" stroke="black" points="494.451,-647.071 483.856,-647.073 492.14,-653.679 494.451,-647.071"/>
</g>
<!-- \\Haldayne\\Boost\\Map&#45;&gt;\\Haldayne\\Boost\\Contract\\Arrayable -->
<g id="edge14" class="edge"><title>\\Haldayne\\Boost\\Map&#45;&gt;\\Haldayne\\Boost\\Contract\\Arrayable</title>
<path fill="none" stroke="black" stroke-dasharray="1,5" d="M225.71,-610.809C199.504,-619.626 158.606,-633.386 126.721,-644.113"/>
<polygon fill="none" stroke="black" points="125.503,-640.83 117.141,-647.336 127.735,-647.465 125.503,-640.83"/>
</g>
<!-- \\Haldayne\\Boost\\Map&#45;&gt;\\Haldayne\\Boost\\Contract\\Jsonable -->
<g id="edge15" class="edge"><title>\\Haldayne\\Boost\\Map&#45;&gt;\\Haldayne\\Boost\\Contract\\Jsonable</title>
<path fill="none" stroke="black" stroke-dasharray="1,5" d="M225.71,-602.608C198.852,-603.231 156.562,-604.212 124.358,-604.959"/>
<polygon fill="none" stroke="black" points="124.205,-601.462 114.289,-605.193 124.368,-608.46 124.205,-601.462"/>
</g>
<!-- \\ArrayAccess -->
<g id="node19" class="node"><title>\\ArrayAccess</title>
<ellipse fill="none" stroke="black" cx="78.5" cy="-18" rx="58.4896" ry="18"/>
<text text-anchor="middle" x="78.5" y="-14.3" font-family="Times,serif" font-size="14.00" fill="gray">\ArrayAccess</text>
</g>
<!-- \\Haldayne\\Boost\\Map&#45;&gt;\\ArrayAccess -->
<g id="edge16" class="edge"><title>\\Haldayne\\Boost\\Map&#45;&gt;\\ArrayAccess</title>
<path fill="none" stroke="black" stroke-dasharray="1,5" d="M251.083,-583.775C246.894,-497.387 225.076,-129.786 153.893,-45 149.441,-39.6974 143.86,-35.4362 137.766,-32.0119"/>
<polygon fill="none" stroke="black" points="139.07,-28.7556 128.542,-27.5698 136.033,-35.0623 139.07,-28.7556"/>
</g>
<!-- \\Countable -->
<g id="node21" class="node"><title>\\Countable</title>
<ellipse fill="none" stroke="black" cx="78.5" cy="-72" rx="49.2915" ry="18"/>
<text text-anchor="middle" x="78.5" y="-68.3" font-family="Times,serif" font-size="14.00" fill="gray">\Countable</text>
</g>
<!-- \\Haldayne\\Boost\\Map&#45;&gt;\\Countable -->
<g id="edge13" class="edge"><title>\\Haldayne\\Boost\\Map&#45;&gt;\\Countable</title>
<path fill="none" stroke="black" stroke-dasharray="1,5" d="M250.718,-583.936C245.116,-503.041 218.658,-174.727 153.893,-99 148.245,-92.3955 140.846,-87.4064 132.907,-83.6376"/>
<polygon fill="none" stroke="black" points="133.992,-80.2999 123.412,-79.7503 131.34,-86.7781 133.992,-80.2999"/>
</g>
<!-- \\IteratorAggregate -->
<g id="node22" class="node"><title>\\IteratorAggregate</title>
<ellipse fill="none" stroke="black" cx="78.5" cy="-126" rx="75.2868" ry="18"/>
<text text-anchor="middle" x="78.5" y="-122.3" font-family="Times,serif" font-size="14.00" fill="gray">\IteratorAggregate</text>
</g>
<!-- \\Haldayne\\Boost\\Map&#45;&gt;\\IteratorAggregate -->
<g id="edge17" class="edge"><title>\\Haldayne\\Boost\\Map&#45;&gt;\\IteratorAggregate</title>
<path fill="none" stroke="black" stroke-dasharray="1,5" d="M245.346,-583.921C219.078,-511.394 121.234,-241.233 89.5036,-153.621"/>
<polygon fill="none" stroke="black" points="92.7502,-152.307 86.054,-144.097 86.1685,-154.691 92.7502,-152.307"/>
</g>
<!-- \\Haldayne\\Customs\\UploadException -->
<g id="node10" class="node"><title>\\Haldayne\\Customs\\UploadException</title>
<polygon fill="none" stroke="black" points="712.323,-482 594.323,-482 594.323,-446 712.323,-446 712.323,-482"/>
<text text-anchor="middle" x="653.323" y="-461.2" font-family="Courier,monospace" font-size="11.00">UploadException</text>
</g>
<!-- \\RuntimeException -->
<g id="node18" class="node"><title>\\RuntimeException</title>
<ellipse fill="none" stroke="black" cx="431.186" cy="-126" rx="79.0865" ry="18"/>
<text text-anchor="middle" x="431.186" y="-122.3" font-family="Times,serif" font-size="14.00" fill="gray">\RuntimeException</text>
</g>
<!-- \\Haldayne\\Customs\\UploadException&#45;&gt;\\RuntimeException -->
<g id="edge2" class="edge"><title>\\Haldayne\\Customs\\UploadException&#45;&gt;\\RuntimeException</title>
<path fill="none" stroke="black" d="M640.487,-445.828C603.896,-389.645 492.473,-218.565 449.419,-152.46"/>
<polygon fill="none" stroke="black" points="452.203,-150.321 443.813,-143.852 446.338,-154.142 452.203,-150.321"/>
</g>
<!-- \\Haldayne\\Customs\\ServerProblemException -->
<g id="node11" class="node"><title>\\Haldayne\\Customs\\ServerProblemException</title>
<polygon fill="none" stroke="black" points="968.167,-536 803.167,-536 803.167,-500 968.167,-500 968.167,-536"/>
<text text-anchor="middle" x="885.667" y="-515.2" font-family="Courier,monospace" font-size="11.00">ServerProblemException</text>
</g>
<!-- \\Haldayne\\Customs\\ServerProblemException&#45;&gt;\\Haldayne\\Customs\\UploadException -->
<g id="edge3" class="edge"><title>\\Haldayne\\Customs\\ServerProblemException&#45;&gt;\\Haldayne\\Customs\\UploadException</title>
<path fill="none" stroke="black" d="M807.645,-499.944C780.16,-493.5 749.407,-486.291 722.7,-480.03"/>
<polygon fill="none" stroke="black" points="723.212,-476.555 712.677,-477.68 721.614,-483.37 723.212,-476.555"/>
</g>
<!-- \\Haldayne\\Customs\\SecurityConcernException -->
<g id="node12" class="node"><title>\\Haldayne\\Customs\\SecurityConcernException</title>
<polygon fill="none" stroke="black" points="975.167,-482 796.167,-482 796.167,-446 975.167,-446 975.167,-482"/>
<text text-anchor="middle" x="885.667" y="-461.2" font-family="Courier,monospace" font-size="11.00">SecurityConcernException</text>
</g>
<!-- \\Haldayne\\Customs\\SecurityConcernException&#45;&gt;\\Haldayne\\Customs\\UploadException -->
<g id="edge7" class="edge"><title>\\Haldayne\\Customs\\SecurityConcernException&#45;&gt;\\Haldayne\\Customs\\UploadException</title>
<path fill="none" stroke="black" d="M795.939,-464C771.541,-464 745.469,-464 722.432,-464"/>
<polygon fill="none" stroke="black" points="722.419,-460.5 712.419,-464 722.419,-467.5 722.419,-460.5"/>
</g>
<!-- \\Haldayne\\Customs\\UploadFile -->
<g id="node13" class="node"><title>\\Haldayne\\Customs\\UploadFile</title>
<polygon fill="none" stroke="black" points="927.667,-428 843.667,-428 843.667,-392 927.667,-392 927.667,-428"/>
<text text-anchor="middle" x="885.667" y="-407.2" font-family="Courier,monospace" font-size="11.00">UploadFile</text>
</g>
<!-- \\Haldayne\\Customs\\UploadError -->
<g id="node14" class="node"><title>\\Haldayne\\Customs\\UploadError</title>
<polygon fill="none" stroke="black" points="931.167,-374 840.167,-374 840.167,-338 931.167,-338 931.167,-374"/>
<text text-anchor="middle" x="885.667" y="-353.2" font-family="Courier,monospace" font-size="11.00">UploadError</text>
</g>
<!-- \\Haldayne\\Customs\\UploadConfig -->
<g id="node15" class="node"><title>\\Haldayne\\Customs\\UploadConfig</title>
<polygon fill="none" stroke="black" points="934.667,-320 836.667,-320 836.667,-284 934.667,-284 934.667,-320"/>
<text text-anchor="middle" x="885.667" y="-299.2" font-family="Courier,monospace" font-size="11.00">UploadConfig</text>
</g>
<!-- \\Haldayne\\Customs\\UploadIterator -->
<g id="node16" class="node"><title>\\Haldayne\\Customs\\UploadIterator</title>
<polygon fill="none" stroke="black" points="941.167,-266 830.167,-266 830.167,-230 941.167,-230 941.167,-266"/>
<text text-anchor="middle" x="885.667" y="-245.2" font-family="Courier,monospace" font-size="11.00">UploadIterator</text>
</g>
<!-- \\Haldayne\\Customs\\UploadIterator&#45;&gt;\\ArrayAccess -->
<g id="edge8" class="edge"><title>\\Haldayne\\Customs\\UploadIterator&#45;&gt;\\ArrayAccess</title>
<path fill="none" stroke="black" stroke-dasharray="1,5" d="M830.087,-238.233C818.074,-234.284 806.012,-228.75 796.167,-221 746.695,-182.057 777.924,-131.774 724.167,-99 545.413,9.97963 462.631,-88.0629 253.893,-72"/>
<path fill="none" stroke="black" stroke-dasharray="1,5" d="M251.893,-72C239.279,-71.4194 174.312,-50.1992 127.853,-34.537"/>
<polygon fill="none" stroke="black" points="128.839,-31.1761 118.245,-31.2887 126.597,-37.8073 128.839,-31.1761"/>
</g>
<!-- \\SeekableIterator -->
<g id="node20" class="node"><title>\\SeekableIterator</title>
<ellipse fill="none" stroke="black" cx="653.323" cy="-126" rx="70.6878" ry="18"/>
<text text-anchor="middle" x="653.323" y="-122.3" font-family="Times,serif" font-size="14.00" fill="gray">\SeekableIterator</text>
</g>
<!-- \\Haldayne\\Customs\\UploadIterator&#45;&gt;\\SeekableIterator -->
<g id="edge9" class="edge"><title>\\Haldayne\\Customs\\UploadIterator&#45;&gt;\\SeekableIterator</title>
<path fill="none" stroke="black" stroke-dasharray="1,5" d="M830.04,-234.833C818.531,-231.104 806.695,-226.52 796.167,-221 760.019,-202.049 758.217,-186.502 724.167,-164 715.177,-158.06 705.177,-152.209 695.617,-146.946"/>
<polygon fill="none" stroke="black" points="697.097,-143.767 686.635,-142.096 693.771,-149.926 697.097,-143.767"/>
</g>
<!-- \\Haldayne\\Customs\\UploadIterator&#45;&gt;\\Countable -->
<g id="edge10" class="edge"><title>\\Haldayne\\Customs\\UploadIterator&#45;&gt;\\Countable</title>
<path fill="none" stroke="black" stroke-dasharray="1,5" d="M251.893,-72C214.032,-69.0865 171.355,-69.0609 137.936,-69.7763"/>
<polygon fill="none" stroke="black" points="137.789,-66.2787 127.877,-70.0197 137.959,-73.2767 137.789,-66.2787"/>
</g>
<!-- \\Haldayne\\Customs\\HtmlNameAccessorTrait -->
<g id="node17" class="node"><title>\\Haldayne\\Customs\\HtmlNameAccessorTrait</title>
<polygon fill="none" stroke="black" points="964.667,-212 806.667,-212 806.667,-176 964.667,-176 964.667,-212"/>
<text text-anchor="middle" x="885.667" y="-191.2" font-family="Courier,monospace" font-size="11.00">HtmlNameAccessorTrait</text>
</g>
</g>
</svg>
