<?xml version="1.0" encoding="UTF-8" standalone="no"?>
<!DOCTYPE svg PUBLIC "-//W3C//DTD SVG 1.1//EN"
 "http://www.w3.org/Graphics/SVG/1.1/DTD/svg11.dtd">
<!-- Generated by graphviz version 2.38.0 (20140413.2041)
 -->
<!-- Title: G Pages: 1 -->
<svg width="649pt" height="806pt"
 viewBox="0.00 0.00 649.27 806.00" xmlns="http://www.w3.org/2000/svg" xmlns:xlink="http://www.w3.org/1999/xlink">
<g id="graph0" class="graph" transform="scale(1 1) rotate(0) translate(4 802)">
<title>G</title>
<polygon fill="white" stroke="none" points="-4,4 -4,-802 645.273,-802 645.273,4 -4,4"/>
<g id="clust1" class="cluster"><title>cluster_Global</title>
<path fill="none" stroke="gray" d="M20.793,-206C20.793,-206 621.273,-206 621.273,-206 627.273,-206 633.273,-212 633.273,-218 633.273,-218 633.273,-778 633.273,-778 633.273,-784 627.273,-790 621.273,-790 621.273,-790 20.793,-790 20.793,-790 14.793,-790 8.79296,-784 8.79296,-778 8.79296,-778 8.79296,-218 8.79296,-218 8.79296,-212 14.793,-206 20.793,-206"/>
<text text-anchor="middle" x="321.033" y="-777.2" font-family="Times,serif" font-size="11.00" fill="gray">Global</text>
</g>
<g id="clust2" class="cluster"><title>cluster_\Haldayne</title>
<path fill="none" stroke="gray" d="M28.793,-214C28.793,-214 613.273,-214 613.273,-214 619.273,-214 625.273,-220 625.273,-226 625.273,-226 625.273,-750 625.273,-750 625.273,-756 619.273,-762 613.273,-762 613.273,-762 28.793,-762 28.793,-762 22.793,-762 16.793,-756 16.793,-750 16.793,-750 16.793,-226 16.793,-226 16.793,-220 22.793,-214 28.793,-214"/>
<text text-anchor="middle" x="321.033" y="-749.2" font-family="Times,serif" font-size="11.00" fill="gray">Haldayne</text>
</g>
<g id="clust3" class="cluster"><title>cluster_\Haldayne\Customs</title>
<path fill="none" stroke="gray" d="M246.43,-392C246.43,-392 605.273,-392 605.273,-392 611.273,-392 617.273,-398 617.273,-404 617.273,-404 617.273,-722 617.273,-722 617.273,-728 611.273,-734 605.273,-734 605.273,-734 246.43,-734 246.43,-734 240.43,-734 234.43,-728 234.43,-722 234.43,-722 234.43,-404 234.43,-404 234.43,-398 240.43,-392 246.43,-392"/>
<text text-anchor="middle" x="425.851" y="-721.2" font-family="Times,serif" font-size="11.00" fill="gray">Customs</text>
</g>
<g id="clust4" class="cluster"><title>cluster_\Haldayne\Boost</title>
<path fill="none" stroke="gray" d="M36.793,-222C36.793,-222 561.273,-222 561.273,-222 567.273,-222 573.273,-228 573.273,-234 573.273,-234 573.273,-372 573.273,-372 573.273,-378 567.273,-384 561.273,-384 561.273,-384 36.793,-384 36.793,-384 30.793,-384 24.793,-378 24.793,-372 24.793,-372 24.793,-234 24.793,-234 24.793,-228 30.793,-222 36.793,-222"/>
<text text-anchor="middle" x="299.033" y="-371.2" font-family="Times,serif" font-size="11.00" fill="gray">Boost</text>
</g>
<g id="clust5" class="cluster"><title>cluster_\Haldayne\Boost\Contract</title>
<path fill="none" stroke="gray" d="M44.793,-230C44.793,-230 113.793,-230 113.793,-230 119.793,-230 125.793,-236 125.793,-242 125.793,-242 125.793,-344 125.793,-344 125.793,-350 119.793,-356 113.793,-356 113.793,-356 44.793,-356 44.793,-356 38.793,-356 32.793,-350 32.793,-344 32.793,-344 32.793,-242 32.793,-242 32.793,-236 38.793,-230 44.793,-230"/>
<text text-anchor="middle" x="79.293" y="-343.2" font-family="Times,serif" font-size="11.00" fill="gray">Contract</text>
</g>
<!-- \\Haldayne\\Customs\\UploadException -->
<g id="node1" class="node"><title>\\Haldayne\\Customs\\UploadException</title>
<polygon fill="none" stroke="black" points="360.43,-571 242.43,-571 242.43,-535 360.43,-535 360.43,-571"/>
<text text-anchor="middle" x="301.43" y="-550.2" font-family="Courier,monospace" font-size="11.00">UploadException</text>
</g>
<!-- \\RuntimeException -->
<g id="node12" class="node"><title>\\RuntimeException</title>
<ellipse fill="none" stroke="black" cx="79.293" cy="-180" rx="79.0865" ry="18"/>
<text text-anchor="middle" x="79.293" y="-176.3" font-family="Times,serif" font-size="14.00" fill="gray">\RuntimeException</text>
</g>
<!-- \\Haldayne\\Customs\\UploadException&#45;&gt;\\RuntimeException -->
<g id="edge1" class="edge"><title>\\Haldayne\\Customs\\UploadException&#45;&gt;\\RuntimeException</title>
<path fill="none" stroke="black" d="M292.749,-534.88C264.014,-467.141 164.199,-232.343 158.586,-226 149.678,-215.934 138.018,-207.47 126.428,-200.658"/>
<polygon fill="none" stroke="black" points="128.068,-197.565 117.626,-195.771 124.67,-203.685 128.068,-197.565"/>
</g>
<!-- \\Haldayne\\Customs\\ServerProblemException -->
<g id="node2" class="node"><title>\\Haldayne\\Customs\\ServerProblemException</title>
<polygon fill="none" stroke="black" points="609.273,-706 444.273,-706 444.273,-670 609.273,-670 609.273,-706"/>
<text text-anchor="middle" x="526.773" y="-685.2" font-family="Courier,monospace" font-size="11.00">ServerProblemException</text>
</g>
<!-- \\Haldayne\\Customs\\ServerProblemException&#45;&gt;\\Haldayne\\Customs\\UploadException -->
<g id="edge2" class="edge"><title>\\Haldayne\\Customs\\ServerProblemException&#45;&gt;\\Haldayne\\Customs\\UploadException</title>
<path fill="none" stroke="black" d="M463.896,-669.931C457.138,-667.246 450.47,-664.268 444.273,-661 400.668,-638.002 356.415,-601.814 329.2,-577.752"/>
<polygon fill="none" stroke="black" points="331.443,-575.063 321.655,-571.006 326.776,-580.281 331.443,-575.063"/>
</g>
<!-- \\Haldayne\\Customs\\UploadFile -->
<g id="node3" class="node"><title>\\Haldayne\\Customs\\UploadFile</title>
<polygon fill="none" stroke="black" points="568.773,-652 484.773,-652 484.773,-616 568.773,-616 568.773,-652"/>
<text text-anchor="middle" x="526.773" y="-631.2" font-family="Courier,monospace" font-size="11.00">UploadFile</text>
</g>
<!-- \\Haldayne\\Customs\\UploadError -->
<g id="node4" class="node"><title>\\Haldayne\\Customs\\UploadError</title>
<polygon fill="none" stroke="black" points="572.273,-598 481.273,-598 481.273,-562 572.273,-562 572.273,-598"/>
<text text-anchor="middle" x="526.773" y="-577.2" font-family="Courier,monospace" font-size="11.00">UploadError</text>
</g>
<!-- \\Haldayne\\Customs\\UploadConfig -->
<g id="node5" class="node"><title>\\Haldayne\\Customs\\UploadConfig</title>
<polygon fill="none" stroke="black" points="575.773,-544 477.773,-544 477.773,-508 575.773,-508 575.773,-544"/>
<text text-anchor="middle" x="526.773" y="-523.2" font-family="Courier,monospace" font-size="11.00">UploadConfig</text>
</g>
<!-- \\Haldayne\\Customs\\UploadIterator -->
<g id="node6" class="node"><title>\\Haldayne\\Customs\\UploadIterator</title>
<polygon fill="none" stroke="black" points="582.273,-490 471.273,-490 471.273,-454 582.273,-454 582.273,-490"/>
<text text-anchor="middle" x="526.773" y="-469.2" font-family="Courier,monospace" font-size="11.00">UploadIterator</text>
</g>
<!-- \\ArrayAccess -->
<g id="node13" class="node"><title>\\ArrayAccess</title>
<ellipse fill="none" stroke="black" cx="79.293" cy="-18" rx="58.4896" ry="18"/>
<text text-anchor="middle" x="79.293" y="-14.3" font-family="Times,serif" font-size="14.00" fill="gray">\ArrayAccess</text>
</g>
<!-- \\Haldayne\\Customs\\UploadIterator&#45;&gt;\\ArrayAccess -->
<g id="edge3" class="edge"><title>\\Haldayne\\Customs\\UploadIterator&#45;&gt;\\ArrayAccess</title>
<path fill="none" stroke="black" stroke-dasharray="1,5" d="M471.252,-461.877C461.289,-457.961 451.709,-452.531 444.273,-445 319.664,-318.79 449.869,-170.581 302.43,-72"/>
<path fill="none" stroke="black" stroke-dasharray="1,5" d="M300.43,-72C296.941,-69.6676 200.315,-46.4568 136.253,-31.2343"/>
<polygon fill="none" stroke="black" points="136.808,-27.7688 126.27,-28.8641 135.191,-34.5795 136.808,-27.7688"/>
</g>
<!-- \\SeekableIterator -->
<g id="node14" class="node"><title>\\SeekableIterator</title>
<ellipse fill="none" stroke="black" cx="301.43" cy="-26" rx="70.6878" ry="18"/>
<text text-anchor="middle" x="301.43" y="-22.3" font-family="Times,serif" font-size="14.00" fill="gray">\SeekableIterator</text>
</g>
<!-- \\Haldayne\\Customs\\UploadIterator&#45;&gt;\\SeekableIterator -->
<g id="edge4" class="edge"><title>\\Haldayne\\Customs\\UploadIterator&#45;&gt;\\SeekableIterator</title>
<path fill="none" stroke="black" stroke-dasharray="1,5" d="M470.922,-462.739C460.863,-458.76 451.329,-453.087 444.273,-445 329.253,-313.173 479.892,-195.935 372.273,-58 368.235,-52.8243 363.168,-48.4559 357.617,-44.7757"/>
<polygon fill="none" stroke="black" points="358.982,-41.5217 348.574,-39.5419 355.475,-47.5802 358.982,-41.5217"/>
</g>
<!-- \\Countable -->
<g id="node15" class="node"><title>\\Countable</title>
<ellipse fill="none" stroke="black" cx="79.293" cy="-72" rx="49.2915" ry="18"/>
<text text-anchor="middle" x="79.293" y="-68.3" font-family="Times,serif" font-size="14.00" fill="gray">\Countable</text>
</g>
<!-- \\Haldayne\\Customs\\UploadIterator&#45;&gt;\\Countable -->
<g id="edge5" class="edge"><title>\\Haldayne\\Customs\\UploadIterator&#45;&gt;\\Countable</title>
<path fill="none" stroke="black" stroke-dasharray="1,5" d="M300.43,-72C274.633,-54.7518 192.982,-59.3863 136.72,-65.0816"/>
<polygon fill="none" stroke="black" points="136.109,-61.6265 126.529,-66.1524 136.84,-68.5882 136.109,-61.6265"/>
</g>
<!-- \\Haldayne\\Customs\\HtmlNameAccessorTrait -->
<g id="node7" class="node"><title>\\Haldayne\\Customs\\HtmlNameAccessorTrait</title>
<polygon fill="none" stroke="black" points="605.773,-436 447.773,-436 447.773,-400 605.773,-400 605.773,-436"/>
<text text-anchor="middle" x="526.773" y="-415.2" font-family="Courier,monospace" font-size="11.00">HtmlNameAccessorTrait</text>
</g>
<!-- \\Haldayne\\Boost\\Contract\\Arrayable -->
<g id="node8" class="node"><title>\\Haldayne\\Boost\\Contract\\Arrayable</title>
<polygon fill="none" stroke="black" points="117.793,-328 40.793,-328 40.793,-292 117.793,-292 117.793,-328"/>
<text text-anchor="middle" x="79.293" y="-307.2" font-family="Courier,monospace" font-size="11.00">Arrayable</text>
</g>
<!-- \\Haldayne\\Boost\\Contract\\Jsonable -->
<g id="node9" class="node"><title>\\Haldayne\\Boost\\Contract\\Jsonable</title>
<polygon fill="none" stroke="black" points="114.793,-274 43.793,-274 43.793,-238 114.793,-238 114.793,-274"/>
<text text-anchor="middle" x="79.293" y="-253.2" font-family="Courier,monospace" font-size="11.00">Jsonable</text>
</g>
<!-- \\Haldayne\\Boost\\Map -->
<g id="node10" class="node"><title>\\Haldayne\\Boost\\Map</title>
<polygon fill="none" stroke="black" points="328.43,-266 274.43,-266 274.43,-230 328.43,-230 328.43,-266"/>
<text text-anchor="middle" x="301.43" y="-245.2" font-family="Courier,monospace" font-size="11.00">Map</text>
</g>
<!-- \\Haldayne\\Boost\\Map&#45;&gt;\\Haldayne\\Boost\\Contract\\Arrayable -->
<g id="edge7" class="edge"><title>\\Haldayne\\Boost\\Map&#45;&gt;\\Haldayne\\Boost\\Contract\\Arrayable</title>
<path fill="none" stroke="black" stroke-dasharray="1,5" d="M274.313,-255.356C238.313,-265.495 172.813,-283.942 127.96,-296.575"/>
<polygon fill="none" stroke="black" points="126.836,-293.255 118.159,-299.335 128.734,-299.993 126.836,-293.255"/>
</g>
<!-- \\Haldayne\\Boost\\Map&#45;&gt;\\Haldayne\\Boost\\Contract\\Jsonable -->
<g id="edge8" class="edge"><title>\\Haldayne\\Boost\\Map&#45;&gt;\\Haldayne\\Boost\\Contract\\Jsonable</title>
<path fill="none" stroke="black" stroke-dasharray="1,5" d="M274.313,-248.949C237.543,-250.285 169.999,-252.74 125.112,-254.371"/>
<polygon fill="none" stroke="black" points="124.927,-250.876 115.06,-254.737 125.181,-257.871 124.927,-250.876"/>
</g>
<!-- \\Haldayne\\Boost\\Map&#45;&gt;\\ArrayAccess -->
<g id="edge9" class="edge"><title>\\Haldayne\\Boost\\Map&#45;&gt;\\ArrayAccess</title>
<path fill="none" stroke="black" stroke-dasharray="1,5" d="M292.622,-229.955C274.708,-190.617 226.878,-96.5402 158.586,-45 151.822,-39.8952 144.023,-35.7098 136.023,-32.2911"/>
<polygon fill="none" stroke="black" points="137.179,-28.9854 126.591,-28.6208 134.641,-35.5089 137.179,-28.9854"/>
</g>
<!-- \\Haldayne\\Boost\\Map&#45;&gt;\\Countable -->
<g id="edge6" class="edge"><title>\\Haldayne\\Boost\\Map&#45;&gt;\\Countable</title>
<path fill="none" stroke="black" stroke-dasharray="1,5" d="M287.68,-229.728C265.094,-198.637 215.077,-135.292 158.586,-99 150.058,-93.5211 140.289,-89.0122 130.61,-85.3545"/>
<polygon fill="none" stroke="black" points="131.604,-81.9942 121.009,-81.9763 129.281,-88.5973 131.604,-81.9942"/>
</g>
<!-- \\IteratorAggregate -->
<g id="node16" class="node"><title>\\IteratorAggregate</title>
<ellipse fill="none" stroke="black" cx="79.293" cy="-126" rx="75.2868" ry="18"/>
<text text-anchor="middle" x="79.293" y="-122.3" font-family="Times,serif" font-size="14.00" fill="gray">\IteratorAggregate</text>
</g>
<!-- \\Haldayne\\Boost\\Map&#45;&gt;\\IteratorAggregate -->
<g id="edge10" class="edge"><title>\\Haldayne\\Boost\\Map&#45;&gt;\\IteratorAggregate</title>
<path fill="none" stroke="black" stroke-dasharray="1,5" d="M277.478,-229.895C250.33,-209.145 203.178,-175.155 158.586,-153 151.705,-149.581 144.285,-146.413 136.852,-143.541"/>
<polygon fill="none" stroke="black" points="138.061,-140.256 127.468,-140.063 135.628,-146.82 138.061,-140.256"/>
</g>
<!-- \\Haldayne\\Boost\\MapOfMaps -->
<g id="node11" class="node"><title>\\Haldayne\\Boost\\MapOfMaps</title>
<polygon fill="none" stroke="black" points="565.273,-266 488.273,-266 488.273,-230 565.273,-230 565.273,-266"/>
<text text-anchor="middle" x="526.773" y="-245.2" font-family="Courier,monospace" font-size="11.00">MapOfMaps</text>
</g>
<!-- \\Haldayne\\Boost\\MapOfMaps&#45;&gt;\\Haldayne\\Boost\\Map -->
<g id="edge11" class="edge"><title>\\Haldayne\\Boost\\MapOfMaps&#45;&gt;\\Haldayne\\Boost\\Map</title>
<path fill="none" stroke="black" d="M488.139,-248C446.51,-248 379.9,-248 338.79,-248"/>
<polygon fill="none" stroke="black" points="338.667,-244.5 328.667,-248 338.667,-251.5 338.667,-244.5"/>
</g>
</g>
</svg>
