<?xml version="1.0" encoding="UTF-8" standalone="no"?>
<!DOCTYPE svg PUBLIC "-//W3C//DTD SVG 1.1//EN"
 "http://www.w3.org/Graphics/SVG/1.1/DTD/svg11.dtd">
<!-- Generated by graphviz version 2.38.0 (20140413.2041)
 -->
<!-- Title: G Pages: 1 -->
<svg width="1015pt" height="1141pt"
 viewBox="0.00 0.00 1015.17 1140.50" xmlns="http://www.w3.org/2000/svg" xmlns:xlink="http://www.w3.org/1999/xlink">
<g id="graph0" class="graph" transform="scale(1 1) rotate(0) translate(4 1136.5)">
<title>G</title>
<polygon fill="white" stroke="none" points="-4,4 -4,-1136.5 1011.17,-1136.5 1011.17,4 -4,4"/>
<g id="clust1" class="cluster"><title>cluster_Global</title>
<path fill="none" stroke="gray" d="M20,-226.505C20,-226.505 987.167,-226.505 987.167,-226.505 993.167,-226.505 999.167,-232.505 999.167,-238.505 999.167,-238.505 999.167,-1112.5 999.167,-1112.5 999.167,-1118.5 993.167,-1124.5 987.167,-1124.5 987.167,-1124.5 20,-1124.5 20,-1124.5 14,-1124.5 8,-1118.5 8,-1112.5 8,-1112.5 8,-238.505 8,-238.505 8,-232.505 14,-226.505 20,-226.505"/>
<text text-anchor="middle" x="503.583" y="-1111.7" font-family="Times,serif" font-size="11.00" fill="gray">Global</text>
</g>
<g id="clust2" class="cluster"><title>cluster_\Haldayne</title>
<path fill="none" stroke="gray" d="M28,-234.505C28,-234.505 979.167,-234.505 979.167,-234.505 985.167,-234.505 991.167,-240.505 991.167,-246.505 991.167,-246.505 991.167,-1084.5 991.167,-1084.5 991.167,-1090.5 985.167,-1096.5 979.167,-1096.5 979.167,-1096.5 28,-1096.5 28,-1096.5 22,-1096.5 16,-1090.5 16,-1084.5 16,-1084.5 16,-246.505 16,-246.505 16,-240.505 22,-234.505 28,-234.505"/>
<text text-anchor="middle" x="503.583" y="-1083.7" font-family="Times,serif" font-size="11.00" fill="gray">Haldayne</text>
</g>
<g id="clust3" class="cluster"><title>cluster_\Haldayne\Customs</title>
<path fill="none" stroke="gray" d="M598.323,-672.505C598.323,-672.505 971.167,-672.505 971.167,-672.505 977.167,-672.505 983.167,-678.505 983.167,-684.505 983.167,-684.505 983.167,-1056.5 983.167,-1056.5 983.167,-1062.5 977.167,-1068.5 971.167,-1068.5 971.167,-1068.5 598.323,-1068.5 598.323,-1068.5 592.323,-1068.5 586.323,-1062.5 586.323,-1056.5 586.323,-1056.5 586.323,-684.505 586.323,-684.505 586.323,-678.505 592.323,-672.505 598.323,-672.505"/>
<text text-anchor="middle" x="784.745" y="-1055.7" font-family="Times,serif" font-size="11.00" fill="gray">Customs</text>
</g>
<g id="clust4" class="cluster"><title>cluster_\Haldayne\Fox</title>
<path fill="none" stroke="gray" d="M837.667,-430.505C837.667,-430.505 933.667,-430.505 933.667,-430.505 939.667,-430.505 945.667,-436.505 945.667,-442.505 945.667,-442.505 945.667,-652.505 945.667,-652.505 945.667,-658.505 939.667,-664.505 933.667,-664.505 933.667,-664.505 837.667,-664.505 837.667,-664.505 831.667,-664.505 825.667,-658.505 825.667,-652.505 825.667,-652.505 825.667,-442.505 825.667,-442.505 825.667,-436.505 831.667,-430.505 837.667,-430.505"/>
<text text-anchor="middle" x="885.667" y="-651.705" font-family="Times,serif" font-size="11.00" fill="gray">Fox</text>
</g>
<g id="clust5" class="cluster"><title>cluster_\Haldayne\Boost</title>
<path fill="none" stroke="gray" d="M36,-242.505C36,-242.505 927.167,-242.505 927.167,-242.505 933.167,-242.505 939.167,-248.505 939.167,-254.505 939.167,-254.505 939.167,-410.505 939.167,-410.505 939.167,-416.505 933.167,-422.505 927.167,-422.505 927.167,-422.505 36,-422.505 36,-422.505 30,-422.505 24,-416.505 24,-410.505 24,-410.505 24,-254.505 24,-254.505 24,-248.505 30,-242.505 36,-242.505"/>
<text text-anchor="middle" x="481.583" y="-409.705" font-family="Times,serif" font-size="11.00" fill="gray">Boost</text>
</g>
<g id="clust6" class="cluster"><title>cluster_\Haldayne\Boost\Contract</title>
<path fill="none" stroke="gray" d="M44,-250.505C44,-250.505 113,-250.505 113,-250.505 119,-250.505 125,-256.505 125,-262.505 125,-262.505 125,-364.505 125,-364.505 125,-370.505 119,-376.505 113,-376.505 113,-376.505 44,-376.505 44,-376.505 38,-376.505 32,-370.505 32,-364.505 32,-364.505 32,-262.505 32,-262.505 32,-256.505 38,-250.505 44,-250.505"/>
<text text-anchor="middle" x="78.5" y="-363.705" font-family="Times,serif" font-size="11.00" fill="gray">Contract</text>
</g>
<!-- \\Haldayne\\Customs\\UploadError -->
<g id="node1" class="node"><title>\\Haldayne\\Customs\\UploadError</title>
<polygon fill="none" stroke="black" points="931.167,-1040.5 840.167,-1040.5 840.167,-1004.5 931.167,-1004.5 931.167,-1040.5"/>
<text text-anchor="middle" x="885.667" y="-1019.7" font-family="Courier,monospace" font-size="11.00">UploadError</text>
</g>
<!-- \\Haldayne\\Customs\\UploadException -->
<g id="node2" class="node"><title>\\Haldayne\\Customs\\UploadException</title>
<polygon fill="none" stroke="black" points="712.323,-878.505 594.323,-878.505 594.323,-842.505 712.323,-842.505 712.323,-878.505"/>
<text text-anchor="middle" x="653.323" y="-857.705" font-family="Courier,monospace" font-size="11.00">UploadException</text>
</g>
<!-- \\RuntimeException -->
<g id="node22" class="node"><title>\\RuntimeException</title>
<ellipse fill="none" stroke="black" cx="431.186" cy="-200.505" rx="79.0865" ry="18"/>
<text text-anchor="middle" x="431.186" y="-196.805" font-family="Times,serif" font-size="14.00" fill="gray">\RuntimeException</text>
</g>
<!-- \\Haldayne\\Customs\\UploadException&#45;&gt;\\RuntimeException -->
<g id="edge1" class="edge"><title>\\Haldayne\\Customs\\UploadException&#45;&gt;\\RuntimeException</title>
<path fill="none" stroke="black" d="M650.321,-842.46C639.841,-750.771 588.785,-337.025 510.479,-238.505 504.479,-230.955 496.603,-224.808 488.161,-219.833"/>
<polygon fill="none" stroke="black" points="489.684,-216.679 479.213,-215.064 486.391,-222.856 489.684,-216.679"/>
</g>
<!-- \\Haldayne\\Customs\\ServerProblemException -->
<g id="node3" class="node"><title>\\Haldayne\\Customs\\ServerProblemException</title>
<polygon fill="none" stroke="black" points="968.167,-986.505 803.167,-986.505 803.167,-950.505 968.167,-950.505 968.167,-986.505"/>
<text text-anchor="middle" x="885.667" y="-965.705" font-family="Courier,monospace" font-size="11.00">ServerProblemException</text>
</g>
<!-- \\Haldayne\\Customs\\ServerProblemException&#45;&gt;\\Haldayne\\Customs\\UploadException -->
<g id="edge2" class="edge"><title>\\Haldayne\\Customs\\ServerProblemException&#45;&gt;\\Haldayne\\Customs\\UploadException</title>
<path fill="none" stroke="black" d="M819.301,-950.376C811.411,-947.657 803.541,-944.688 796.167,-941.505 758.577,-925.279 718.272,-901.592 690.269,-884.021"/>
<polygon fill="none" stroke="black" points="691.95,-880.942 681.629,-878.548 688.204,-886.856 691.95,-880.942"/>
</g>
<!-- \\Haldayne\\Customs\\UploadFile -->
<g id="node4" class="node"><title>\\Haldayne\\Customs\\UploadFile</title>
<polygon fill="none" stroke="black" points="927.667,-932.505 843.667,-932.505 843.667,-896.505 927.667,-896.505 927.667,-932.505"/>
<text text-anchor="middle" x="885.667" y="-911.705" font-family="Courier,monospace" font-size="11.00">UploadFile</text>
</g>
<!-- \\Haldayne\\Customs\\SecurityConcernException -->
<g id="node5" class="node"><title>\\Haldayne\\Customs\\SecurityConcernException</title>
<polygon fill="none" stroke="black" points="975.167,-878.505 796.167,-878.505 796.167,-842.505 975.167,-842.505 975.167,-878.505"/>
<text text-anchor="middle" x="885.667" y="-857.705" font-family="Courier,monospace" font-size="11.00">SecurityConcernException</text>
</g>
<!-- \\Haldayne\\Customs\\SecurityConcernException&#45;&gt;\\Haldayne\\Customs\\UploadException -->
<g id="edge3" class="edge"><title>\\Haldayne\\Customs\\SecurityConcernException&#45;&gt;\\Haldayne\\Customs\\UploadException</title>
<path fill="none" stroke="black" d="M795.939,-860.505C771.541,-860.505 745.469,-860.505 722.432,-860.505"/>
<polygon fill="none" stroke="black" points="722.419,-857.005 712.419,-860.505 722.419,-864.005 722.419,-857.005"/>
</g>
<!-- \\Haldayne\\Customs\\UploadConfig -->
<g id="node6" class="node"><title>\\Haldayne\\Customs\\UploadConfig</title>
<polygon fill="none" stroke="black" points="934.667,-824.505 836.667,-824.505 836.667,-788.505 934.667,-788.505 934.667,-824.505"/>
<text text-anchor="middle" x="885.667" y="-803.705" font-family="Courier,monospace" font-size="11.00">UploadConfig</text>
</g>
<!-- \\Haldayne\\Customs\\UploadIterator -->
<g id="node7" class="node"><title>\\Haldayne\\Customs\\UploadIterator</title>
<polygon fill="none" stroke="black" points="941.167,-770.505 830.167,-770.505 830.167,-734.505 941.167,-734.505 941.167,-770.505"/>
<text text-anchor="middle" x="885.667" y="-749.705" font-family="Courier,monospace" font-size="11.00">UploadIterator</text>
</g>
<!-- \\ArrayAccess -->
<g id="node23" class="node"><title>\\ArrayAccess</title>
<ellipse fill="none" stroke="black" cx="78.5" cy="-77.5048" rx="58.4896" ry="18"/>
<text text-anchor="middle" x="78.5" y="-73.8048" font-family="Times,serif" font-size="14.00" fill="gray">\ArrayAccess</text>
</g>
<!-- \\Haldayne\\Customs\\UploadIterator&#45;&gt;\\ArrayAccess -->
<g id="edge4" class="edge"><title>\\Haldayne\\Customs\\UploadIterator&#45;&gt;\\ArrayAccess</title>
<path fill="none" stroke="black" stroke-dasharray="1,5" d="M829.723,-746.224C816.992,-742.198 804.692,-735.756 796.167,-725.505 705.222,-616.142 829.363,-185.238 724.167,-89.5048 554.628,64.7837 243.815,-20.0885 126.231,-60.2256"/>
<polygon fill="none" stroke="black" points="124.754,-57.0332 116.45,-63.6141 127.045,-63.6475 124.754,-57.0332"/>
</g>
<!-- \\SeekableIterator -->
<g id="node24" class="node"><title>\\SeekableIterator</title>
<ellipse fill="none" stroke="black" cx="653.323" cy="-116.505" rx="70.6878" ry="18"/>
<text text-anchor="middle" x="653.323" y="-112.805" font-family="Times,serif" font-size="14.00" fill="gray">\SeekableIterator</text>
</g>
<!-- \\Haldayne\\Customs\\UploadIterator&#45;&gt;\\SeekableIterator -->
<g id="edge5" class="edge"><title>\\Haldayne\\Customs\\UploadIterator&#45;&gt;\\SeekableIterator</title>
<path fill="none" stroke="black" stroke-dasharray="1,5" d="M829.803,-746.157C817.07,-742.132 804.75,-735.707 796.167,-725.505 629.796,-527.746 876.976,-356.921 724.167,-148.505 720.337,-143.281 715.447,-138.888 710.036,-135.198"/>
<polygon fill="none" stroke="black" points="711.572,-132.04 701.184,-129.96 708.008,-138.064 711.572,-132.04"/>
</g>
<!-- \\Countable -->
<g id="node25" class="node"><title>\\Countable</title>
<ellipse fill="none" stroke="black" cx="78.5" cy="-146.505" rx="49.2915" ry="18"/>
<text text-anchor="middle" x="78.5" y="-142.805" font-family="Times,serif" font-size="14.00" fill="gray">\Countable</text>
</g>
<!-- \\Haldayne\\Customs\\UploadIterator&#45;&gt;\\Countable -->
<g id="edge6" class="edge"><title>\\Haldayne\\Customs\\UploadIterator&#45;&gt;\\Countable</title>
<path fill="none" stroke="black" stroke-dasharray="1,5" d="M829.96,-746.023C817.226,-742 804.865,-735.61 796.167,-725.505 653.426,-559.682 866.976,-404.269 724.167,-238.505 573.801,-63.9695 254.359,-108.998 130.274,-134.636"/>
<polygon fill="none" stroke="black" points="129.341,-131.256 120.281,-136.747 130.788,-138.105 129.341,-131.256"/>
</g>
<!-- \\Haldayne\\Customs\\HtmlNameAccessorTrait -->
<g id="node8" class="node"><title>\\Haldayne\\Customs\\HtmlNameAccessorTrait</title>
<polygon fill="none" stroke="black" points="964.667,-716.505 806.667,-716.505 806.667,-680.505 964.667,-680.505 964.667,-716.505"/>
<text text-anchor="middle" x="885.667" y="-695.705" font-family="Courier,monospace" font-size="11.00">HtmlNameAccessorTrait</text>
</g>
<!-- \\Haldayne\\Fox\\Retry -->
<g id="node9" class="node"><title>\\Haldayne\\Fox\\Retry</title>
<polygon fill="none" stroke="black" points="912.667,-636.505 858.667,-636.505 858.667,-600.505 912.667,-600.505 912.667,-636.505"/>
<text text-anchor="middle" x="885.667" y="-615.705" font-family="Courier,monospace" font-size="11.00">Retry</text>
</g>
<!-- \\Haldayne\\Fox\\Y -->
<g id="node10" class="node"><title>\\Haldayne\\Fox\\Y</title>
<polygon fill="none" stroke="black" points="912.667,-582.505 858.667,-582.505 858.667,-546.505 912.667,-546.505 912.667,-582.505"/>
<text text-anchor="middle" x="885.667" y="-561.705" font-family="Courier,monospace" font-size="11.00">Y</text>
</g>
<!-- \\Haldayne\\Fox\\Expression -->
<g id="node11" class="node"><title>\\Haldayne\\Fox\\Expression</title>
<polygon fill="none" stroke="black" points="927.667,-528.505 843.667,-528.505 843.667,-492.505 927.667,-492.505 927.667,-528.505"/>
<text text-anchor="middle" x="885.667" y="-507.705" font-family="Courier,monospace" font-size="11.00">Expression</text>
</g>
<!-- \\Haldayne\\Fox\\CaptureErrors -->
<g id="node12" class="node"><title>\\Haldayne\\Fox\\CaptureErrors</title>
<polygon fill="none" stroke="black" points="937.667,-474.505 833.667,-474.505 833.667,-438.505 937.667,-438.505 937.667,-474.505"/>
<text text-anchor="middle" x="885.667" y="-453.705" font-family="Courier,monospace" font-size="11.00">CaptureErrors</text>
</g>
<!-- \\Haldayne\\Boost\\Contract\\Arrayable -->
<g id="node13" class="node"><title>\\Haldayne\\Boost\\Contract\\Arrayable</title>
<polygon fill="none" stroke="black" points="117,-348.505 40,-348.505 40,-312.505 117,-312.505 117,-348.505"/>
<text text-anchor="middle" x="78.5" y="-327.705" font-family="Courier,monospace" font-size="11.00">Arrayable</text>
</g>
<!-- \\Haldayne\\Boost\\Contract\\Jsonable -->
<g id="node14" class="node"><title>\\Haldayne\\Boost\\Contract\\Jsonable</title>
<polygon fill="none" stroke="black" points="114,-294.505 43,-294.505 43,-258.505 114,-258.505 114,-294.505"/>
<text text-anchor="middle" x="78.5" y="-273.705" font-family="Courier,monospace" font-size="11.00">Jsonable</text>
</g>
<!-- \\Haldayne\\Boost\\MapOfStrings -->
<g id="node15" class="node"><title>\\Haldayne\\Boost\\MapOfStrings</title>
<polygon fill="none" stroke="black" points="702.323,-394.505 604.323,-394.505 604.323,-358.505 702.323,-358.505 702.323,-394.505"/>
<text text-anchor="middle" x="653.323" y="-373.705" font-family="Courier,monospace" font-size="11.00">MapOfStrings</text>
</g>
<!-- \\Haldayne\\Boost\\GuardedMapAbstract -->
<g id="node17" class="node"><title>\\Haldayne\\Boost\\GuardedMapAbstract</title>
<polygon fill="none" stroke="black" points="500.186,-317.505 362.186,-317.505 362.186,-281.505 500.186,-281.505 500.186,-317.505"/>
<text text-anchor="start" x="397.186" y="-302.705" font-family="Courier,monospace" font-size="11.00">«abstract»</text>
<text text-anchor="start" x="370.186" y="-290.705" font-family="Courier,monospace" font-size="11.00">GuardedMapAbstract</text>
</g>
<!-- \\Haldayne\\Boost\\MapOfStrings&#45;&gt;\\Haldayne\\Boost\\GuardedMapAbstract -->
<g id="edge7" class="edge"><title>\\Haldayne\\Boost\\MapOfStrings&#45;&gt;\\Haldayne\\Boost\\GuardedMapAbstract</title>
<path fill="none" stroke="black" d="M604.285,-359.702C571.791,-348.336 528.588,-333.224 493.598,-320.985"/>
<polygon fill="none" stroke="black" points="494.557,-317.613 483.962,-317.615 492.246,-324.221 494.557,-317.613"/>
</g>
<!-- \\Haldayne\\Boost\\MapOfNumerics -->
<g id="node16" class="node"><title>\\Haldayne\\Boost\\MapOfNumerics</title>
<polygon fill="none" stroke="black" points="705.323,-286.505 601.323,-286.505 601.323,-250.505 705.323,-250.505 705.323,-286.505"/>
<text text-anchor="middle" x="653.323" y="-265.705" font-family="Courier,monospace" font-size="11.00">MapOfNumerics</text>
</g>
<!-- \\Haldayne\\Boost\\MapOfNumerics&#45;&gt;\\Haldayne\\Boost\\GuardedMapAbstract -->
<g id="edge8" class="edge"><title>\\Haldayne\\Boost\\MapOfNumerics&#45;&gt;\\Haldayne\\Boost\\GuardedMapAbstract</title>
<path fill="none" stroke="black" d="M601.266,-275.695C574.335,-279.487 540.713,-284.222 510.56,-288.468"/>
<polygon fill="none" stroke="black" points="509.896,-285.027 500.482,-289.887 510.872,-291.959 509.896,-285.027"/>
</g>
<!-- \\Haldayne\\Boost\\Map -->
<g id="node20" class="node"><title>\\Haldayne\\Boost\\Map</title>
<polygon fill="none" stroke="black" points="279.893,-290.505 225.893,-290.505 225.893,-254.505 279.893,-254.505 279.893,-290.505"/>
<text text-anchor="middle" x="252.893" y="-269.705" font-family="Courier,monospace" font-size="11.00">Map</text>
</g>
<!-- \\Haldayne\\Boost\\GuardedMapAbstract&#45;&gt;\\Haldayne\\Boost\\Map -->
<g id="edge9" class="edge"><title>\\Haldayne\\Boost\\GuardedMapAbstract&#45;&gt;\\Haldayne\\Boost\\Map</title>
<path fill="none" stroke="black" d="M362.027,-289.066C337.492,-285.308 310.776,-281.217 290.038,-278.04"/>
<polygon fill="none" stroke="black" points="290.493,-274.569 280.078,-276.515 289.433,-281.489 290.493,-274.569"/>
</g>
<!-- \\Haldayne\\Boost\\MapOfCollections -->
<g id="node18" class="node"><title>\\Haldayne\\Boost\\MapOfCollections</title>
<polygon fill="none" stroke="black" points="715.823,-340.505 590.823,-340.505 590.823,-304.505 715.823,-304.505 715.823,-340.505"/>
<text text-anchor="middle" x="653.323" y="-319.705" font-family="Courier,monospace" font-size="11.00">MapOfCollections</text>
</g>
<!-- \\Haldayne\\Boost\\MapOfCollections&#45;&gt;\\Haldayne\\Boost\\GuardedMapAbstract -->
<g id="edge10" class="edge"><title>\\Haldayne\\Boost\\MapOfCollections&#45;&gt;\\Haldayne\\Boost\\GuardedMapAbstract</title>
<path fill="none" stroke="black" d="M590.71,-316.067C565.784,-313.463 536.716,-310.426 510.328,-307.669"/>
<polygon fill="none" stroke="black" points="510.67,-304.186 500.36,-306.628 509.942,-311.148 510.67,-304.186"/>
</g>
<!-- \\Haldayne\\Boost\\MapOfInts -->
<g id="node19" class="node"><title>\\Haldayne\\Boost\\MapOfInts</title>
<polygon fill="none" stroke="black" points="924.167,-340.505 847.167,-340.505 847.167,-304.505 924.167,-304.505 924.167,-340.505"/>
<text text-anchor="middle" x="885.667" y="-319.705" font-family="Courier,monospace" font-size="11.00">MapOfInts</text>
</g>
<!-- \\Haldayne\\Boost\\MapOfInts&#45;&gt;\\Haldayne\\Boost\\MapOfNumerics -->
<g id="edge11" class="edge"><title>\\Haldayne\\Boost\\MapOfInts&#45;&gt;\\Haldayne\\Boost\\MapOfNumerics</title>
<path fill="none" stroke="black" d="M847.145,-313.709C811.503,-305.353 757.29,-292.643 715.415,-282.827"/>
<polygon fill="none" stroke="black" points="716.133,-279.4 705.598,-280.525 714.535,-286.215 716.133,-279.4"/>
</g>
<!-- \\Haldayne\\Boost\\Map&#45;&gt;\\Haldayne\\Boost\\Contract\\Arrayable -->
<g id="edge13" class="edge"><title>\\Haldayne\\Boost\\Map&#45;&gt;\\Haldayne\\Boost\\Contract\\Arrayable</title>
<path fill="none" stroke="black" stroke-dasharray="1,5" d="M225.71,-281.314C199.504,-290.131 158.606,-303.89 126.721,-314.618"/>
<polygon fill="none" stroke="black" points="125.503,-311.335 117.141,-317.841 127.735,-317.969 125.503,-311.335"/>
</g>
<!-- \\Haldayne\\Boost\\Map&#45;&gt;\\Haldayne\\Boost\\Contract\\Jsonable -->
<g id="edge14" class="edge"><title>\\Haldayne\\Boost\\Map&#45;&gt;\\Haldayne\\Boost\\Contract\\Jsonable</title>
<path fill="none" stroke="black" stroke-dasharray="1,5" d="M225.71,-273.112C198.852,-273.735 156.562,-274.717 124.358,-275.464"/>
<polygon fill="none" stroke="black" points="124.205,-271.966 114.289,-275.698 124.368,-278.965 124.205,-271.966"/>
</g>
<!-- \\Haldayne\\Boost\\Map&#45;&gt;\\ArrayAccess -->
<g id="edge15" class="edge"><title>\\Haldayne\\Boost\\Map&#45;&gt;\\ArrayAccess</title>
<path fill="none" stroke="black" stroke-dasharray="1,5" d="M243.943,-254.48C229.635,-223.667 196.979,-160.254 153.893,-119.505 144.717,-110.826 133.414,-103.274 122.414,-97.0592"/>
<polygon fill="none" stroke="black" points="123.765,-93.8112 113.299,-92.1578 120.449,-99.9765 123.765,-93.8112"/>
</g>
<!-- \\Haldayne\\Boost\\Map&#45;&gt;\\Countable -->
<g id="edge12" class="edge"><title>\\Haldayne\\Boost\\Map&#45;&gt;\\Countable</title>
<path fill="none" stroke="black" stroke-dasharray="1,5" d="M238.176,-254.383C220.75,-232.481 188.726,-195.797 153.893,-173.505 146.075,-168.501 137.201,-164.257 128.374,-160.722"/>
<polygon fill="none" stroke="black" points="129.459,-157.391 118.867,-157.161 127.004,-163.946 129.459,-157.391"/>
</g>
<!-- \\IteratorAggregate -->
<g id="node26" class="node"><title>\\IteratorAggregate</title>
<ellipse fill="none" stroke="black" cx="78.5" cy="-200.505" rx="75.2868" ry="18"/>
<text text-anchor="middle" x="78.5" y="-196.805" font-family="Times,serif" font-size="14.00" fill="gray">\IteratorAggregate</text>
</g>
<!-- \\Haldayne\\Boost\\Map&#45;&gt;\\IteratorAggregate -->
<g id="edge16" class="edge"><title>\\Haldayne\\Boost\\Map&#45;&gt;\\IteratorAggregate</title>
<path fill="none" stroke="black" stroke-dasharray="1,5" d="M225.71,-261.57C199.419,-250.589 158.339,-233.432 126.41,-220.097"/>
<polygon fill="none" stroke="black" points="127.397,-216.716 116.821,-216.092 124.699,-223.175 127.397,-216.716"/>
</g>
<!-- \\Haldayne\\Boost\\MapOfFloats -->
<g id="node21" class="node"><title>\\Haldayne\\Boost\\MapOfFloats</title>
<polygon fill="none" stroke="black" points="931.167,-286.505 840.167,-286.505 840.167,-250.505 931.167,-250.505 931.167,-286.505"/>
<text text-anchor="middle" x="885.667" y="-265.705" font-family="Courier,monospace" font-size="11.00">MapOfFloats</text>
</g>
<!-- \\Haldayne\\Boost\\MapOfFloats&#45;&gt;\\Haldayne\\Boost\\MapOfNumerics -->
<g id="edge17" class="edge"><title>\\Haldayne\\Boost\\MapOfFloats&#45;&gt;\\Haldayne\\Boost\\MapOfNumerics</title>
<path fill="none" stroke="black" d="M839.981,-268.505C804.672,-268.505 755.002,-268.505 715.921,-268.505"/>
<polygon fill="none" stroke="black" points="715.715,-265.005 705.715,-268.505 715.715,-272.005 715.715,-265.005"/>
</g>
</g>
</svg>
