<?xml version="1.0" encoding="UTF-8" standalone="no"?>
<!DOCTYPE svg PUBLIC "-//W3C//DTD SVG 1.1//EN"
 "http://www.w3.org/Graphics/SVG/1.1/DTD/svg11.dtd">
<!-- Generated by graphviz version 2.38.0 (20140413.2041)
 -->
<!-- Title: G Pages: 1 -->
<svg width="1015pt" height="1066pt"
 viewBox="0.00 0.00 1015.17 1066.00" xmlns="http://www.w3.org/2000/svg" xmlns:xlink="http://www.w3.org/1999/xlink">
<g id="graph0" class="graph" transform="scale(1 1) rotate(0) translate(4 1062)">
<title>G</title>
<polygon fill="white" stroke="none" points="-4,4 -4,-1062 1011.17,-1062 1011.17,4 -4,4"/>
<g id="clust1" class="cluster"><title>cluster_Global</title>
<path fill="none" stroke="gray" d="M20,-152C20,-152 987.167,-152 987.167,-152 993.167,-152 999.167,-158 999.167,-164 999.167,-164 999.167,-1038 999.167,-1038 999.167,-1044 993.167,-1050 987.167,-1050 987.167,-1050 20,-1050 20,-1050 14,-1050 8,-1044 8,-1038 8,-1038 8,-164 8,-164 8,-158 14,-152 20,-152"/>
<text text-anchor="middle" x="503.583" y="-1037.2" font-family="Times,serif" font-size="11.00" fill="gray">Global</text>
</g>
<g id="clust2" class="cluster"><title>cluster_\Haldayne</title>
<path fill="none" stroke="gray" d="M28,-160C28,-160 979.167,-160 979.167,-160 985.167,-160 991.167,-166 991.167,-172 991.167,-172 991.167,-1010 991.167,-1010 991.167,-1016 985.167,-1022 979.167,-1022 979.167,-1022 28,-1022 28,-1022 22,-1022 16,-1016 16,-1010 16,-1010 16,-172 16,-172 16,-166 22,-160 28,-160"/>
<text text-anchor="middle" x="503.583" y="-1009.2" font-family="Times,serif" font-size="11.00" fill="gray">Haldayne</text>
</g>
<g id="clust3" class="cluster"><title>cluster_\Haldayne\Boost</title>
<path fill="none" stroke="gray" d="M36,-814C36,-814 927.167,-814 927.167,-814 933.167,-814 939.167,-820 939.167,-826 939.167,-826 939.167,-982 939.167,-982 939.167,-988 933.167,-994 927.167,-994 927.167,-994 36,-994 36,-994 30,-994 24,-988 24,-982 24,-982 24,-826 24,-826 24,-820 30,-814 36,-814"/>
<text text-anchor="middle" x="481.583" y="-981.2" font-family="Times,serif" font-size="11.00" fill="gray">Boost</text>
</g>
<g id="clust4" class="cluster"><title>cluster_\Haldayne\Boost\Contract</title>
<path fill="none" stroke="gray" d="M44,-822C44,-822 113,-822 113,-822 119,-822 125,-828 125,-834 125,-834 125,-936 125,-936 125,-942 119,-948 113,-948 113,-948 44,-948 44,-948 38,-948 32,-942 32,-936 32,-936 32,-834 32,-834 32,-828 38,-822 44,-822"/>
<text text-anchor="middle" x="78.5" y="-935.2" font-family="Times,serif" font-size="11.00" fill="gray">Contract</text>
</g>
<g id="clust5" class="cluster"><title>cluster_\Haldayne\Customs</title>
<path fill="none" stroke="gray" d="M598.323,-410C598.323,-410 971.167,-410 971.167,-410 977.167,-410 983.167,-416 983.167,-422 983.167,-422 983.167,-794 983.167,-794 983.167,-800 977.167,-806 971.167,-806 971.167,-806 598.323,-806 598.323,-806 592.323,-806 586.323,-800 586.323,-794 586.323,-794 586.323,-422 586.323,-422 586.323,-416 592.323,-410 598.323,-410"/>
<text text-anchor="middle" x="784.745" y="-793.2" font-family="Times,serif" font-size="11.00" fill="gray">Customs</text>
</g>
<g id="clust6" class="cluster"><title>cluster_\Haldayne\Fox</title>
<path fill="none" stroke="gray" d="M837.667,-168C837.667,-168 933.667,-168 933.667,-168 939.667,-168 945.667,-174 945.667,-180 945.667,-180 945.667,-390 945.667,-390 945.667,-396 939.667,-402 933.667,-402 933.667,-402 837.667,-402 837.667,-402 831.667,-402 825.667,-396 825.667,-390 825.667,-390 825.667,-180 825.667,-180 825.667,-174 831.667,-168 837.667,-168"/>
<text text-anchor="middle" x="885.667" y="-389.2" font-family="Times,serif" font-size="11.00" fill="gray">Fox</text>
</g>
<!-- \\Haldayne\\Boost\\Contract\\Arrayable -->
<g id="node1" class="node"><title>\\Haldayne\\Boost\\Contract\\Arrayable</title>
<polygon fill="none" stroke="black" points="117,-920 40,-920 40,-884 117,-884 117,-920"/>
<text text-anchor="middle" x="78.5" y="-899.2" font-family="Courier,monospace" font-size="11.00">Arrayable</text>
</g>
<!-- \\Haldayne\\Boost\\Contract\\Jsonable -->
<g id="node2" class="node"><title>\\Haldayne\\Boost\\Contract\\Jsonable</title>
<polygon fill="none" stroke="black" points="114,-866 43,-866 43,-830 114,-830 114,-866"/>
<text text-anchor="middle" x="78.5" y="-845.2" font-family="Courier,monospace" font-size="11.00">Jsonable</text>
</g>
<!-- \\Haldayne\\Boost\\MapOfStrings -->
<g id="node3" class="node"><title>\\Haldayne\\Boost\\MapOfStrings</title>
<polygon fill="none" stroke="black" points="702.323,-912 604.323,-912 604.323,-876 702.323,-876 702.323,-912"/>
<text text-anchor="middle" x="653.323" y="-891.2" font-family="Courier,monospace" font-size="11.00">MapOfStrings</text>
</g>
<!-- \\Haldayne\\Boost\\GuardedMapAbstract -->
<g id="node6" class="node"><title>\\Haldayne\\Boost\\GuardedMapAbstract</title>
<polygon fill="none" stroke="black" points="500.186,-889 362.186,-889 362.186,-853 500.186,-853 500.186,-889"/>
<text text-anchor="start" x="397.186" y="-874.2" font-family="Courier,monospace" font-size="11.00">«abstract»</text>
<text text-anchor="start" x="370.186" y="-862.2" font-family="Courier,monospace" font-size="11.00">GuardedMapAbstract</text>
</g>
<!-- \\Haldayne\\Boost\\MapOfStrings&#45;&gt;\\Haldayne\\Boost\\GuardedMapAbstract -->
<g id="edge1" class="edge"><title>\\Haldayne\\Boost\\MapOfStrings&#45;&gt;\\Haldayne\\Boost\\GuardedMapAbstract</title>
<path fill="none" stroke="black" d="M604.285,-888.981C576.888,-886.118 541.878,-882.461 510.596,-879.192"/>
<polygon fill="none" stroke="black" points="510.895,-875.705 500.585,-878.146 510.167,-882.667 510.895,-875.705"/>
</g>
<!-- \\Haldayne\\Boost\\MapOfFloats -->
<g id="node4" class="node"><title>\\Haldayne\\Boost\\MapOfFloats</title>
<polygon fill="none" stroke="black" points="931.167,-912 840.167,-912 840.167,-876 931.167,-876 931.167,-912"/>
<text text-anchor="middle" x="885.667" y="-891.2" font-family="Courier,monospace" font-size="11.00">MapOfFloats</text>
</g>
<!-- \\Haldayne\\Boost\\MapOfNumerics -->
<g id="node7" class="node"><title>\\Haldayne\\Boost\\MapOfNumerics</title>
<polygon fill="none" stroke="black" points="705.323,-858 601.323,-858 601.323,-822 705.323,-822 705.323,-858"/>
<text text-anchor="middle" x="653.323" y="-837.2" font-family="Courier,monospace" font-size="11.00">MapOfNumerics</text>
</g>
<!-- \\Haldayne\\Boost\\MapOfFloats&#45;&gt;\\Haldayne\\Boost\\MapOfNumerics -->
<g id="edge4" class="edge"><title>\\Haldayne\\Boost\\MapOfFloats&#45;&gt;\\Haldayne\\Boost\\MapOfNumerics</title>
<path fill="none" stroke="black" d="M839.981,-883.524C804.672,-875.247 755.002,-863.602 715.921,-854.441"/>
<polygon fill="none" stroke="black" points="716.25,-850.923 705.715,-852.048 714.652,-857.738 716.25,-850.923"/>
</g>
<!-- \\Haldayne\\Boost\\MapOfInts -->
<g id="node5" class="node"><title>\\Haldayne\\Boost\\MapOfInts</title>
<polygon fill="none" stroke="black" points="924.167,-858 847.167,-858 847.167,-822 924.167,-822 924.167,-858"/>
<text text-anchor="middle" x="885.667" y="-837.2" font-family="Courier,monospace" font-size="11.00">MapOfInts</text>
</g>
<!-- \\Haldayne\\Boost\\MapOfInts&#45;&gt;\\Haldayne\\Boost\\MapOfNumerics -->
<g id="edge5" class="edge"><title>\\Haldayne\\Boost\\MapOfInts&#45;&gt;\\Haldayne\\Boost\\MapOfNumerics</title>
<path fill="none" stroke="black" d="M847.145,-840C811.578,-840 757.518,-840 715.68,-840"/>
<polygon fill="none" stroke="black" points="715.598,-836.5 705.598,-840 715.598,-843.5 715.598,-836.5"/>
</g>
<!-- \\Haldayne\\Boost\\Map -->
<g id="node9" class="node"><title>\\Haldayne\\Boost\\Map</title>
<polygon fill="none" stroke="black" points="279.893,-862 225.893,-862 225.893,-826 279.893,-826 279.893,-862"/>
<text text-anchor="middle" x="252.893" y="-841.2" font-family="Courier,monospace" font-size="11.00">Map</text>
</g>
<!-- \\Haldayne\\Boost\\GuardedMapAbstract&#45;&gt;\\Haldayne\\Boost\\Map -->
<g id="edge6" class="edge"><title>\\Haldayne\\Boost\\GuardedMapAbstract&#45;&gt;\\Haldayne\\Boost\\Map</title>
<path fill="none" stroke="black" d="M362.027,-860.561C337.492,-856.803 310.776,-852.712 290.038,-849.536"/>
<polygon fill="none" stroke="black" points="290.493,-846.065 280.078,-848.01 289.433,-852.984 290.493,-846.065"/>
</g>
<!-- \\Haldayne\\Boost\\MapOfNumerics&#45;&gt;\\Haldayne\\Boost\\GuardedMapAbstract -->
<g id="edge11" class="edge"><title>\\Haldayne\\Boost\\MapOfNumerics&#45;&gt;\\Haldayne\\Boost\\GuardedMapAbstract</title>
<path fill="none" stroke="black" d="M601.266,-847.19C574.335,-850.982 540.713,-855.717 510.56,-859.963"/>
<polygon fill="none" stroke="black" points="509.896,-856.522 500.482,-861.383 510.872,-863.454 509.896,-856.522"/>
</g>
<!-- \\Haldayne\\Boost\\MapOfCollections -->
<g id="node8" class="node"><title>\\Haldayne\\Boost\\MapOfCollections</title>
<polygon fill="none" stroke="black" points="715.823,-966 590.823,-966 590.823,-930 715.823,-930 715.823,-966"/>
<text text-anchor="middle" x="653.323" y="-945.2" font-family="Courier,monospace" font-size="11.00">MapOfCollections</text>
</g>
<!-- \\Haldayne\\Boost\\MapOfCollections&#45;&gt;\\Haldayne\\Boost\\GuardedMapAbstract -->
<g id="edge12" class="edge"><title>\\Haldayne\\Boost\\MapOfCollections&#45;&gt;\\Haldayne\\Boost\\GuardedMapAbstract</title>
<path fill="none" stroke="black" d="M600.711,-929.947C568.672,-918.74 527.324,-904.277 493.603,-892.482"/>
<polygon fill="none" stroke="black" points="494.451,-889.071 483.856,-889.073 492.14,-895.679 494.451,-889.071"/>
</g>
<!-- \\Haldayne\\Boost\\Map&#45;&gt;\\Haldayne\\Boost\\Contract\\Arrayable -->
<g id="edge14" class="edge"><title>\\Haldayne\\Boost\\Map&#45;&gt;\\Haldayne\\Boost\\Contract\\Arrayable</title>
<path fill="none" stroke="black" stroke-dasharray="1,5" d="M225.71,-852.809C199.504,-861.626 158.606,-875.386 126.721,-886.113"/>
<polygon fill="none" stroke="black" points="125.503,-882.83 117.141,-889.336 127.735,-889.465 125.503,-882.83"/>
</g>
<!-- \\Haldayne\\Boost\\Map&#45;&gt;\\Haldayne\\Boost\\Contract\\Jsonable -->
<g id="edge15" class="edge"><title>\\Haldayne\\Boost\\Map&#45;&gt;\\Haldayne\\Boost\\Contract\\Jsonable</title>
<path fill="none" stroke="black" stroke-dasharray="1,5" d="M225.71,-844.608C198.852,-845.231 156.562,-846.212 124.358,-846.959"/>
<polygon fill="none" stroke="black" points="124.205,-843.462 114.289,-847.193 124.368,-850.46 124.205,-843.462"/>
</g>
<!-- \\ArrayAccess -->
<g id="node23" class="node"><title>\\ArrayAccess</title>
<ellipse fill="none" stroke="black" cx="78.5" cy="-18" rx="58.4896" ry="18"/>
<text text-anchor="middle" x="78.5" y="-14.3" font-family="Times,serif" font-size="14.00" fill="gray">\ArrayAccess</text>
</g>
<!-- \\Haldayne\\Boost\\Map&#45;&gt;\\ArrayAccess -->
<g id="edge16" class="edge"><title>\\Haldayne\\Boost\\Map&#45;&gt;\\ArrayAccess</title>
<path fill="none" stroke="black" stroke-dasharray="1,5" d="M252.152,-825.896C253.325,-719.043 254.318,-171.15 153.893,-45 149.581,-39.5832 144.084,-35.2528 138.036,-31.7909"/>
<polygon fill="none" stroke="black" points="139.376,-28.5507 128.854,-27.3149 136.309,-34.8429 139.376,-28.5507"/>
</g>
<!-- \\Countable -->
<g id="node25" class="node"><title>\\Countable</title>
<ellipse fill="none" stroke="black" cx="78.5" cy="-72" rx="49.2915" ry="18"/>
<text text-anchor="middle" x="78.5" y="-68.3" font-family="Times,serif" font-size="14.00" fill="gray">\Countable</text>
</g>
<!-- \\Haldayne\\Boost\\Map&#45;&gt;\\Countable -->
<g id="edge13" class="edge"><title>\\Haldayne\\Boost\\Map&#45;&gt;\\Countable</title>
<path fill="none" stroke="black" stroke-dasharray="1,5" d="M251.974,-825.792C252.072,-723.01 247.741,-215.835 153.893,-99 148.451,-92.2247 141.157,-87.1491 133.258,-83.347"/>
<polygon fill="none" stroke="black" points="134.362,-80.0163 123.782,-79.4431 131.695,-86.4886 134.362,-80.0163"/>
</g>
<!-- \\IteratorAggregate -->
<g id="node26" class="node"><title>\\IteratorAggregate</title>
<ellipse fill="none" stroke="black" cx="78.5" cy="-126" rx="75.2868" ry="18"/>
<text text-anchor="middle" x="78.5" y="-122.3" font-family="Times,serif" font-size="14.00" fill="gray">\IteratorAggregate</text>
</g>
<!-- \\Haldayne\\Boost\\Map&#45;&gt;\\IteratorAggregate -->
<g id="edge17" class="edge"><title>\\Haldayne\\Boost\\Map&#45;&gt;\\IteratorAggregate</title>
<path fill="none" stroke="black" stroke-dasharray="1,5" d="M247.546,-825.892C224.279,-728.989 114.481,-271.694 86.1718,-153.788"/>
<polygon fill="none" stroke="black" points="89.5739,-152.965 83.8359,-144.059 82.7674,-154.599 89.5739,-152.965"/>
</g>
<!-- \\Haldayne\\Customs\\UploadException -->
<g id="node10" class="node"><title>\\Haldayne\\Customs\\UploadException</title>
<polygon fill="none" stroke="black" points="712.323,-724 594.323,-724 594.323,-688 712.323,-688 712.323,-724"/>
<text text-anchor="middle" x="653.323" y="-703.2" font-family="Courier,monospace" font-size="11.00">UploadException</text>
</g>
<!-- \\RuntimeException -->
<g id="node22" class="node"><title>\\RuntimeException</title>
<ellipse fill="none" stroke="black" cx="431.186" cy="-126" rx="79.0865" ry="18"/>
<text text-anchor="middle" x="431.186" y="-122.3" font-family="Times,serif" font-size="14.00" fill="gray">\RuntimeException</text>
</g>
<!-- \\Haldayne\\Customs\\UploadException&#45;&gt;\\RuntimeException -->
<g id="edge2" class="edge"><title>\\Haldayne\\Customs\\UploadException&#45;&gt;\\RuntimeException</title>
<path fill="none" stroke="black" d="M645.371,-687.684C613.469,-603.631 481.01,-254.637 442.643,-153.55"/>
<polygon fill="none" stroke="black" points="445.851,-152.14 439.031,-144.033 439.307,-154.624 445.851,-152.14"/>
</g>
<!-- \\Haldayne\\Customs\\ServerProblemException -->
<g id="node11" class="node"><title>\\Haldayne\\Customs\\ServerProblemException</title>
<polygon fill="none" stroke="black" points="968.167,-778 803.167,-778 803.167,-742 968.167,-742 968.167,-778"/>
<text text-anchor="middle" x="885.667" y="-757.2" font-family="Courier,monospace" font-size="11.00">ServerProblemException</text>
</g>
<!-- \\Haldayne\\Customs\\ServerProblemException&#45;&gt;\\Haldayne\\Customs\\UploadException -->
<g id="edge3" class="edge"><title>\\Haldayne\\Customs\\ServerProblemException&#45;&gt;\\Haldayne\\Customs\\UploadException</title>
<path fill="none" stroke="black" d="M807.645,-741.944C780.16,-735.5 749.407,-728.291 722.7,-722.03"/>
<polygon fill="none" stroke="black" points="723.212,-718.555 712.677,-719.68 721.614,-725.37 723.212,-718.555"/>
</g>
<!-- \\Haldayne\\Customs\\SecurityConcernException -->
<g id="node12" class="node"><title>\\Haldayne\\Customs\\SecurityConcernException</title>
<polygon fill="none" stroke="black" points="975.167,-724 796.167,-724 796.167,-688 975.167,-688 975.167,-724"/>
<text text-anchor="middle" x="885.667" y="-703.2" font-family="Courier,monospace" font-size="11.00">SecurityConcernException</text>
</g>
<!-- \\Haldayne\\Customs\\SecurityConcernException&#45;&gt;\\Haldayne\\Customs\\UploadException -->
<g id="edge7" class="edge"><title>\\Haldayne\\Customs\\SecurityConcernException&#45;&gt;\\Haldayne\\Customs\\UploadException</title>
<path fill="none" stroke="black" d="M795.939,-706C771.541,-706 745.469,-706 722.432,-706"/>
<polygon fill="none" stroke="black" points="722.419,-702.5 712.419,-706 722.419,-709.5 722.419,-702.5"/>
</g>
<!-- \\Haldayne\\Customs\\UploadFile -->
<g id="node13" class="node"><title>\\Haldayne\\Customs\\UploadFile</title>
<polygon fill="none" stroke="black" points="927.667,-670 843.667,-670 843.667,-634 927.667,-634 927.667,-670"/>
<text text-anchor="middle" x="885.667" y="-649.2" font-family="Courier,monospace" font-size="11.00">UploadFile</text>
</g>
<!-- \\Haldayne\\Customs\\UploadError -->
<g id="node14" class="node"><title>\\Haldayne\\Customs\\UploadError</title>
<polygon fill="none" stroke="black" points="931.167,-616 840.167,-616 840.167,-580 931.167,-580 931.167,-616"/>
<text text-anchor="middle" x="885.667" y="-595.2" font-family="Courier,monospace" font-size="11.00">UploadError</text>
</g>
<!-- \\Haldayne\\Customs\\UploadConfig -->
<g id="node15" class="node"><title>\\Haldayne\\Customs\\UploadConfig</title>
<polygon fill="none" stroke="black" points="934.667,-562 836.667,-562 836.667,-526 934.667,-526 934.667,-562"/>
<text text-anchor="middle" x="885.667" y="-541.2" font-family="Courier,monospace" font-size="11.00">UploadConfig</text>
</g>
<!-- \\Haldayne\\Customs\\UploadIterator -->
<g id="node16" class="node"><title>\\Haldayne\\Customs\\UploadIterator</title>
<polygon fill="none" stroke="black" points="941.167,-508 830.167,-508 830.167,-472 941.167,-472 941.167,-508"/>
<text text-anchor="middle" x="885.667" y="-487.2" font-family="Courier,monospace" font-size="11.00">UploadIterator</text>
</g>
<!-- \\Haldayne\\Customs\\UploadIterator&#45;&gt;\\ArrayAccess -->
<g id="edge8" class="edge"><title>\\Haldayne\\Customs\\UploadIterator&#45;&gt;\\ArrayAccess</title>
<path fill="none" stroke="black" stroke-dasharray="1,5" d="M829.832,-483.079C817.254,-479.054 805,-472.772 796.167,-463 685.581,-340.661 848.536,-207.298 724.167,-99 566.281,38.4828 462.631,-88.0629 253.893,-72"/>
<path fill="none" stroke="black" stroke-dasharray="1,5" d="M251.893,-72C239.271,-71.6304 174.306,-50.3557 127.849,-34.6241"/>
<polygon fill="none" stroke="black" points="128.837,-31.2632 118.242,-31.3608 126.585,-37.8912 128.837,-31.2632"/>
</g>
<!-- \\SeekableIterator -->
<g id="node24" class="node"><title>\\SeekableIterator</title>
<ellipse fill="none" stroke="black" cx="653.323" cy="-126" rx="70.6878" ry="18"/>
<text text-anchor="middle" x="653.323" y="-122.3" font-family="Times,serif" font-size="14.00" fill="gray">\SeekableIterator</text>
</g>
<!-- \\Haldayne\\Customs\\UploadIterator&#45;&gt;\\SeekableIterator -->
<g id="edge9" class="edge"><title>\\Haldayne\\Customs\\UploadIterator&#45;&gt;\\SeekableIterator</title>
<path fill="none" stroke="black" stroke-dasharray="1,5" d="M829.759,-481.321C817.621,-477.329 805.587,-471.503 796.167,-463 701.509,-377.561 668.067,-218.707 658.054,-154.26"/>
<polygon fill="none" stroke="black" points="661.47,-153.435 656.544,-144.055 654.546,-154.46 661.47,-153.435"/>
</g>
<!-- \\Haldayne\\Customs\\UploadIterator&#45;&gt;\\Countable -->
<g id="edge10" class="edge"><title>\\Haldayne\\Customs\\UploadIterator&#45;&gt;\\Countable</title>
<path fill="none" stroke="black" stroke-dasharray="1,5" d="M251.893,-72C214.032,-69.0865 171.355,-69.0609 137.936,-69.7763"/>
<polygon fill="none" stroke="black" points="137.789,-66.2787 127.877,-70.0197 137.959,-73.2767 137.789,-66.2787"/>
</g>
<!-- \\Haldayne\\Customs\\HtmlNameAccessorTrait -->
<g id="node17" class="node"><title>\\Haldayne\\Customs\\HtmlNameAccessorTrait</title>
<polygon fill="none" stroke="black" points="964.667,-454 806.667,-454 806.667,-418 964.667,-418 964.667,-454"/>
<text text-anchor="middle" x="885.667" y="-433.2" font-family="Courier,monospace" font-size="11.00">HtmlNameAccessorTrait</text>
</g>
<!-- \\Haldayne\\Fox\\Y -->
<g id="node18" class="node"><title>\\Haldayne\\Fox\\Y</title>
<polygon fill="none" stroke="black" points="912.667,-374 858.667,-374 858.667,-338 912.667,-338 912.667,-374"/>
<text text-anchor="middle" x="885.667" y="-353.2" font-family="Courier,monospace" font-size="11.00">Y</text>
</g>
<!-- \\Haldayne\\Fox\\Retry -->
<g id="node19" class="node"><title>\\Haldayne\\Fox\\Retry</title>
<polygon fill="none" stroke="black" points="912.667,-320 858.667,-320 858.667,-284 912.667,-284 912.667,-320"/>
<text text-anchor="middle" x="885.667" y="-299.2" font-family="Courier,monospace" font-size="11.00">Retry</text>
</g>
<!-- \\Haldayne\\Fox\\Expression -->
<g id="node20" class="node"><title>\\Haldayne\\Fox\\Expression</title>
<polygon fill="none" stroke="black" points="927.667,-266 843.667,-266 843.667,-230 927.667,-230 927.667,-266"/>
<text text-anchor="middle" x="885.667" y="-245.2" font-family="Courier,monospace" font-size="11.00">Expression</text>
</g>
<!-- \\Haldayne\\Fox\\CaptureErrors -->
<g id="node21" class="node"><title>\\Haldayne\\Fox\\CaptureErrors</title>
<polygon fill="none" stroke="black" points="937.667,-212 833.667,-212 833.667,-176 937.667,-176 937.667,-212"/>
<text text-anchor="middle" x="885.667" y="-191.2" font-family="Courier,monospace" font-size="11.00">CaptureErrors</text>
</g>
</g>
</svg>
