<?xml version="1.0" encoding="UTF-8" standalone="no"?>
<!DOCTYPE svg PUBLIC "-//W3C//DTD SVG 1.1//EN"
 "http://www.w3.org/Graphics/SVG/1.1/DTD/svg11.dtd">
<!-- Generated by graphviz version 2.38.0 (20140413.2041)
 -->
<!-- Title: G Pages: 1 -->
<svg width="1015pt" height="1077pt"
 viewBox="0.00 0.00 1015.17 1077.31" xmlns="http://www.w3.org/2000/svg" xmlns:xlink="http://www.w3.org/1999/xlink">
<g id="graph0" class="graph" transform="scale(1 1) rotate(0) translate(4 1073.31)">
<title>G</title>
<polygon fill="white" stroke="none" points="-4,4 -4,-1073.31 1011.17,-1073.31 1011.17,4 -4,4"/>
<g id="clust1" class="cluster"><title>cluster_Global</title>
<path fill="none" stroke="gray" d="M20,-215.311C20,-215.311 987.167,-215.311 987.167,-215.311 993.167,-215.311 999.167,-221.311 999.167,-227.311 999.167,-227.311 999.167,-1049.31 999.167,-1049.31 999.167,-1055.31 993.167,-1061.31 987.167,-1061.31 987.167,-1061.31 20,-1061.31 20,-1061.31 14,-1061.31 8,-1055.31 8,-1049.31 8,-1049.31 8,-227.311 8,-227.311 8,-221.311 14,-215.311 20,-215.311"/>
<text text-anchor="middle" x="503.583" y="-1048.51" font-family="Times,serif" font-size="11.00" fill="gray">Global</text>
</g>
<g id="clust2" class="cluster"><title>cluster_\Haldayne</title>
<path fill="none" stroke="gray" d="M28,-223.311C28,-223.311 979.167,-223.311 979.167,-223.311 985.167,-223.311 991.167,-229.311 991.167,-235.311 991.167,-235.311 991.167,-1021.31 991.167,-1021.31 991.167,-1027.31 985.167,-1033.31 979.167,-1033.31 979.167,-1033.31 28,-1033.31 28,-1033.31 22,-1033.31 16,-1027.31 16,-1021.31 16,-1021.31 16,-235.311 16,-235.311 16,-229.311 22,-223.311 28,-223.311"/>
<text text-anchor="middle" x="503.583" y="-1020.51" font-family="Times,serif" font-size="11.00" fill="gray">Haldayne</text>
</g>
<g id="clust3" class="cluster"><title>cluster_\Haldayne\Boost</title>
<path fill="none" stroke="gray" d="M36,-635.311C36,-635.311 931.667,-635.311 931.667,-635.311 937.667,-635.311 943.667,-641.311 943.667,-647.311 943.667,-647.311 943.667,-993.311 943.667,-993.311 943.667,-999.311 937.667,-1005.31 931.667,-1005.31 931.667,-1005.31 36,-1005.31 36,-1005.31 30,-1005.31 24,-999.311 24,-993.311 24,-993.311 24,-647.311 24,-647.311 24,-641.311 30,-635.311 36,-635.311"/>
<text text-anchor="middle" x="483.833" y="-992.511" font-family="Times,serif" font-size="11.00" fill="gray">Boost</text>
</g>
<g id="clust4" class="cluster"><title>cluster_\Haldayne\Boost\Lambda</title>
<path fill="none" stroke="gray" d="M847.667,-743.311C847.667,-743.311 923.667,-743.311 923.667,-743.311 929.667,-743.311 935.667,-749.311 935.667,-755.311 935.667,-755.311 935.667,-965.311 935.667,-965.311 935.667,-971.311 929.667,-977.311 923.667,-977.311 923.667,-977.311 847.667,-977.311 847.667,-977.311 841.667,-977.311 835.667,-971.311 835.667,-965.311 835.667,-965.311 835.667,-755.311 835.667,-755.311 835.667,-749.311 841.667,-743.311 847.667,-743.311"/>
<text text-anchor="middle" x="885.667" y="-964.511" font-family="Times,serif" font-size="11.00" fill="gray">Lambda</text>
</g>
<g id="clust5" class="cluster"><title>cluster_\Haldayne\Boost\Contract</title>
<path fill="none" stroke="gray" d="M44,-643.311C44,-643.311 113,-643.311 113,-643.311 119,-643.311 125,-649.311 125,-655.311 125,-655.311 125,-757.311 125,-757.311 125,-763.311 119,-769.311 113,-769.311 113,-769.311 44,-769.311 44,-769.311 38,-769.311 32,-763.311 32,-757.311 32,-757.311 32,-655.311 32,-655.311 32,-649.311 38,-643.311 44,-643.311"/>
<text text-anchor="middle" x="78.5" y="-756.511" font-family="Times,serif" font-size="11.00" fill="gray">Contract</text>
</g>
<g id="clust6" class="cluster"><title>cluster_\Haldayne\Customs</title>
<path fill="none" stroke="gray" d="M598.323,-231.311C598.323,-231.311 971.167,-231.311 971.167,-231.311 977.167,-231.311 983.167,-237.311 983.167,-243.311 983.167,-243.311 983.167,-615.311 983.167,-615.311 983.167,-621.311 977.167,-627.311 971.167,-627.311 971.167,-627.311 598.323,-627.311 598.323,-627.311 592.323,-627.311 586.323,-621.311 586.323,-615.311 586.323,-615.311 586.323,-243.311 586.323,-243.311 586.323,-237.311 592.323,-231.311 598.323,-231.311"/>
<text text-anchor="middle" x="784.745" y="-614.511" font-family="Times,serif" font-size="11.00" fill="gray">Customs</text>
</g>
<!-- \\Haldayne\\Boost\\Lambda\\Retry -->
<g id="node1" class="node"><title>\\Haldayne\\Boost\\Lambda\\Retry</title>
<polygon fill="none" stroke="black" points="912.667,-949.311 858.667,-949.311 858.667,-913.311 912.667,-913.311 912.667,-949.311"/>
<text text-anchor="middle" x="885.667" y="-928.511" font-family="Courier,monospace" font-size="11.00">Retry</text>
</g>
<!-- \\Haldayne\\Boost\\Lambda\\Y -->
<g id="node2" class="node"><title>\\Haldayne\\Boost\\Lambda\\Y</title>
<polygon fill="none" stroke="black" points="912.667,-895.311 858.667,-895.311 858.667,-859.311 912.667,-859.311 912.667,-895.311"/>
<text text-anchor="middle" x="885.667" y="-874.511" font-family="Courier,monospace" font-size="11.00">Y</text>
</g>
<!-- \\Haldayne\\Boost\\Lambda\\Capture -->
<g id="node3" class="node"><title>\\Haldayne\\Boost\\Lambda\\Capture</title>
<polygon fill="none" stroke="black" points="917.667,-841.311 853.667,-841.311 853.667,-805.311 917.667,-805.311 917.667,-841.311"/>
<text text-anchor="middle" x="885.667" y="-820.511" font-family="Courier,monospace" font-size="11.00">Capture</text>
</g>
<!-- \\Haldayne\\Boost\\Lambda\\Expression -->
<g id="node4" class="node"><title>\\Haldayne\\Boost\\Lambda\\Expression</title>
<polygon fill="none" stroke="black" points="927.667,-787.311 843.667,-787.311 843.667,-751.311 927.667,-751.311 927.667,-787.311"/>
<text text-anchor="middle" x="885.667" y="-766.511" font-family="Courier,monospace" font-size="11.00">Expression</text>
</g>
<!-- \\Haldayne\\Boost\\Contract\\Arrayable -->
<g id="node5" class="node"><title>\\Haldayne\\Boost\\Contract\\Arrayable</title>
<polygon fill="none" stroke="black" points="117,-741.311 40,-741.311 40,-705.311 117,-705.311 117,-741.311"/>
<text text-anchor="middle" x="78.5" y="-720.511" font-family="Courier,monospace" font-size="11.00">Arrayable</text>
</g>
<!-- \\Haldayne\\Boost\\Contract\\Jsonable -->
<g id="node6" class="node"><title>\\Haldayne\\Boost\\Contract\\Jsonable</title>
<polygon fill="none" stroke="black" points="114,-687.311 43,-687.311 43,-651.311 114,-651.311 114,-687.311"/>
<text text-anchor="middle" x="78.5" y="-666.511" font-family="Courier,monospace" font-size="11.00">Jsonable</text>
</g>
<!-- \\Haldayne\\Boost\\MapOfStrings -->
<g id="node7" class="node"><title>\\Haldayne\\Boost\\MapOfStrings</title>
<polygon fill="none" stroke="black" points="702.323,-787.311 604.323,-787.311 604.323,-751.311 702.323,-751.311 702.323,-787.311"/>
<text text-anchor="middle" x="653.323" y="-766.511" font-family="Courier,monospace" font-size="11.00">MapOfStrings</text>
</g>
<!-- \\Haldayne\\Boost\\GuardedMapAbstract -->
<g id="node9" class="node"><title>\\Haldayne\\Boost\\GuardedMapAbstract</title>
<polygon fill="none" stroke="black" points="500.186,-710.311 362.186,-710.311 362.186,-674.311 500.186,-674.311 500.186,-710.311"/>
<text text-anchor="start" x="397.186" y="-695.511" font-family="Courier,monospace" font-size="11.00">«abstract»</text>
<text text-anchor="start" x="370.186" y="-683.511" font-family="Courier,monospace" font-size="11.00">GuardedMapAbstract</text>
</g>
<!-- \\Haldayne\\Boost\\MapOfStrings&#45;&gt;\\Haldayne\\Boost\\GuardedMapAbstract -->
<g id="edge7" class="edge"><title>\\Haldayne\\Boost\\MapOfStrings&#45;&gt;\\Haldayne\\Boost\\GuardedMapAbstract</title>
<path fill="none" stroke="black" d="M604.285,-752.508C571.791,-741.143 528.588,-726.031 493.598,-713.792"/>
<polygon fill="none" stroke="black" points="494.557,-710.42 483.962,-710.422 492.246,-717.027 494.557,-710.42"/>
</g>
<!-- \\Haldayne\\Boost\\MapOfNumerics -->
<g id="node8" class="node"><title>\\Haldayne\\Boost\\MapOfNumerics</title>
<polygon fill="none" stroke="black" points="705.323,-679.311 601.323,-679.311 601.323,-643.311 705.323,-643.311 705.323,-679.311"/>
<text text-anchor="middle" x="653.323" y="-658.511" font-family="Courier,monospace" font-size="11.00">MapOfNumerics</text>
</g>
<!-- \\Haldayne\\Boost\\MapOfNumerics&#45;&gt;\\Haldayne\\Boost\\GuardedMapAbstract -->
<g id="edge8" class="edge"><title>\\Haldayne\\Boost\\MapOfNumerics&#45;&gt;\\Haldayne\\Boost\\GuardedMapAbstract</title>
<path fill="none" stroke="black" d="M601.266,-668.501C574.335,-672.294 540.713,-677.028 510.56,-681.275"/>
<polygon fill="none" stroke="black" points="509.896,-677.833 500.482,-682.694 510.872,-684.765 509.896,-677.833"/>
</g>
<!-- \\Haldayne\\Boost\\Map -->
<g id="node12" class="node"><title>\\Haldayne\\Boost\\Map</title>
<polygon fill="none" stroke="black" points="279.893,-683.311 225.893,-683.311 225.893,-647.311 279.893,-647.311 279.893,-683.311"/>
<text text-anchor="middle" x="252.893" y="-662.511" font-family="Courier,monospace" font-size="11.00">Map</text>
</g>
<!-- \\Haldayne\\Boost\\GuardedMapAbstract&#45;&gt;\\Haldayne\\Boost\\Map -->
<g id="edge9" class="edge"><title>\\Haldayne\\Boost\\GuardedMapAbstract&#45;&gt;\\Haldayne\\Boost\\Map</title>
<path fill="none" stroke="black" d="M362.027,-681.872C337.492,-678.115 310.776,-674.023 290.038,-670.847"/>
<polygon fill="none" stroke="black" points="290.493,-667.376 280.078,-669.322 289.433,-674.295 290.493,-667.376"/>
</g>
<!-- \\Haldayne\\Boost\\MapOfCollections -->
<g id="node10" class="node"><title>\\Haldayne\\Boost\\MapOfCollections</title>
<polygon fill="none" stroke="black" points="715.823,-733.311 590.823,-733.311 590.823,-697.311 715.823,-697.311 715.823,-733.311"/>
<text text-anchor="middle" x="653.323" y="-712.511" font-family="Courier,monospace" font-size="11.00">MapOfCollections</text>
</g>
<!-- \\Haldayne\\Boost\\MapOfCollections&#45;&gt;\\Haldayne\\Boost\\GuardedMapAbstract -->
<g id="edge10" class="edge"><title>\\Haldayne\\Boost\\MapOfCollections&#45;&gt;\\Haldayne\\Boost\\GuardedMapAbstract</title>
<path fill="none" stroke="black" d="M590.71,-708.874C565.784,-706.27 536.716,-703.233 510.328,-700.476"/>
<polygon fill="none" stroke="black" points="510.67,-696.992 500.36,-699.434 509.942,-703.954 510.67,-696.992"/>
</g>
<!-- \\Haldayne\\Boost\\MapOfInts -->
<g id="node11" class="node"><title>\\Haldayne\\Boost\\MapOfInts</title>
<polygon fill="none" stroke="black" points="924.167,-733.311 847.167,-733.311 847.167,-697.311 924.167,-697.311 924.167,-733.311"/>
<text text-anchor="middle" x="885.667" y="-712.511" font-family="Courier,monospace" font-size="11.00">MapOfInts</text>
</g>
<!-- \\Haldayne\\Boost\\MapOfInts&#45;&gt;\\Haldayne\\Boost\\MapOfNumerics -->
<g id="edge11" class="edge"><title>\\Haldayne\\Boost\\MapOfInts&#45;&gt;\\Haldayne\\Boost\\MapOfNumerics</title>
<path fill="none" stroke="black" d="M847.145,-706.515C811.503,-698.159 757.29,-685.45 715.415,-675.633"/>
<polygon fill="none" stroke="black" points="716.133,-672.207 705.598,-673.332 714.535,-679.022 716.133,-672.207"/>
</g>
<!-- \\Haldayne\\Boost\\Map&#45;&gt;\\Haldayne\\Boost\\Contract\\Arrayable -->
<g id="edge13" class="edge"><title>\\Haldayne\\Boost\\Map&#45;&gt;\\Haldayne\\Boost\\Contract\\Arrayable</title>
<path fill="none" stroke="black" stroke-dasharray="1,5" d="M225.71,-674.12C199.504,-682.937 158.606,-696.697 126.721,-707.424"/>
<polygon fill="none" stroke="black" points="125.503,-704.141 117.141,-710.647 127.735,-710.776 125.503,-704.141"/>
</g>
<!-- \\Haldayne\\Boost\\Map&#45;&gt;\\Haldayne\\Boost\\Contract\\Jsonable -->
<g id="edge14" class="edge"><title>\\Haldayne\\Boost\\Map&#45;&gt;\\Haldayne\\Boost\\Contract\\Jsonable</title>
<path fill="none" stroke="black" stroke-dasharray="1,5" d="M225.71,-665.919C198.852,-666.542 156.562,-667.523 124.358,-668.27"/>
<polygon fill="none" stroke="black" points="124.205,-664.773 114.289,-668.504 124.368,-671.771 124.205,-664.773"/>
</g>
<!-- \\ArrayAccess -->
<g id="node23" class="node"><title>\\ArrayAccess</title>
<ellipse fill="none" stroke="black" cx="78.5" cy="-66.3113" rx="58.4896" ry="18"/>
<text text-anchor="middle" x="78.5" y="-62.6113" font-family="Times,serif" font-size="14.00" fill="gray">\ArrayAccess</text>
</g>
<!-- \\Haldayne\\Boost\\Map&#45;&gt;\\ArrayAccess -->
<g id="edge15" class="edge"><title>\\Haldayne\\Boost\\Map&#45;&gt;\\ArrayAccess</title>
<path fill="none" stroke="black" stroke-dasharray="1,5" d="M250.755,-647.041C245.102,-561.228 217.74,-198.601 153.893,-108.311 146.936,-98.472 136.901,-90.6477 126.443,-84.5503"/>
<polygon fill="none" stroke="black" points="128.085,-81.4597 117.617,-79.8284 124.783,-87.6319 128.085,-81.4597"/>
</g>
<!-- \\Countable -->
<g id="node25" class="node"><title>\\Countable</title>
<ellipse fill="none" stroke="black" cx="78.5" cy="-135.311" rx="49.2915" ry="18"/>
<text text-anchor="middle" x="78.5" y="-131.611" font-family="Times,serif" font-size="14.00" fill="gray">\Countable</text>
</g>
<!-- \\Haldayne\\Boost\\Map&#45;&gt;\\Countable -->
<g id="edge12" class="edge"><title>\\Haldayne\\Boost\\Map&#45;&gt;\\Countable</title>
<path fill="none" stroke="black" stroke-dasharray="1,5" d="M250.718,-647.248C245.116,-566.352 218.658,-238.038 153.893,-162.311 148.245,-155.707 140.846,-150.718 132.907,-146.949"/>
<polygon fill="none" stroke="black" points="133.992,-143.611 123.412,-143.062 131.34,-150.089 133.992,-143.611"/>
</g>
<!-- \\IteratorAggregate -->
<g id="node26" class="node"><title>\\IteratorAggregate</title>
<ellipse fill="none" stroke="black" cx="78.5" cy="-189.311" rx="75.2868" ry="18"/>
<text text-anchor="middle" x="78.5" y="-185.611" font-family="Times,serif" font-size="14.00" fill="gray">\IteratorAggregate</text>
</g>
<!-- \\Haldayne\\Boost\\Map&#45;&gt;\\IteratorAggregate -->
<g id="edge16" class="edge"><title>\\Haldayne\\Boost\\Map&#45;&gt;\\IteratorAggregate</title>
<path fill="none" stroke="black" stroke-dasharray="1,5" d="M245.346,-647.233C219.078,-574.705 121.234,-304.545 89.5036,-216.932"/>
<polygon fill="none" stroke="black" points="92.7502,-215.618 86.054,-207.408 86.1685,-218.002 92.7502,-215.618"/>
</g>
<!-- \\Haldayne\\Boost\\MapOfFloats -->
<g id="node13" class="node"><title>\\Haldayne\\Boost\\MapOfFloats</title>
<polygon fill="none" stroke="black" points="931.167,-679.311 840.167,-679.311 840.167,-643.311 931.167,-643.311 931.167,-679.311"/>
<text text-anchor="middle" x="885.667" y="-658.511" font-family="Courier,monospace" font-size="11.00">MapOfFloats</text>
</g>
<!-- \\Haldayne\\Boost\\MapOfFloats&#45;&gt;\\Haldayne\\Boost\\MapOfNumerics -->
<g id="edge17" class="edge"><title>\\Haldayne\\Boost\\MapOfFloats&#45;&gt;\\Haldayne\\Boost\\MapOfNumerics</title>
<path fill="none" stroke="black" d="M839.981,-661.311C804.672,-661.311 755.002,-661.311 715.921,-661.311"/>
<polygon fill="none" stroke="black" points="715.715,-657.811 705.715,-661.311 715.715,-664.811 715.715,-657.811"/>
</g>
<!-- \\Haldayne\\Customs\\UploadException -->
<g id="node14" class="node"><title>\\Haldayne\\Customs\\UploadException</title>
<polygon fill="none" stroke="black" points="712.323,-545.311 594.323,-545.311 594.323,-509.311 712.323,-509.311 712.323,-545.311"/>
<text text-anchor="middle" x="653.323" y="-524.511" font-family="Courier,monospace" font-size="11.00">UploadException</text>
</g>
<!-- \\RuntimeException -->
<g id="node22" class="node"><title>\\RuntimeException</title>
<ellipse fill="none" stroke="black" cx="431.186" cy="-189.311" rx="79.0865" ry="18"/>
<text text-anchor="middle" x="431.186" y="-185.611" font-family="Times,serif" font-size="14.00" fill="gray">\RuntimeException</text>
</g>
<!-- \\Haldayne\\Customs\\UploadException&#45;&gt;\\RuntimeException -->
<g id="edge1" class="edge"><title>\\Haldayne\\Customs\\UploadException&#45;&gt;\\RuntimeException</title>
<path fill="none" stroke="black" d="M640.487,-509.139C603.896,-452.956 492.473,-281.876 449.419,-215.771"/>
<polygon fill="none" stroke="black" points="452.203,-213.633 443.813,-207.163 446.338,-217.453 452.203,-213.633"/>
</g>
<!-- \\Haldayne\\Customs\\ServerProblemException -->
<g id="node15" class="node"><title>\\Haldayne\\Customs\\ServerProblemException</title>
<polygon fill="none" stroke="black" points="968.167,-599.311 803.167,-599.311 803.167,-563.311 968.167,-563.311 968.167,-599.311"/>
<text text-anchor="middle" x="885.667" y="-578.511" font-family="Courier,monospace" font-size="11.00">ServerProblemException</text>
</g>
<!-- \\Haldayne\\Customs\\ServerProblemException&#45;&gt;\\Haldayne\\Customs\\UploadException -->
<g id="edge2" class="edge"><title>\\Haldayne\\Customs\\ServerProblemException&#45;&gt;\\Haldayne\\Customs\\UploadException</title>
<path fill="none" stroke="black" d="M807.645,-563.255C780.16,-556.812 749.407,-549.602 722.7,-543.341"/>
<polygon fill="none" stroke="black" points="723.212,-539.866 712.677,-540.991 721.614,-546.681 723.212,-539.866"/>
</g>
<!-- \\Haldayne\\Customs\\SecurityConcernException -->
<g id="node16" class="node"><title>\\Haldayne\\Customs\\SecurityConcernException</title>
<polygon fill="none" stroke="black" points="975.167,-545.311 796.167,-545.311 796.167,-509.311 975.167,-509.311 975.167,-545.311"/>
<text text-anchor="middle" x="885.667" y="-524.511" font-family="Courier,monospace" font-size="11.00">SecurityConcernException</text>
</g>
<!-- \\Haldayne\\Customs\\SecurityConcernException&#45;&gt;\\Haldayne\\Customs\\UploadException -->
<g id="edge3" class="edge"><title>\\Haldayne\\Customs\\SecurityConcernException&#45;&gt;\\Haldayne\\Customs\\UploadException</title>
<path fill="none" stroke="black" d="M795.939,-527.311C771.541,-527.311 745.469,-527.311 722.432,-527.311"/>
<polygon fill="none" stroke="black" points="722.419,-523.811 712.419,-527.311 722.419,-530.811 722.419,-523.811"/>
</g>
<!-- \\Haldayne\\Customs\\UploadFile -->
<g id="node17" class="node"><title>\\Haldayne\\Customs\\UploadFile</title>
<polygon fill="none" stroke="black" points="927.667,-491.311 843.667,-491.311 843.667,-455.311 927.667,-455.311 927.667,-491.311"/>
<text text-anchor="middle" x="885.667" y="-470.511" font-family="Courier,monospace" font-size="11.00">UploadFile</text>
</g>
<!-- \\Haldayne\\Customs\\UploadError -->
<g id="node18" class="node"><title>\\Haldayne\\Customs\\UploadError</title>
<polygon fill="none" stroke="black" points="931.167,-437.311 840.167,-437.311 840.167,-401.311 931.167,-401.311 931.167,-437.311"/>
<text text-anchor="middle" x="885.667" y="-416.511" font-family="Courier,monospace" font-size="11.00">UploadError</text>
</g>
<!-- \\Haldayne\\Customs\\UploadConfig -->
<g id="node19" class="node"><title>\\Haldayne\\Customs\\UploadConfig</title>
<polygon fill="none" stroke="black" points="934.667,-383.311 836.667,-383.311 836.667,-347.311 934.667,-347.311 934.667,-383.311"/>
<text text-anchor="middle" x="885.667" y="-362.511" font-family="Courier,monospace" font-size="11.00">UploadConfig</text>
</g>
<!-- \\Haldayne\\Customs\\UploadIterator -->
<g id="node20" class="node"><title>\\Haldayne\\Customs\\UploadIterator</title>
<polygon fill="none" stroke="black" points="941.167,-329.311 830.167,-329.311 830.167,-293.311 941.167,-293.311 941.167,-329.311"/>
<text text-anchor="middle" x="885.667" y="-308.511" font-family="Courier,monospace" font-size="11.00">UploadIterator</text>
</g>
<!-- \\Haldayne\\Customs\\UploadIterator&#45;&gt;\\ArrayAccess -->
<g id="edge4" class="edge"><title>\\Haldayne\\Customs\\UploadIterator&#45;&gt;\\ArrayAccess</title>
<path fill="none" stroke="black" stroke-dasharray="1,5" d="M829.834,-303.198C817.552,-299.189 805.434,-293.214 796.167,-284.311 726.225,-217.121 802.729,-135.182 724.167,-78.3113 540.682,54.5124 244.481,-15.1444 128.394,-50.1722"/>
<polygon fill="none" stroke="black" points="127.245,-46.8635 118.71,-53.1408 129.297,-53.5562 127.245,-46.8635"/>
</g>
<!-- \\SeekableIterator -->
<g id="node24" class="node"><title>\\SeekableIterator</title>
<ellipse fill="none" stroke="black" cx="653.323" cy="-105.311" rx="70.6878" ry="18"/>
<text text-anchor="middle" x="653.323" y="-101.611" font-family="Times,serif" font-size="14.00" fill="gray">\SeekableIterator</text>
</g>
<!-- \\Haldayne\\Customs\\UploadIterator&#45;&gt;\\SeekableIterator -->
<g id="edge5" class="edge"><title>\\Haldayne\\Customs\\UploadIterator&#45;&gt;\\SeekableIterator</title>
<path fill="none" stroke="black" stroke-dasharray="1,5" d="M830.101,-302.242C817.951,-298.264 805.826,-292.542 796.167,-284.311 740.794,-237.127 776.268,-188.084 724.167,-137.311 718.979,-132.256 712.848,-127.905 706.409,-124.187"/>
<polygon fill="none" stroke="black" points="707.976,-121.057 697.496,-119.504 704.72,-127.254 707.976,-121.057"/>
</g>
<!-- \\Haldayne\\Customs\\UploadIterator&#45;&gt;\\Countable -->
<g id="edge6" class="edge"><title>\\Haldayne\\Customs\\UploadIterator&#45;&gt;\\Countable</title>
<path fill="none" stroke="black" stroke-dasharray="1,5" d="M830.069,-295.661C818.786,-292.146 807.032,-288.276 796.167,-284.311 666.465,-236.988 644.811,-194.201 510.479,-162.311 380.064,-131.351 221.594,-130.467 137.87,-132.749"/>
<polygon fill="none" stroke="black" points="137.683,-129.253 127.792,-133.05 137.891,-136.25 137.683,-129.253"/>
</g>
<!-- \\Haldayne\\Customs\\HtmlNameAccessorTrait -->
<g id="node21" class="node"><title>\\Haldayne\\Customs\\HtmlNameAccessorTrait</title>
<polygon fill="none" stroke="black" points="964.667,-275.311 806.667,-275.311 806.667,-239.311 964.667,-239.311 964.667,-275.311"/>
<text text-anchor="middle" x="885.667" y="-254.511" font-family="Courier,monospace" font-size="11.00">HtmlNameAccessorTrait</text>
</g>
</g>
</svg>
