<?xml version="1.0" encoding="UTF-8" standalone="no"?>
<!DOCTYPE svg PUBLIC "-//W3C//DTD SVG 1.1//EN"
 "http://www.w3.org/Graphics/SVG/1.1/DTD/svg11.dtd">
<!-- Generated by graphviz version 2.38.0 (20140413.2041)
 -->
<!-- Title: G Pages: 1 -->
<svg width="743pt" height="778pt"
 viewBox="0.00 0.00 743.37 778.00" xmlns="http://www.w3.org/2000/svg" xmlns:xlink="http://www.w3.org/1999/xlink">
<g id="graph0" class="graph" transform="scale(1 1) rotate(0) translate(4 774)">
<title>G</title>
<polygon fill="white" stroke="none" points="-4,4 -4,-774 739.371,-774 739.371,4 -4,4"/>
<g id="clust1" class="cluster"><title>cluster_Global</title>
<path fill="none" stroke="gray" d="M20,-152C20,-152 715.371,-152 715.371,-152 721.371,-152 727.371,-158 727.371,-164 727.371,-164 727.371,-750 727.371,-750 727.371,-756 721.371,-762 715.371,-762 715.371,-762 20,-762 20,-762 14,-762 8,-756 8,-750 8,-750 8,-164 8,-164 8,-158 14,-152 20,-152"/>
<text text-anchor="middle" x="367.685" y="-749.2" font-family="Times,serif" font-size="11.00" fill="gray">Global</text>
</g>
<g id="clust2" class="cluster"><title>cluster_\Haldayne</title>
<path fill="none" stroke="gray" d="M28,-160C28,-160 707.371,-160 707.371,-160 713.371,-160 719.371,-166 719.371,-172 719.371,-172 719.371,-722 719.371,-722 719.371,-728 713.371,-734 707.371,-734 707.371,-734 28,-734 28,-734 22,-734 16,-728 16,-722 16,-722 16,-172 16,-172 16,-166 22,-160 28,-160"/>
<text text-anchor="middle" x="367.685" y="-721.2" font-family="Times,serif" font-size="11.00" fill="gray">Haldayne</text>
</g>
<g id="clust3" class="cluster"><title>cluster_\Haldayne\Customs</title>
<path fill="none" stroke="gray" d="M555.371,-248C555.371,-248 699.371,-248 699.371,-248 705.371,-248 711.371,-254 711.371,-260 711.371,-260 711.371,-524 711.371,-524 711.371,-530 705.371,-536 699.371,-536 699.371,-536 555.371,-536 555.371,-536 549.371,-536 543.371,-530 543.371,-524 543.371,-524 543.371,-260 543.371,-260 543.371,-254 549.371,-248 555.371,-248"/>
<text text-anchor="middle" x="627.371" y="-523.2" font-family="Times,serif" font-size="11.00" fill="gray">Customs</text>
</g>
<g id="clust4" class="cluster"><title>cluster_\Haldayne\Boost</title>
<path fill="none" stroke="gray" d="M36,-544C36,-544 661.871,-544 661.871,-544 667.871,-544 673.871,-550 673.871,-556 673.871,-556 673.871,-694 673.871,-694 673.871,-700 667.871,-706 661.871,-706 661.871,-706 36,-706 36,-706 30,-706 24,-700 24,-694 24,-694 24,-556 24,-556 24,-550 30,-544 36,-544"/>
<text text-anchor="middle" x="348.935" y="-693.2" font-family="Times,serif" font-size="11.00" fill="gray">Boost</text>
</g>
<g id="clust5" class="cluster"><title>cluster_\Haldayne\Boost\Contract</title>
<path fill="none" stroke="gray" d="M44,-552C44,-552 113,-552 113,-552 119,-552 125,-558 125,-564 125,-564 125,-666 125,-666 125,-672 119,-678 113,-678 113,-678 44,-678 44,-678 38,-678 32,-672 32,-666 32,-666 32,-564 32,-564 32,-558 38,-552 44,-552"/>
<text text-anchor="middle" x="78.5" y="-665.2" font-family="Times,serif" font-size="11.00" fill="gray">Contract</text>
</g>
<g id="clust6" class="cluster"><title>cluster_\Haldayne\DataStructure</title>
<path fill="none" stroke="gray" d="M575.871,-168C575.871,-168 678.871,-168 678.871,-168 684.871,-168 690.871,-174 690.871,-180 690.871,-180 690.871,-228 690.871,-228 690.871,-234 684.871,-240 678.871,-240 678.871,-240 575.871,-240 575.871,-240 569.871,-240 563.871,-234 563.871,-228 563.871,-228 563.871,-180 563.871,-180 563.871,-174 569.871,-168 575.871,-168"/>
<text text-anchor="middle" x="627.371" y="-227.2" font-family="Times,serif" font-size="11.00" fill="gray">DataStructure</text>
</g>
<!-- \\Haldayne\\Customs\\UploadException -->
<g id="node1" class="node"><title>\\Haldayne\\Customs\\UploadException</title>
<polygon fill="none" stroke="black" points="686.371,-454 568.371,-454 568.371,-418 686.371,-418 686.371,-454"/>
<text text-anchor="middle" x="627.371" y="-433.2" font-family="Courier,monospace" font-size="11.00">UploadException</text>
</g>
<!-- \\RuntimeException -->
<g id="node11" class="node"><title>\\RuntimeException</title>
<ellipse fill="none" stroke="black" cx="352.632" cy="-72" rx="79.0865" ry="18"/>
<text text-anchor="middle" x="352.632" y="-68.3" font-family="Times,serif" font-size="14.00" fill="gray">\RuntimeException</text>
</g>
<!-- \\Haldayne\\Customs\\UploadException&#45;&gt;\\RuntimeException -->
<g id="edge1" class="edge"><title>\\Haldayne\\Customs\\UploadException&#45;&gt;\\RuntimeException</title>
<path fill="none" stroke="black" d="M568.097,-425.775C558.787,-421.857 550.04,-416.453 543.371,-409 449.559,-304.161 578.454,-198.872 479.371,-99 468.958,-88.5042 455.519,-81.6317 441.316,-77.2103"/>
<polygon fill="none" stroke="black" points="441.956,-73.7577 431.389,-74.5265 440.129,-80.5151 441.956,-73.7577"/>
</g>
<!-- \\Haldayne\\Customs\\UploadIteratorTest -->
<g id="node2" class="node"><title>\\Haldayne\\Customs\\UploadIteratorTest</title>
<polygon fill="none" stroke="black" points="696.371,-346 558.371,-346 558.371,-310 696.371,-310 696.371,-346"/>
<text text-anchor="middle" x="627.371" y="-325.2" font-family="Courier,monospace" font-size="11.00">UploadIteratorTest</text>
</g>
<!-- \\PHPUnit_Framework_TestCase -->
<g id="node12" class="node"><title>\\PHPUnit_Framework_TestCase</title>
<ellipse fill="none" stroke="black" cx="352.632" cy="-18" rx="126.978" ry="18"/>
<text text-anchor="middle" x="352.632" y="-14.3" font-family="Times,serif" font-size="14.00" fill="gray">\PHPUnit_Framework_TestCase</text>
</g>
<!-- \\Haldayne\\Customs\\UploadIteratorTest&#45;&gt;\\PHPUnit_Framework_TestCase -->
<g id="edge2" class="edge"><title>\\Haldayne\\Customs\\UploadIteratorTest&#45;&gt;\\PHPUnit_Framework_TestCase</title>
<path fill="none" stroke="black" d="M558.043,-312.469C552.618,-309.324 547.609,-305.543 543.371,-301 463.374,-215.239 563.676,-126.53 479.371,-45 474.684,-40.4673 469.43,-36.6173 463.799,-33.3534"/>
<polygon fill="none" stroke="black" points="465.167,-30.1218 454.669,-28.6927 461.984,-36.3566 465.167,-30.1218"/>
</g>
<!-- \\Haldayne\\Customs\\AbstractUploadEntity -->
<g id="node3" class="node"><title>\\Haldayne\\Customs\\AbstractUploadEntity</title>
<polygon fill="none" stroke="black" points="703.371,-400 551.371,-400 551.371,-364 703.371,-364 703.371,-400"/>
<text text-anchor="start" x="593.371" y="-385.2" font-family="Courier,monospace" font-size="11.00">«abstract»</text>
<text text-anchor="start" x="559.371" y="-373.2" font-family="Courier,monospace" font-size="11.00">AbstractUploadEntity</text>
</g>
<!-- \\Haldayne\\Customs\\UploadIterator -->
<g id="node4" class="node"><title>\\Haldayne\\Customs\\UploadIterator</title>
<polygon fill="none" stroke="black" points="682.871,-508 571.871,-508 571.871,-472 682.871,-472 682.871,-508"/>
<text text-anchor="middle" x="627.371" y="-487.2" font-family="Courier,monospace" font-size="11.00">UploadIterator</text>
</g>
<!-- \\ArrayAccess -->
<g id="node13" class="node"><title>\\ArrayAccess</title>
<ellipse fill="none" stroke="black" cx="78.5" cy="-72" rx="58.4896" ry="18"/>
<text text-anchor="middle" x="78.5" y="-68.3" font-family="Times,serif" font-size="14.00" fill="gray">\ArrayAccess</text>
</g>
<!-- \\Haldayne\\Customs\\UploadIterator&#45;&gt;\\ArrayAccess -->
<g id="edge3" class="edge"><title>\\Haldayne\\Customs\\UploadIterator&#45;&gt;\\ArrayAccess</title>
<path fill="none" stroke="black" stroke-dasharray="1,5" d="M351.632,-172C306.504,-137.974 278.022,-174.839 225.893,-153 189,-137.544 189.076,-118.03 153.893,-99 146.51,-95.0064 138.414,-91.3812 130.365,-88.176"/>
<polygon fill="none" stroke="black" points="131.576,-84.8919 120.985,-84.6094 129.088,-91.4349 131.576,-84.8919"/>
</g>
<!-- \\SeekableIterator -->
<g id="node14" class="node"><title>\\SeekableIterator</title>
<ellipse fill="none" stroke="black" cx="352.632" cy="-126" rx="70.6878" ry="18"/>
<text text-anchor="middle" x="352.632" y="-122.3" font-family="Times,serif" font-size="14.00" fill="gray">\SeekableIterator</text>
</g>
<!-- \\Haldayne\\Customs\\UploadIterator&#45;&gt;\\SeekableIterator -->
<g id="edge4" class="edge"><title>\\Haldayne\\Customs\\UploadIterator&#45;&gt;\\SeekableIterator</title>
<path fill="none" stroke="black" stroke-dasharray="1,5" d="M571.525,-481.116C560.957,-477.12 550.862,-471.344 543.371,-463 450.843,-359.932 575.214,-257.993 479.371,-158 466.811,-144.897 449.701,-136.872 432.149,-132.026"/>
<polygon fill="none" stroke="black" points="432.922,-128.613 422.378,-129.65 431.267,-135.414 432.922,-128.613"/>
</g>
<!-- \\Countable -->
<g id="node15" class="node"><title>\\Countable</title>
<ellipse fill="none" stroke="black" cx="78.5" cy="-18" rx="49.2915" ry="18"/>
<text text-anchor="middle" x="78.5" y="-14.3" font-family="Times,serif" font-size="14.00" fill="gray">\Countable</text>
</g>
<!-- \\Haldayne\\Customs\\UploadIterator&#45;&gt;\\Countable -->
<g id="edge5" class="edge"><title>\\Haldayne\\Customs\\UploadIterator&#45;&gt;\\Countable</title>
<path fill="none" stroke="black" stroke-dasharray="1,5" d="M571.495,-478.006C561.526,-474.251 551.671,-469.359 543.371,-463 420.809,-369.101 476.913,-264.952 353.632,-172"/>
<path fill="none" stroke="black" stroke-dasharray="1,5" d="M351.632,-172C306.504,-137.974 273.586,-183.327 225.893,-153 177.213,-122.045 199.273,-80.6189 153.893,-45 146.826,-39.4527 138.515,-34.9776 130.057,-31.389"/>
<polygon fill="none" stroke="black" points="131.094,-28.0375 120.504,-27.7041 128.574,-34.5685 131.094,-28.0375"/>
</g>
<!-- \\Haldayne\\Customs\\UploadFailure -->
<g id="node5" class="node"><title>\\Haldayne\\Customs\\UploadFailure</title>
<polygon fill="none" stroke="black" points="679.371,-292 575.371,-292 575.371,-256 679.371,-256 679.371,-292"/>
<text text-anchor="middle" x="627.371" y="-271.2" font-family="Courier,monospace" font-size="11.00">UploadFailure</text>
</g>
<!-- \\Haldayne\\Boost\\Contract\\Arrayable -->
<g id="node6" class="node"><title>\\Haldayne\\Boost\\Contract\\Arrayable</title>
<polygon fill="none" stroke="black" points="117,-596 40,-596 40,-560 117,-560 117,-596"/>
<text text-anchor="middle" x="78.5" y="-575.2" font-family="Courier,monospace" font-size="11.00">Arrayable</text>
</g>
<!-- \\Haldayne\\Boost\\Contract\\Jsonable -->
<g id="node7" class="node"><title>\\Haldayne\\Boost\\Contract\\Jsonable</title>
<polygon fill="none" stroke="black" points="114,-650 43,-650 43,-614 114,-614 114,-650"/>
<text text-anchor="middle" x="78.5" y="-629.2" font-family="Courier,monospace" font-size="11.00">Jsonable</text>
</g>
<!-- \\Haldayne\\Boost\\Map -->
<g id="node8" class="node"><title>\\Haldayne\\Boost\\Map</title>
<polygon fill="none" stroke="black" points="379.632,-588 325.632,-588 325.632,-552 379.632,-552 379.632,-588"/>
<text text-anchor="middle" x="352.632" y="-567.2" font-family="Courier,monospace" font-size="11.00">Map</text>
</g>
<!-- \\Haldayne\\Boost\\Map&#45;&gt;\\Haldayne\\Boost\\Contract\\Arrayable -->
<g id="edge8" class="edge"><title>\\Haldayne\\Boost\\Map&#45;&gt;\\Haldayne\\Boost\\Contract\\Arrayable</title>
<path fill="none" stroke="black" stroke-dasharray="1,5" d="M325.539,-570.767C279.953,-572.107 185.176,-574.893 127.474,-576.59"/>
<polygon fill="none" stroke="black" points="127.044,-573.101 117.151,-576.893 127.25,-580.098 127.044,-573.101"/>
</g>
<!-- \\Haldayne\\Boost\\Map&#45;&gt;\\Haldayne\\Boost\\Contract\\Jsonable -->
<g id="edge9" class="edge"><title>\\Haldayne\\Boost\\Map&#45;&gt;\\Haldayne\\Boost\\Contract\\Jsonable</title>
<path fill="none" stroke="black" stroke-dasharray="1,5" d="M325.539,-575.945C279.105,-586.524 181.635,-608.73 124.294,-621.794"/>
<polygon fill="none" stroke="black" points="123.392,-618.41 114.42,-624.044 124.947,-625.235 123.392,-618.41"/>
</g>
<!-- \\Haldayne\\Boost\\Map&#45;&gt;\\ArrayAccess -->
<g id="edge10" class="edge"><title>\\Haldayne\\Boost\\Map&#45;&gt;\\ArrayAccess</title>
<path fill="none" stroke="black" stroke-dasharray="1,5" d="M349.25,-551.719C339.269,-482.397 294.573,-232.905 153.893,-99 148.625,-93.9852 142.354,-89.8899 135.721,-86.5482"/>
<polygon fill="none" stroke="black" points="137.07,-83.3176 126.511,-82.4429 134.22,-89.7111 137.07,-83.3176"/>
</g>
<!-- \\Haldayne\\Boost\\Map&#45;&gt;\\Countable -->
<g id="edge7" class="edge"><title>\\Haldayne\\Boost\\Map&#45;&gt;\\Countable</title>
<path fill="none" stroke="black" stroke-dasharray="1,5" d="M345.829,-551.946C317.452,-464.068 193.082,-83.7189 153.893,-45 147.573,-38.7555 139.699,-33.943 131.46,-30.2374"/>
<polygon fill="none" stroke="black" points="132.651,-26.9447 122.065,-26.5067 130.067,-33.4505 132.651,-26.9447"/>
</g>
<!-- \\IteratorAggregate -->
<g id="node16" class="node"><title>\\IteratorAggregate</title>
<ellipse fill="none" stroke="black" cx="78.5" cy="-126" rx="75.2868" ry="18"/>
<text text-anchor="middle" x="78.5" y="-122.3" font-family="Times,serif" font-size="14.00" fill="gray">\IteratorAggregate</text>
</g>
<!-- \\Haldayne\\Boost\\Map&#45;&gt;\\IteratorAggregate -->
<g id="edge11" class="edge"><title>\\Haldayne\\Boost\\Map&#45;&gt;\\IteratorAggregate</title>
<path fill="none" stroke="black" stroke-dasharray="1,5" d="M340.457,-551.767C297.987,-482.474 146.465,-235.257 95.9916,-152.907"/>
<polygon fill="none" stroke="black" points="98.828,-150.837 90.6182,-144.14 92.8598,-154.495 98.828,-150.837"/>
</g>
<!-- \\Haldayne\\Boost\\MapOfMaps -->
<g id="node9" class="node"><title>\\Haldayne\\Boost\\MapOfMaps</title>
<polygon fill="none" stroke="black" points="665.871,-588 588.871,-588 588.871,-552 665.871,-552 665.871,-588"/>
<text text-anchor="middle" x="627.371" y="-567.2" font-family="Courier,monospace" font-size="11.00">MapOfMaps</text>
</g>
<!-- \\Haldayne\\Boost\\MapOfMaps&#45;&gt;\\Haldayne\\Boost\\Map -->
<g id="edge12" class="edge"><title>\\Haldayne\\Boost\\MapOfMaps&#45;&gt;\\Haldayne\\Boost\\Map</title>
<path fill="none" stroke="black" d="M588.734,-570C536.236,-570 441.663,-570 389.905,-570"/>
<polygon fill="none" stroke="black" points="389.845,-566.5 379.845,-570 389.845,-573.5 389.845,-566.5"/>
</g>
<!-- \\Haldayne\\DataStructure\\CollectionTest -->
<g id="node10" class="node"><title>\\Haldayne\\DataStructure\\CollectionTest</title>
<polygon fill="none" stroke="black" points="682.871,-212 571.871,-212 571.871,-176 682.871,-176 682.871,-212"/>
<text text-anchor="middle" x="627.371" y="-191.2" font-family="Courier,monospace" font-size="11.00">CollectionTest</text>
</g>
<!-- \\Haldayne\\DataStructure\\CollectionTest&#45;&gt;\\PHPUnit_Framework_TestCase -->
<g id="edge6" class="edge"><title>\\Haldayne\\DataStructure\\CollectionTest&#45;&gt;\\PHPUnit_Framework_TestCase</title>
<path fill="none" stroke="black" d="M613.987,-175.766C591.283,-143.853 539.741,-78.1247 479.371,-45 471.163,-40.4962 462.27,-36.7435 453.137,-33.6166"/>
<polygon fill="none" stroke="black" points="454.141,-30.2633 443.551,-30.5793 452.026,-36.9364 454.141,-30.2633"/>
</g>
</g>
</svg>
