<?xml version="1.0" encoding="UTF-8" standalone="no"?>
<!DOCTYPE svg PUBLIC "-//W3C//DTD SVG 1.1//EN"
 "http://www.w3.org/Graphics/SVG/1.1/DTD/svg11.dtd">
<!-- Generated by graphviz version 2.38.0 (20140413.2041)
 -->
<!-- Title: G Pages: 1 -->
<svg width="819pt" height="832pt"
 viewBox="0.00 0.00 818.76 832.00" xmlns="http://www.w3.org/2000/svg" xmlns:xlink="http://www.w3.org/1999/xlink">
<g id="graph0" class="graph" transform="scale(1 1) rotate(0) translate(4 828)">
<title>G</title>
<polygon fill="white" stroke="none" points="-4,4 -4,-828 814.764,-828 814.764,4 -4,4"/>
<g id="clust1" class="cluster"><title>cluster_Global</title>
<path fill="none" stroke="gray" d="M20,-206C20,-206 790.764,-206 790.764,-206 796.764,-206 802.764,-212 802.764,-218 802.764,-218 802.764,-804 802.764,-804 802.764,-810 796.764,-816 790.764,-816 790.764,-816 20,-816 20,-816 14,-816 8,-810 8,-804 8,-804 8,-218 8,-218 8,-212 14,-206 20,-206"/>
<text text-anchor="middle" x="405.382" y="-803.2" font-family="Times,serif" font-size="11.00" fill="gray">Global</text>
</g>
<g id="clust2" class="cluster"><title>cluster_\Haldayne</title>
<path fill="none" stroke="gray" d="M28,-214C28,-214 782.764,-214 782.764,-214 788.764,-214 794.764,-220 794.764,-226 794.764,-226 794.764,-776 794.764,-776 794.764,-782 788.764,-788 782.764,-788 782.764,-788 28,-788 28,-788 22,-788 16,-782 16,-776 16,-776 16,-226 16,-226 16,-220 22,-214 28,-214"/>
<text text-anchor="middle" x="405.382" y="-775.2" font-family="Times,serif" font-size="11.00" fill="gray">Haldayne</text>
</g>
<g id="clust3" class="cluster"><title>cluster_\Haldayne\Customs</title>
<path fill="none" stroke="gray" d="M630.764,-302C630.764,-302 774.764,-302 774.764,-302 780.764,-302 786.764,-308 786.764,-314 786.764,-314 786.764,-578 786.764,-578 786.764,-584 780.764,-590 774.764,-590 774.764,-590 630.764,-590 630.764,-590 624.764,-590 618.764,-584 618.764,-578 618.764,-578 618.764,-314 618.764,-314 618.764,-308 624.764,-302 630.764,-302"/>
<text text-anchor="middle" x="702.764" y="-577.2" font-family="Times,serif" font-size="11.00" fill="gray">Customs</text>
</g>
<g id="clust4" class="cluster"><title>cluster_\Haldayne\Boost</title>
<path fill="none" stroke="gray" d="M36,-598C36,-598 737.264,-598 737.264,-598 743.264,-598 749.264,-604 749.264,-610 749.264,-610 749.264,-748 749.264,-748 749.264,-754 743.264,-760 737.264,-760 737.264,-760 36,-760 36,-760 30,-760 24,-754 24,-748 24,-748 24,-610 24,-610 24,-604 30,-598 36,-598"/>
<text text-anchor="middle" x="386.632" y="-747.2" font-family="Times,serif" font-size="11.00" fill="gray">Boost</text>
</g>
<g id="clust5" class="cluster"><title>cluster_\Haldayne\Boost\Contract</title>
<path fill="none" stroke="gray" d="M44,-606C44,-606 113,-606 113,-606 119,-606 125,-612 125,-618 125,-618 125,-720 125,-720 125,-726 119,-732 113,-732 113,-732 44,-732 44,-732 38,-732 32,-726 32,-720 32,-720 32,-618 32,-618 32,-612 38,-606 44,-606"/>
<text text-anchor="middle" x="78.5" y="-719.2" font-family="Times,serif" font-size="11.00" fill="gray">Contract</text>
</g>
<g id="clust6" class="cluster"><title>cluster_\Haldayne\DataStructure</title>
<path fill="none" stroke="gray" d="M651.264,-222C651.264,-222 754.264,-222 754.264,-222 760.264,-222 766.264,-228 766.264,-234 766.264,-234 766.264,-282 766.264,-282 766.264,-288 760.264,-294 754.264,-294 754.264,-294 651.264,-294 651.264,-294 645.264,-294 639.264,-288 639.264,-282 639.264,-282 639.264,-234 639.264,-234 639.264,-228 645.264,-222 651.264,-222"/>
<text text-anchor="middle" x="702.764" y="-281.2" font-family="Times,serif" font-size="11.00" fill="gray">DataStructure</text>
</g>
<!-- \\Haldayne\\Customs\\UploadException -->
<g id="node1" class="node"><title>\\Haldayne\\Customs\\UploadException</title>
<polygon fill="none" stroke="black" points="761.764,-508 643.764,-508 643.764,-472 761.764,-472 761.764,-508"/>
<text text-anchor="middle" x="702.764" y="-487.2" font-family="Courier,monospace" font-size="11.00">UploadException</text>
</g>
<!-- \\RuntimeException -->
<g id="node11" class="node"><title>\\RuntimeException</title>
<ellipse fill="none" stroke="black" cx="390.329" cy="-126" rx="79.0865" ry="18"/>
<text text-anchor="middle" x="390.329" y="-122.3" font-family="Times,serif" font-size="14.00" fill="gray">\RuntimeException</text>
</g>
<!-- \\Haldayne\\Customs\\UploadException&#45;&gt;\\RuntimeException -->
<g id="edge1" class="edge"><title>\\Haldayne\\Customs\\UploadException&#45;&gt;\\RuntimeException</title>
<path fill="none" stroke="black" d="M643.49,-479.775C634.18,-475.857 625.433,-470.453 618.764,-463 524.953,-358.161 656.205,-250.476 554.764,-153 534.171,-133.212 504.962,-124.714 476.92,-121.723"/>
<polygon fill="none" stroke="black" points="476.918,-118.211 466.66,-120.86 476.331,-125.186 476.918,-118.211"/>
</g>
<!-- \\Haldayne\\Customs\\UploadIteratorTest -->
<g id="node2" class="node"><title>\\Haldayne\\Customs\\UploadIteratorTest</title>
<polygon fill="none" stroke="black" points="771.764,-454 633.764,-454 633.764,-418 771.764,-418 771.764,-454"/>
<text text-anchor="middle" x="702.764" y="-433.2" font-family="Courier,monospace" font-size="11.00">UploadIteratorTest</text>
</g>
<!-- \\PHPUnit_Framework_TestCase -->
<g id="node12" class="node"><title>\\PHPUnit_Framework_TestCase</title>
<ellipse fill="none" stroke="black" cx="390.329" cy="-72" rx="126.978" ry="18"/>
<text text-anchor="middle" x="390.329" y="-68.3" font-family="Times,serif" font-size="14.00" fill="gray">\PHPUnit_Framework_TestCase</text>
</g>
<!-- \\Haldayne\\Customs\\UploadIteratorTest&#45;&gt;\\PHPUnit_Framework_TestCase -->
<g id="edge2" class="edge"><title>\\Haldayne\\Customs\\UploadIteratorTest&#45;&gt;\\PHPUnit_Framework_TestCase</title>
<path fill="none" stroke="black" d="M633.63,-420.884C628.093,-417.656 623.008,-413.743 618.764,-409 524.953,-304.161 656.205,-196.476 554.764,-99 545.935,-90.5158 535.521,-84.1069 524.295,-79.3177"/>
<polygon fill="none" stroke="black" points="525.282,-75.9485 514.691,-75.6657 522.794,-82.4914 525.282,-75.9485"/>
</g>
<!-- \\Haldayne\\Customs\\UploadError -->
<g id="node3" class="node"><title>\\Haldayne\\Customs\\UploadError</title>
<polygon fill="none" stroke="black" points="748.264,-346 657.264,-346 657.264,-310 748.264,-310 748.264,-346"/>
<text text-anchor="middle" x="702.764" y="-325.2" font-family="Courier,monospace" font-size="11.00">UploadError</text>
</g>
<!-- \\Haldayne\\Customs\\AbstractdUploadEntity -->
<g id="node13" class="node"><title>\\Haldayne\\Customs\\AbstractdUploadEntity</title>
<ellipse fill="none" stroke="black" cx="390.329" cy="-18" rx="164.371" ry="18"/>
<text text-anchor="middle" x="390.329" y="-14.3" font-family="Times,serif" font-size="14.00" fill="gray">\Haldayne\Customs\AbstractdUploadEntity</text>
</g>
<!-- \\Haldayne\\Customs\\UploadError&#45;&gt;\\Haldayne\\Customs\\AbstractdUploadEntity -->
<g id="edge3" class="edge"><title>\\Haldayne\\Customs\\UploadError&#45;&gt;\\Haldayne\\Customs\\AbstractdUploadEntity</title>
<path fill="none" stroke="black" d="M657.028,-320.407C643.073,-315.992 628.74,-309.017 618.764,-298 540.911,-212.025 640.152,-123.497 554.764,-45 549.572,-40.2269 543.875,-36.1206 537.817,-32.597"/>
<polygon fill="none" stroke="black" points="539.186,-29.3633 528.701,-27.8417 535.948,-35.5697 539.186,-29.3633"/>
</g>
<!-- \\Haldayne\\Customs\\AbstractUploadEntity -->
<g id="node4" class="node"><title>\\Haldayne\\Customs\\AbstractUploadEntity</title>
<polygon fill="none" stroke="black" points="778.764,-400 626.764,-400 626.764,-364 778.764,-364 778.764,-400"/>
<text text-anchor="start" x="668.764" y="-385.2" font-family="Courier,monospace" font-size="11.00">«abstract»</text>
<text text-anchor="start" x="634.764" y="-373.2" font-family="Courier,monospace" font-size="11.00">AbstractUploadEntity</text>
</g>
<!-- \\Haldayne\\Customs\\UploadIterator -->
<g id="node5" class="node"><title>\\Haldayne\\Customs\\UploadIterator</title>
<polygon fill="none" stroke="black" points="758.264,-562 647.264,-562 647.264,-526 758.264,-526 758.264,-562"/>
<text text-anchor="middle" x="702.764" y="-541.2" font-family="Courier,monospace" font-size="11.00">UploadIterator</text>
</g>
<!-- \\ArrayAccess -->
<g id="node14" class="node"><title>\\ArrayAccess</title>
<ellipse fill="none" stroke="black" cx="78.5" cy="-126" rx="58.4896" ry="18"/>
<text text-anchor="middle" x="78.5" y="-122.3" font-family="Times,serif" font-size="14.00" fill="gray">\ArrayAccess</text>
</g>
<!-- \\Haldayne\\Customs\\UploadIterator&#45;&gt;\\ArrayAccess -->
<g id="edge4" class="edge"><title>\\Haldayne\\Customs\\UploadIterator&#45;&gt;\\ArrayAccess</title>
<path fill="none" stroke="black" stroke-dasharray="1,5" d="M389.329,-226C328.584,-185.285 293.814,-234.098 225.893,-207 188.741,-192.177 189.076,-172.03 153.893,-153 146.51,-149.006 138.414,-145.381 130.365,-142.176"/>
<polygon fill="none" stroke="black" points="131.576,-138.892 120.985,-138.609 129.088,-145.435 131.576,-138.892"/>
</g>
<!-- \\SeekableIterator -->
<g id="node15" class="node"><title>\\SeekableIterator</title>
<ellipse fill="none" stroke="black" cx="390.329" cy="-180" rx="70.6878" ry="18"/>
<text text-anchor="middle" x="390.329" y="-176.3" font-family="Times,serif" font-size="14.00" fill="gray">\SeekableIterator</text>
</g>
<!-- \\Haldayne\\Customs\\UploadIterator&#45;&gt;\\SeekableIterator -->
<g id="edge5" class="edge"><title>\\Haldayne\\Customs\\UploadIterator&#45;&gt;\\SeekableIterator</title>
<path fill="none" stroke="black" stroke-dasharray="1,5" d="M646.919,-535.116C636.35,-531.12 626.255,-525.344 618.764,-517 526.236,-413.932 653.362,-309.277 554.764,-212 532.667,-190.199 500.358,-181.055 470.29,-177.787"/>
<polygon fill="none" stroke="black" points="470.466,-174.289 460.196,-176.895 469.849,-181.262 470.466,-174.289"/>
</g>
<!-- \\Countable -->
<g id="node16" class="node"><title>\\Countable</title>
<ellipse fill="none" stroke="black" cx="78.5" cy="-72" rx="49.2915" ry="18"/>
<text text-anchor="middle" x="78.5" y="-68.3" font-family="Times,serif" font-size="14.00" fill="gray">\Countable</text>
</g>
<!-- \\Haldayne\\Customs\\UploadIterator&#45;&gt;\\Countable -->
<g id="edge6" class="edge"><title>\\Haldayne\\Customs\\UploadIterator&#45;&gt;\\Countable</title>
<path fill="none" stroke="black" stroke-dasharray="1,5" d="M646.877,-531.266C637.017,-527.587 627.204,-522.911 618.764,-517 484.31,-422.837 527.681,-317.393 391.329,-226"/>
<path fill="none" stroke="black" stroke-dasharray="1,5" d="M389.329,-226C328.584,-185.285 288.264,-245.177 225.893,-207 176.69,-176.883 199.273,-134.619 153.893,-99 146.826,-93.4527 138.515,-88.9776 130.057,-85.389"/>
<polygon fill="none" stroke="black" points="131.094,-82.0375 120.504,-81.7041 128.574,-88.5685 131.094,-82.0375"/>
</g>
<!-- \\Haldayne\\Boost\\Contract\\Arrayable -->
<g id="node6" class="node"><title>\\Haldayne\\Boost\\Contract\\Arrayable</title>
<polygon fill="none" stroke="black" points="117,-650 40,-650 40,-614 117,-614 117,-650"/>
<text text-anchor="middle" x="78.5" y="-629.2" font-family="Courier,monospace" font-size="11.00">Arrayable</text>
</g>
<!-- \\Haldayne\\Boost\\Contract\\Jsonable -->
<g id="node7" class="node"><title>\\Haldayne\\Boost\\Contract\\Jsonable</title>
<polygon fill="none" stroke="black" points="114,-704 43,-704 43,-668 114,-668 114,-704"/>
<text text-anchor="middle" x="78.5" y="-683.2" font-family="Courier,monospace" font-size="11.00">Jsonable</text>
</g>
<!-- \\Haldayne\\Boost\\Map -->
<g id="node8" class="node"><title>\\Haldayne\\Boost\\Map</title>
<polygon fill="none" stroke="black" points="417.329,-642 363.329,-642 363.329,-606 417.329,-606 417.329,-642"/>
<text text-anchor="middle" x="390.329" y="-621.2" font-family="Courier,monospace" font-size="11.00">Map</text>
</g>
<!-- \\Haldayne\\Boost\\Map&#45;&gt;\\Haldayne\\Boost\\Contract\\Arrayable -->
<g id="edge9" class="edge"><title>\\Haldayne\\Boost\\Map&#45;&gt;\\Haldayne\\Boost\\Contract\\Arrayable</title>
<path fill="none" stroke="black" stroke-dasharray="1,5" d="M363.18,-624.675C311.042,-626.021 193.476,-629.057 127.223,-630.768"/>
<polygon fill="none" stroke="black" points="126.955,-627.273 117.048,-631.03 127.135,-634.271 126.955,-627.273"/>
</g>
<!-- \\Haldayne\\Boost\\Map&#45;&gt;\\Haldayne\\Boost\\Contract\\Jsonable -->
<g id="edge10" class="edge"><title>\\Haldayne\\Boost\\Map&#45;&gt;\\Haldayne\\Boost\\Contract\\Jsonable</title>
<path fill="none" stroke="black" stroke-dasharray="1,5" d="M363.18,-629.233C310.28,-639.818 190.027,-663.882 124.353,-677.025"/>
<polygon fill="none" stroke="black" points="123.418,-673.642 114.3,-679.036 124.792,-680.506 123.418,-673.642"/>
</g>
<!-- \\Haldayne\\Boost\\Map&#45;&gt;\\ArrayAccess -->
<g id="edge11" class="edge"><title>\\Haldayne\\Boost\\Map&#45;&gt;\\ArrayAccess</title>
<path fill="none" stroke="black" stroke-dasharray="1,5" d="M382.395,-605.918C352.165,-527.877 230.005,-220.8 153.893,-153 148.392,-148.099 141.931,-144.067 135.153,-140.754"/>
<polygon fill="none" stroke="black" points="136.342,-137.454 125.776,-136.669 133.546,-143.872 136.342,-137.454"/>
</g>
<!-- \\Haldayne\\Boost\\Map&#45;&gt;\\Countable -->
<g id="edge8" class="edge"><title>\\Haldayne\\Boost\\Map&#45;&gt;\\Countable</title>
<path fill="none" stroke="black" stroke-dasharray="1,5" d="M381.623,-605.76C343.341,-515.287 174.635,-118.272 153.893,-99 147.385,-92.9523 139.417,-88.2372 131.144,-84.5672"/>
<polygon fill="none" stroke="black" points="132.321,-81.269 121.734,-80.8525 129.75,-87.78 132.321,-81.269"/>
</g>
<!-- \\IteratorAggregate -->
<g id="node17" class="node"><title>\\IteratorAggregate</title>
<ellipse fill="none" stroke="black" cx="78.5" cy="-180" rx="75.2868" ry="18"/>
<text text-anchor="middle" x="78.5" y="-176.3" font-family="Times,serif" font-size="14.00" fill="gray">\IteratorAggregate</text>
</g>
<!-- \\Haldayne\\Boost\\Map&#45;&gt;\\IteratorAggregate -->
<g id="edge12" class="edge"><title>\\Haldayne\\Boost\\Map&#45;&gt;\\IteratorAggregate</title>
<path fill="none" stroke="black" stroke-dasharray="1,5" d="M376.605,-605.767C328.154,-536.334 155.041,-288.254 97.9278,-206.408"/>
<polygon fill="none" stroke="black" points="100.751,-204.338 92.1584,-198.14 95.0107,-208.344 100.751,-204.338"/>
</g>
<!-- \\Haldayne\\Boost\\MapOfMaps -->
<g id="node9" class="node"><title>\\Haldayne\\Boost\\MapOfMaps</title>
<polygon fill="none" stroke="black" points="741.264,-642 664.264,-642 664.264,-606 741.264,-606 741.264,-642"/>
<text text-anchor="middle" x="702.764" y="-621.2" font-family="Courier,monospace" font-size="11.00">MapOfMaps</text>
</g>
<!-- \\Haldayne\\Boost\\MapOfMaps&#45;&gt;\\Haldayne\\Boost\\Map -->
<g id="edge13" class="edge"><title>\\Haldayne\\Boost\\MapOfMaps&#45;&gt;\\Haldayne\\Boost\\Map</title>
<path fill="none" stroke="black" d="M664.009,-624C603.798,-624 486.797,-624 427.56,-624"/>
<polygon fill="none" stroke="black" points="427.54,-620.5 417.54,-624 427.54,-627.5 427.54,-620.5"/>
</g>
<!-- \\Haldayne\\DataStructure\\CollectionTest -->
<g id="node10" class="node"><title>\\Haldayne\\DataStructure\\CollectionTest</title>
<polygon fill="none" stroke="black" points="758.264,-266 647.264,-266 647.264,-230 758.264,-230 758.264,-266"/>
<text text-anchor="middle" x="702.764" y="-245.2" font-family="Courier,monospace" font-size="11.00">CollectionTest</text>
</g>
<!-- \\Haldayne\\DataStructure\\CollectionTest&#45;&gt;\\PHPUnit_Framework_TestCase -->
<g id="edge7" class="edge"><title>\\Haldayne\\DataStructure\\CollectionTest&#45;&gt;\\PHPUnit_Framework_TestCase</title>
<path fill="none" stroke="black" d="M689.891,-229.982C667.619,-197.801 616.232,-130.84 554.764,-99 541.462,-92.1098 526.807,-86.9056 511.9,-82.9868"/>
<polygon fill="none" stroke="black" points="512.624,-79.5607 502.079,-80.5923 510.965,-86.3615 512.624,-79.5607"/>
</g>
</g>
</svg>
